<svg width="1648" height="441" viewBox="0 0 1648 441" fill="none" xmlns="http://www.w3.org/2000/svg">
<path d="M202.656 439.584C133.442 432.882 73.6826 397.69 36.4014 341.677C1.90429 289.847 -8.73301 224.695 7.32074 163.557C18.8009 119.837 43.8383 80.7792 78.8018 52.0482C111.242 25.3906 150.225 8.45986 193.326 2.30837C199.46 1.43305 208.735 0.508975 208.968 0.749715C209.141 0.928237 210.763 23.9194 210.615 24.0833C210.564 24.1395 208.573 24.3603 206.192 24.5747C180.19 26.9165 154.593 34.1357 131.93 45.5192C74.0258 74.6041 34.1205 129.956 25.8089 192.718C20.2038 235.043 29.4636 281.28 50.9821 318.412C59.9499 333.887 70.231 347.141 83.1445 359.876C105.436 381.859 130.807 397.152 161.167 406.903C175.489 411.504 193.602 415.011 207.252 415.827L211.674 416.092L211.442 419.647C211.314 421.603 211.095 427.03 210.954 431.707L210.698 440.211L209.456 440.167C208.773 440.142 205.713 439.88 202.656 439.584ZM233.874 430.73C233.604 425.73 233.28 420.477 233.154 419.057L232.925 416.474L236.848 416.207C276.594 413.487 319.264 396.147 349.853 370.286C352.185 368.314 354.239 366.702 354.418 366.702C354.704 366.702 366.077 378.513 369.584 382.453L370.901 383.932L368.398 386.168C341.484 410.196 303.718 428.67 266.356 436.084C257.303 437.88 241.649 439.821 236.214 439.821H234.366L233.874 430.73ZM379.153 358.643C374.338 354.425 370.399 350.898 370.399 350.805C370.399 350.712 371.18 349.809 372.135 348.796C375.494 345.236 381.189 337.927 385.438 331.721C402.482 306.828 413.495 279.695 418.218 250.963C419.265 244.594 420.423 234.515 420.423 231.775V230.16L423.103 230.391C424.577 230.518 429.893 230.821 434.915 231.065C439.937 231.308 444.116 231.569 444.2 231.644C444.284 231.719 444.147 234.69 443.895 238.247C440.963 279.648 424.65 321.675 398.842 354.314C394.609 359.668 388.758 366.311 388.276 366.311C388.074 366.311 383.968 362.86 379.153 358.643ZM268.761 311.742C260.135 311.473 251.961 311.237 250.596 311.216L248.115 311.177V303.65C248.115 288.665 247.151 257.194 246.068 236.525L245.588 227.367L243.32 224.599C232.181 211.006 220.775 207.017 210.798 213.224C206.279 216.035 200.832 222.356 197.571 228.574L195.711 232.122V271.785V311.449L191.244 311.702C188.788 311.841 177.106 311.956 165.285 311.957H143.792L143.935 309.513C144.013 308.169 144.263 270.295 144.491 225.348C144.719 180.401 145.011 140.395 145.142 136.444L145.378 129.259L170.247 129.546C183.924 129.703 195.166 129.878 195.229 129.935C195.292 129.991 195.455 139.561 195.591 151.202C195.728 162.842 195.88 172.366 195.931 172.366C195.982 172.366 197.294 171.835 198.846 171.184C207.348 167.621 218.457 166.433 229.697 167.884C234.521 168.506 241.09 169.916 244.098 170.973C245.053 171.309 245.902 171.585 245.984 171.585C246.065 171.585 246.133 161.88 246.133 150.018V128.452L271.373 128.673C285.256 128.794 296.714 128.991 296.835 129.111C297.065 129.337 298.092 260.436 298.124 293.482L298.142 312.348L291.294 312.288C287.527 312.255 277.388 312.008 268.763 311.739L268.761 311.742ZM420.423 207.177C420.423 204.04 419.303 194.223 418.214 187.813C414.09 163.546 405.25 139.603 393.021 119.582C387.449 110.461 379.58 100.022 373.22 93.315C371.668 91.6781 370.399 90.167 370.399 89.9567C370.399 89.4885 387.668 73.834 388.184 73.834C389.155 73.834 397.547 83.9415 403.244 91.9728C423.316 120.267 436.774 153.089 441.821 186.054C442.779 192.308 443.848 202.529 443.848 205.424V207.48L441.168 207.71C439.694 207.836 435.451 208.119 431.738 208.337C428.026 208.555 423.962 208.831 422.707 208.948L420.423 209.163V207.177ZM350.547 70.4425C346.242 66.6367 338.391 60.7516 332.284 56.7523C305.278 39.0681 272.353 27.5443 241.452 24.9622C238.675 24.7304 235.465 24.4458 234.319 24.3301L232.234 24.1194L232.27 22.4857C232.29 21.5873 232.513 16.3649 232.767 10.881L233.227 0.910631L235.609 0.78363C238.642 0.622546 246.727 1.29976 253.872 2.31414C290.597 7.52735 325.812 21.7409 354.328 42.8601C360.965 47.7759 370.46 55.8546 370.318 56.4665C370.185 57.0414 354.895 73.8493 354.545 73.8051C354.421 73.7889 352.621 72.2765 350.547 70.4425Z" fill="#F9F9F9"/>
<path d="M1372.91 343.484C1370.73 342.692 1369.31 341.009 1368.78 338.594C1368.2 335.907 1368.2 313.485 1368.78 310.8C1369.66 306.788 1372.59 305.033 1377.73 305.439C1381.39 305.728 1383.48 307.401 1384.24 310.646C1384.44 311.49 1384.61 317.811 1384.61 324.693C1384.61 331.575 1384.44 337.895 1384.24 338.739C1383.47 342.027 1381.19 343.688 1377.15 343.913C1375.45 344.008 1373.93 343.854 1372.91 343.484H1372.91ZM1378.26 337.426C1378.51 336.952 1378.67 332.172 1378.67 324.598C1378.67 311.45 1378.61 311.105 1376.48 311.105C1374.36 311.105 1374.3 311.45 1374.3 324.598C1374.3 332.172 1374.45 336.952 1374.71 337.426C1375 337.948 1375.54 338.183 1376.48 338.183C1377.42 338.183 1377.97 337.948 1378.26 337.426ZM1392.76 343.484C1389.48 342.293 1388.2 339.526 1388.2 333.667V330.754H1391.17H1394.15V333.711C1394.15 337.4 1394.53 338.183 1396.33 338.183C1398.13 338.183 1398.52 337.399 1398.52 333.769C1398.52 330.191 1397.93 329.216 1393.82 325.932C1389.41 322.406 1388.23 320.116 1388.21 315.034C1388.17 307.817 1391.01 304.919 1397.58 305.439C1402.66 305.841 1404.44 308.419 1404.46 315.406L1404.48 318.632H1401.5H1398.52V315.578C1398.52 312.097 1398.04 311.105 1396.34 311.105C1394.74 311.105 1394.16 312.128 1394.16 314.933C1394.16 316.956 1394.34 317.586 1395.28 318.867C1395.9 319.706 1397.1 320.902 1397.96 321.526C1402.89 325.119 1404.15 327.168 1404.4 332.008C1404.73 338.487 1403.84 341.357 1400.97 343.006C1399.22 344.012 1394.91 344.263 1392.77 343.484H1392.76ZM1442.79 343.484C1440.61 342.692 1439.19 341.009 1438.66 338.594C1438.38 337.317 1438.22 330.935 1438.22 321.154V305.729H1441.2H1444.18V321.199C1444.18 331.116 1444.32 336.941 1444.59 337.426C1444.87 337.948 1445.42 338.183 1446.36 338.183C1447.3 338.183 1447.85 337.948 1448.13 337.426C1448.4 336.941 1448.54 331.116 1448.54 321.199V305.729H1451.52H1454.5L1454.48 321.467C1454.48 330.123 1454.31 337.895 1454.11 338.739C1453.34 342.027 1451.06 343.688 1447.02 343.913C1445.32 344.008 1443.8 343.854 1442.78 343.484H1442.79ZM1480.5 343.601C1478.68 342.94 1476.86 341.022 1476.35 339.219C1476.04 338.09 1475.93 333.369 1476.02 323.714C1476.13 310.033 1476.15 309.813 1477.04 308.396C1479.57 304.391 1487.84 304.227 1490.67 308.126L1491.62 309.443L1491.73 324.106C1491.84 338.694 1491.84 338.777 1490.94 340.519C1489.71 342.885 1488.08 343.747 1484.53 343.906C1482.97 343.976 1481.16 343.838 1480.5 343.601ZM1485.64 337.313C1486.17 336.574 1486.26 334.709 1486.26 324.826C1486.26 318.437 1486.1 312.781 1485.89 312.259C1485.43 311.053 1483.98 310.659 1482.8 311.42L1481.89 312.002V324.623C1481.89 333.918 1482.02 337.367 1482.37 337.713C1483.16 338.49 1484.96 338.27 1485.64 337.313ZM1528.94 343.601C1527.12 342.94 1525.3 341.022 1524.79 339.219C1524.47 338.09 1524.37 333.369 1524.45 323.714C1524.57 310.234 1524.6 309.794 1525.44 308.465C1526.68 306.5 1528.4 305.647 1531.58 305.423C1535.05 305.179 1537.45 306.009 1538.97 307.981L1540.06 309.381L1540.17 324.075C1540.28 338.695 1540.27 338.777 1539.37 340.519C1538.15 342.885 1536.52 343.747 1532.97 343.906C1531.41 343.976 1529.6 343.838 1528.94 343.601ZM1534.08 337.313C1534.61 336.574 1534.7 334.709 1534.7 324.826C1534.7 318.437 1534.53 312.781 1534.33 312.259C1533.87 311.053 1532.41 310.659 1531.23 311.42L1530.33 312.002V324.623C1530.33 333.918 1530.46 337.367 1530.81 337.713C1531.6 338.49 1533.4 338.27 1534.08 337.313ZM1596.83 343.462C1594.97 342.818 1593.16 340.868 1592.84 339.178C1592.72 338.522 1592.68 331.533 1592.74 323.645C1592.88 307.37 1592.76 307.995 1596.26 306.189C1597.76 305.414 1598.46 305.304 1601.04 305.436C1606.69 305.727 1608.21 307.569 1608.47 314.428L1608.63 318.632H1605.61H1602.59V315.355C1602.59 311.765 1602.24 311.105 1600.34 311.105C1598.24 311.105 1598.18 311.48 1598.31 324.998C1598.43 338.522 1598.37 338.163 1600.69 338.176C1602.18 338.191 1602.59 337.215 1602.59 333.711V330.753H1605.57H1608.54V334.174C1608.54 338.45 1608.02 340.344 1606.4 341.936C1604.33 343.974 1600.21 344.632 1596.83 343.462H1596.83ZM1635.06 343.684C1631.54 342.563 1630.38 340.323 1630.38 334.655V330.753H1633.16H1635.94V333.392C1635.94 336.607 1636.54 337.941 1638.05 338.113C1639.95 338.328 1640.3 337.668 1640.3 333.922C1640.3 330.715 1640.24 330.464 1639.07 329.065C1638.39 328.254 1636.62 326.638 1635.14 325.475C1631.19 322.372 1630.37 320.565 1630.37 314.923C1630.37 309.494 1631.15 307.6 1633.93 306.217C1636.21 305.086 1640.16 305.023 1642.52 306.081C1645.26 307.304 1646.03 309.011 1646.2 314.232L1646.34 318.631H1643.32H1640.3V315.316C1640.3 312.301 1640.22 311.949 1639.4 311.42C1637.42 310.147 1635.93 311.704 1635.93 315.032C1635.93 317.518 1637.14 319.359 1640.45 321.96C1645.7 326.079 1646.41 327.667 1646.19 334.845C1646.03 340.145 1645.52 341.506 1643.13 342.962C1641.64 343.87 1636.96 344.288 1635.06 343.683L1635.06 343.684ZM1300.85 324.447V305.628L1306.34 305.801C1312.95 306.009 1314.43 306.547 1315.84 309.255C1316.63 310.786 1316.73 311.555 1316.73 316.193C1316.73 321.527 1316.42 322.897 1314.96 324.097C1314.38 324.567 1314.43 324.729 1315.43 325.757L1316.53 326.895V333.097C1316.53 339.988 1316.37 340.502 1313.56 342.385C1312.35 343.197 1311.8 343.265 1306.55 343.265H1300.85V324.447ZM1310.2 337.236C1310.88 336.751 1310.97 336.19 1310.97 332.799C1310.97 328.265 1310.65 327.625 1308.35 327.625H1306.81V332.708V337.791H1308.12C1308.84 337.791 1309.78 337.541 1310.2 337.236ZM1310.2 321.205C1310.88 320.72 1310.97 320.159 1310.97 316.768C1310.97 312.234 1310.65 311.593 1308.35 311.593H1306.81V316.677V321.76H1308.12C1308.84 321.76 1309.78 321.51 1310.2 321.205ZM1321.1 324.497V305.728H1323.88H1326.66V324.497V343.265H1323.88H1321.1V324.497ZM1331.42 324.45V305.637L1336.68 305.788C1343.05 305.972 1344.61 306.55 1346.01 309.254C1346.81 310.795 1346.91 311.547 1346.91 316.383C1346.91 321.036 1346.79 322.006 1346.1 323.338C1345.66 324.19 1345.17 324.891 1345.01 324.896C1344.85 324.896 1344.31 325.213 1343.82 325.59L1342.91 326.276L1345.68 334.099C1347.21 338.402 1348.57 342.232 1348.72 342.61C1348.97 343.238 1348.7 343.288 1345.68 343.183L1342.38 343.07L1339.98 335.054L1337.58 327.038L1337.47 335.152L1337.36 343.265H1334.39H1331.42L1331.42 324.45ZM1340.38 321.204C1341.02 320.74 1341.17 320.084 1341.26 317.196C1341.4 312.879 1340.95 311.838 1338.86 311.667L1337.38 311.546V316.653V321.76H1338.49C1339.11 321.76 1339.95 321.509 1340.38 321.204ZM1351.67 324.496V305.728H1354.45H1357.23V321.759V337.791H1361.6H1365.96V340.528V343.265H1358.82H1351.67V324.496ZM1416.78 342.524C1416.78 340.746 1421.4 309.86 1422.15 306.607C1422.35 305.769 1422.54 305.728 1426.22 305.728H1430.08L1432.18 319.12C1433.33 326.486 1434.6 334.931 1434.99 337.888L1435.71 343.265H1432.82C1429.58 343.265 1429.72 343.405 1429.3 339.745C1428.77 335.202 1428.95 335.445 1426.13 335.445H1423.63L1423.18 338.393C1422.94 340.015 1422.74 341.774 1422.74 342.303C1422.74 343.239 1422.66 343.265 1419.76 343.265C1417.1 343.265 1416.78 343.185 1416.78 342.524ZM1427.78 328.504C1427.65 327.697 1427.24 324.662 1426.85 321.759L1426.14 316.48L1425.49 321.172C1425.14 323.753 1424.72 326.788 1424.57 327.917L1424.3 329.97H1426.15H1428L1427.78 328.504ZM1462.44 327.429V311.593H1459.86H1457.28V308.66V305.728H1465.22H1473.16V308.66V311.593H1470.58H1468V327.429V343.265H1465.22H1462.44V327.429ZM1496.19 324.496V305.728H1499.07H1501.96L1505.11 318.142C1506.84 324.97 1508.34 330.207 1508.42 329.781C1508.51 329.354 1509.88 323.812 1511.45 317.465L1514.32 305.923L1517.16 305.808L1520.01 305.693V324.478V343.264H1517.23H1514.45L1514.41 334.368L1514.37 325.473L1512.37 334.368L1510.36 343.264H1508.29H1506.21L1505.41 339.842C1504.97 337.96 1504.01 333.782 1503.27 330.556L1501.94 324.691L1501.84 333.977L1501.73 343.264H1498.96H1496.19L1496.19 324.496ZM1548.2 327.429V311.593H1545.62H1543.04V308.66V305.728H1550.98H1558.92V308.66V311.593H1556.53H1554.15V327.429V343.265H1551.17H1548.2V327.429ZM1562.09 324.45V305.637L1567.35 305.793C1573.78 305.983 1575.31 306.548 1576.68 309.232C1577.48 310.791 1577.58 311.553 1577.58 316.406C1577.58 322.594 1577.13 324.087 1574.92 325.371C1574.2 325.793 1573.61 326.168 1573.61 326.205C1573.61 326.242 1574.95 330.037 1576.58 334.637C1578.22 339.236 1579.56 343.066 1579.56 343.148C1579.56 343.229 1578.11 343.245 1576.33 343.183L1573.1 343.069L1570.67 335.054L1568.25 327.037L1568.14 335.151L1568.03 343.265H1565.06H1562.09L1562.09 324.45ZM1571.05 321.204C1571.69 320.74 1571.84 320.066 1571.96 317.09C1572.13 312.74 1571.6 311.593 1569.43 311.593H1568.05V316.676V321.759H1569.16C1569.78 321.759 1570.62 321.509 1571.05 321.204ZM1582.34 324.496V305.728H1585.32H1588.3V324.496V343.265H1585.32H1582.34V324.496ZM1612.51 324.496V305.728H1619.86H1627.2V308.66V311.593H1622.84H1618.47V316.676V321.759H1622.04H1625.62V324.691V327.624H1622.04H1618.47V332.707V337.791H1622.84H1627.2V340.528V343.265H1619.86H1612.51V324.496ZM1417.58 297.873C1411.25 297.074 1404.24 294.931 1398.78 292.128C1392.44 288.877 1388.48 282.743 1386.42 272.985C1384.99 266.196 1384.82 260.07 1384.82 215.208C1384.82 166.105 1384.71 168.138 1387.75 159.252C1392.68 144.807 1402.54 136.763 1418.17 134.415C1423.89 133.557 1451.22 133.675 1459.66 134.594C1486.86 137.558 1498.25 142.399 1503.72 153.336C1506.04 157.966 1506.62 161.182 1506.4 168.092C1506.23 173.156 1506.06 174.274 1504.78 178.557C1502.02 187.807 1498.17 195.933 1492.81 203.869C1487.71 211.419 1479.86 220.055 1461.09 238.764L1449.22 250.595H1478.26C1494.23 250.595 1507.3 250.723 1507.3 250.877C1507.3 251.283 1501.62 262.239 1495.99 272.687C1493.32 277.633 1489.66 284.496 1487.85 287.937C1486.04 291.378 1483.92 294.858 1483.13 295.671C1480.54 298.357 1481.24 298.304 1448.97 298.248C1433.12 298.222 1419 298.053 1417.58 297.873ZM1444.13 201.035L1452.9 190.771H1444.59C1436.38 190.771 1436.27 190.785 1435.17 191.714L1434.05 192.657L1433.94 202.76C1433.82 212.759 1433.83 212.854 1434.59 212.08C1435.01 211.65 1439.3 206.68 1444.13 201.035ZM1520.41 298.029C1519.44 297.666 1518.35 296.604 1517.99 295.666C1517.49 294.368 1517.47 258.064 1517.97 256.774C1518.2 256.194 1518.88 255.402 1519.48 255.015C1520.5 254.354 1522.66 254.297 1554.08 254.114L1587.59 253.919L1582.71 248.836C1580.03 246.04 1569.16 235.042 1558.55 224.397C1525.22 190.946 1520.73 185.576 1518.18 176.108C1517.6 173.956 1517.44 171.948 1517.44 166.723C1517.44 159.097 1517.87 156.899 1520.38 151.863C1524.8 142.972 1532.44 136.814 1541.25 135.048C1545.03 134.29 1570.29 133.725 1582.54 134.125C1586.69 134.261 1593.47 134.392 1597.6 134.418C1606.5 134.474 1607.69 134.818 1609.66 137.908C1611.31 140.505 1630.38 177.09 1630.38 177.658C1630.38 177.764 1617.79 177.899 1602.41 177.957C1580.81 178.038 1574.33 178.173 1573.95 178.547C1573.56 178.933 1575.12 180.693 1581.58 187.15C1586.05 191.614 1596.13 201.865 1603.98 209.93C1611.83 217.995 1621.75 228.112 1626.02 232.413C1634.56 241.015 1637.67 245.099 1640.94 251.974C1643.04 256.403 1645.53 263.523 1646.49 267.8C1647.39 271.877 1647.41 279.358 1646.52 282.658C1644.91 288.638 1641.21 293.715 1636.96 295.76C1632.07 298.115 1634.09 298.037 1575 298.15C1545.3 298.207 1520.73 298.15 1520.41 298.029ZM709.626 297.315C709.049 297.006 708.378 296.193 708.135 295.509C707.819 294.615 707.76 284.887 707.925 260.993C708.051 242.678 707.99 223.678 707.787 218.728C707.441 210.279 707.351 209.56 706.304 206.855C704.127 201.227 699.542 195.587 694.896 192.819C690.344 190.106 684.091 188.74 679.81 189.521C672.605 190.836 665.864 197.168 660.635 207.531L658.864 211.041V253.136V295.231L657.703 296.374L656.543 297.516H629.087H601.632L600.505 296.407C599.743 295.657 599.303 294.739 599.143 293.572C599.014 292.623 599.043 248.62 599.208 195.787L599.508 99.728L600.465 98.7249C600.991 98.1734 601.974 97.6292 602.649 97.5155C604.91 97.1351 654.669 96.6597 655.967 97.0061C656.667 97.1929 657.605 97.8035 658.051 98.3627C658.847 99.3586 658.863 99.8147 658.863 120.597V141.814L661.742 141.098C667.566 139.649 671.102 139.353 682.287 139.372C691.314 139.388 694.363 139.544 699.885 140.275C703.559 140.761 706.82 141.255 707.131 141.373C707.617 141.556 707.697 138.611 707.697 120.596V99.6046L708.858 98.4623L710.019 97.3193L730.793 97.2211C760.422 97.0822 763.744 97.1032 764.98 97.4347C765.593 97.5992 766.432 98.292 766.865 98.9912C767.635 100.235 767.645 101.513 767.647 197.339C767.647 304.083 767.839 296.01 765.278 297.314C763.578 298.18 711.245 298.181 709.626 297.315ZM807.946 297.641C798.374 296.742 787.131 292.529 782.739 288.194C780.036 285.527 778.003 282.023 776.614 277.642C773.755 268.621 773.406 261.431 773.483 213.238C773.525 187.344 773.695 173.174 773.997 170.472C775.924 153.224 784.861 140.561 798.327 135.996C804.35 133.954 807.82 133.589 823.095 133.395C833.955 133.256 838.67 133.359 844.336 133.855C871.04 136.191 883.751 140.444 890.336 149.243C894.7 155.074 896.455 163.515 895.069 172.002C894.153 177.611 890.87 187.002 887.559 193.488C881.185 205.973 874.31 214.09 846.888 241.504L838.186 250.204H867.235C883.212 250.204 896.284 250.302 896.284 250.42C896.284 250.667 885.043 272.076 883.976 273.86C883.59 274.505 880.999 279.344 878.218 284.613C875.438 289.882 872.782 294.606 872.317 295.111C871.851 295.616 870.755 296.407 869.882 296.87C868.299 297.709 868.194 297.712 838.914 297.751C822.755 297.773 808.82 297.724 807.946 297.641ZM832.004 201.71C836.678 196.221 840.747 191.426 841.047 191.055C841.559 190.42 841.098 190.38 833.26 190.38H824.928L823.881 191.411L822.835 192.441V202.437C822.835 207.934 822.985 212.265 823.17 212.061C823.355 211.856 827.331 207.199 832.004 201.71ZM1064.22 297.32C1057.44 295.968 1052.6 293.442 1047.41 288.547C1040.52 282.037 1037.71 276.397 1034.24 262.13C1027.42 234.147 1026.66 200.425 1032.33 177.476C1037.96 154.649 1048.34 142.383 1065.9 137.791C1078.42 134.517 1093.94 133.172 1116.96 133.366L1131.39 133.487L1132.55 134.764L1133.7 136.041V159.294V182.547L1132.55 183.818L1131.4 185.09L1123.52 185.36C1115.74 185.627 1104.03 186.832 1100.95 187.684C1096.28 188.972 1092.41 192.093 1090.58 196.048C1088.37 200.787 1087.65 208.931 1087.65 228.963C1087.65 244.046 1087.68 244.223 1090.36 246.047C1092.43 247.458 1094.48 248.227 1097.87 248.865C1100.24 249.312 1106.17 249.422 1128.18 249.422C1143.23 249.422 1155.54 249.559 1155.54 249.726C1155.54 249.893 1155.25 250.441 1154.89 250.943C1154.53 251.446 1149.34 261.383 1143.34 273.025C1137.35 284.667 1131.99 294.783 1131.43 295.505C1129.51 298.001 1130.81 297.911 1097.29 297.87C1073.8 297.842 1066.21 297.716 1064.22 297.32ZM1179.61 297.473C1176.83 296.832 1173.43 294.732 1171.09 292.217C1166.96 287.78 1163.28 280.278 1161.81 273.322C1161.03 269.646 1161.01 268.03 1160.98 203.643C1160.95 138.496 1160.95 137.712 1161.74 136.39C1162.23 135.557 1163.04 134.875 1163.9 134.585C1164.9 134.243 1172.1 134.112 1190.82 134.096C1213.64 134.077 1216.51 134.142 1217.73 134.712C1218.48 135.062 1219.31 135.722 1219.57 136.178C1219.94 136.814 1220.1 150.264 1220.25 193.899L1220.45 250.79L1221.31 252.355C1222.39 254.326 1223.61 255.453 1225.62 256.332C1226.93 256.902 1228.65 257.049 1235.44 257.167L1243.68 257.311V198C1243.68 146.094 1243.75 138.534 1244.27 137.453C1245.49 134.941 1244.12 135.062 1272.49 134.94C1300.52 134.82 1300.61 134.826 1302.2 136.937L1303.03 138.041L1303.14 215.583C1303.22 277.194 1303.14 293.427 1302.74 294.599C1302.47 295.41 1301.74 296.441 1301.12 296.892C1300.01 297.701 1299.68 297.713 1273.72 297.829C1255.57 297.911 1246.99 297.814 1245.96 297.52C1243.2 296.73 1243.11 296.327 1242.88 284.507L1242.69 274.003L1237.29 281.361C1234.32 285.408 1230.87 290.162 1229.63 291.926C1227.01 295.633 1225.58 296.934 1223.52 297.499C1221.67 298.005 1181.81 297.982 1179.61 297.473ZM1316.73 297.228C1315.94 296.836 1315.04 295.949 1314.65 295.17C1313.99 293.878 1313.95 288.41 1313.95 197.699C1313.95 94.3808 1313.84 100.128 1315.92 98.2963C1316.79 97.5329 1317.45 97.5119 1343.71 97.4087L1370.6 97.3027L1371.7 98.1578C1374.05 99.9777 1373.9 93.1885 1373.9 197.613C1373.9 302.129 1374.06 295.359 1371.67 296.947C1370.57 297.683 1369.58 297.715 1344.33 297.814C1319.96 297.91 1318.02 297.869 1316.73 297.228ZM908.67 296.862C906.016 295.574 906.21 301.958 906.21 215.454V136.871L907.231 135.675C907.793 135.017 908.91 134.29 909.713 134.059C910.701 133.775 918.666 133.677 934.398 133.759C955.814 133.869 957.704 133.932 958.655 134.568C960.109 135.542 960.677 136.97 960.905 140.232C961.015 141.791 961.154 143.067 961.216 143.067C961.278 143.067 964.362 141.599 968.068 139.803C975.101 136.397 979.668 134.761 984.026 134.088C985.459 133.866 993.632 133.687 1002.4 133.686C1019.35 133.686 1020.13 133.764 1021.49 135.684C1022.07 136.498 1022.14 138.804 1022.14 157.524C1022.14 170.715 1021.98 178.991 1021.73 179.908C1021.19 181.8 1019.67 183.554 1017.62 184.624C1016.04 185.454 1015.45 185.49 999.311 185.743C981.57 186.021 978.757 186.294 974.941 188.1C972.377 189.314 969.243 192.607 967.681 195.732L966.359 198.378L966.16 246.355C965.962 294.305 965.961 294.332 965.129 295.435C963.523 297.565 964.368 297.505 936.185 297.502C912.788 297.502 909.84 297.431 908.67 296.862Z" fill="white"/>
</svg>
