<svg width="876" height="161" viewBox="0 0 876 161" fill="none" xmlns="http://www.w3.org/2000/svg">
<path opacity="0.5" d="M513.293 17.7983L519.432 17.8055L513.293 17.7983Z" fill="#FF0000"/>
<path d="M76.5407 37.9121L67.9364 80.3447L37.1109 94.2685H99.1128L116.164 8.5433C99.1377 0.160271 79.6915 -1.91429 61.2807 2.68797C42.8699 7.29024 26.6863 18.2713 15.6056 33.6804C4.52484 49.0894 -0.735501 67.9284 0.759054 86.8501C2.25361 105.772 10.4064 123.551 23.7687 137.029L43.7264 37.9121H76.5407Z" fill="white"/>
<path d="M58.9687 123.444L52.6807 155.715C61.6393 159.048 71.1226 160.75 80.6812 160.74C82.241 160.74 83.8005 160.694 85.3603 160.6L92.4498 123.444H58.9687Z" fill="white"/>
<path d="M160.894 80.5145C160.918 63.5781 155.562 47.0719 145.598 33.3782L122.546 148.958C134.267 141.793 143.95 131.735 150.665 119.75C157.381 107.764 160.903 94.2537 160.894 80.5145Z" fill="white"/>
<path d="M189.998 54.691H209.207V82.0881L249.426 82.0179V54.6851H269.045L269.15 126.679L249.426 126.744V95.9243H209.201V126.744H189.998V54.691Z" fill="white"/>
<path d="M302.408 101.085L271.173 54.7327H294.26L312.135 86.0027L330.268 54.7327H353.378L322.184 100.95V126.791H302.408V101.085Z" fill="white"/>
<path d="M356.209 54.6851L400.078 54.7438C421.867 54.7438 435.261 67.0296 435.261 90.8053C435.261 111.586 426.084 126.744 400.411 126.744H356.104L356.209 54.6851ZM375.775 112.504L397.253 112.569C407.969 112.569 415.532 108.023 415.532 92.1626C415.532 77.7122 412.561 69.0069 394.188 69.0069L375.775 68.9425V112.504Z" fill="white"/>
<path d="M444.398 54.7327H495.416C510.489 54.7327 519.029 64.0931 519.029 74.9046C519.029 83.3349 517.549 88.8635 508.243 92.0753C517.309 94.082 517.181 102.934 517.766 110.159C518.116 114.675 517.485 122.731 520.784 126.744L499.516 126.891C497.27 122.404 499.025 114.055 498.071 108.363C496.779 100.833 491.052 100.26 481.693 100.26H464.052V126.774H444.398V54.7327ZM464.052 86.6463L487.057 86.7867C495.298 86.7867 498.709 84.7857 498.709 77.5547C498.709 70.6338 494.889 68.9432 486.648 68.9432L464.052 68.8729V86.6463Z" fill="white"/>
<path d="M550.622 54.7327H574.107L604.704 126.744H584.466L578.751 111.838L545.574 111.89L540.176 126.744H519.762L550.622 54.7327ZM551.014 98.8909H573.446L562.332 70.3472L562.098 70.4583L551.014 98.8909Z" fill="white"/>
<path d="M682.777 99.9382C682.777 119.309 667.112 128.605 644.622 128.605C622.009 128.605 607.479 119.42 607.479 99.9382L607.386 54.7327H627.764L627.308 99.9382C627.308 107.772 629.648 114.482 644.622 114.482C657.812 114.482 663.105 110.2 663.105 99.5579V54.7327H682.777V99.9382Z" fill="white"/>
<path d="M692.958 54.7327H713.342V111.797H756.147V126.744H692.975L692.958 54.7327Z" fill="white"/>
<path d="M763.005 54.7327H783.255V126.744H763.005V54.7327Z" fill="white"/>
<path d="M854.596 82.5206C853.426 75.3949 843.453 66.9703 834.27 66.9703C817.664 66.9703 812.107 78.7821 812.107 91.3311C812.107 103.272 817.921 114.458 834.527 114.458C845.828 114.458 853.181 108.145 854.596 98.7143H875.653C873.77 116.575 861.44 128.019 832.954 128.019C802.696 128.019 792.114 112.006 792.114 91.3311C792.114 70.0534 804.316 53.4912 830.345 53.4912C865.482 53.4912 873.419 65.9583 875.653 82.5206H854.596Z" fill="white"/>
</svg>
