<svg width="1481" height="441" viewBox="0 0 1481 441" fill="none" xmlns="http://www.w3.org/2000/svg">
<path d="M265.523 439.908C224.483 436.947 184.682 425.359 143.555 404.395C68.7078 366.245 14.2831 306.54 3.06945 250.279C-1.47521 227.474 1.17647 205.611 10.9191 185.579C13.837 179.578 31.9705 151.961 38.669 143.315C44.7893 135.415 52.2246 128.589 60.5519 123.226C66.364 119.482 78.9395 114.183 84.3647 113.192C85.9914 112.895 86.6747 112.294 88.7654 109.331C92.0191 104.721 99.2313 96.4015 102.992 92.9207C107.843 88.4323 131.819 67.8372 135.713 64.8145C146.008 56.8239 158.811 50.7791 170.459 48.41C176.451 47.191 185.942 46.4208 190.322 46.7975L194.259 47.1347L199.202 42.898C207.802 35.5291 214.854 31.2514 235.506 20.8795C261.529 7.812 268.048 5.3515 281.704 3.44627C295.553 1.51446 308.654 3.48454 321.144 9.37629C328.944 13.0565 336.783 18.3299 343.093 24.1389C344.242 25.1971 345.796 26.5424 346.544 27.1288C347.292 27.7152 350.345 30.9315 353.328 34.2761C370.138 53.1234 381.723 71.3843 407.333 119.405C420.386 143.882 421.18 145.357 424.398 151.171C425.861 153.814 427.768 157.27 428.633 158.851C435.815 171.965 444.498 186.31 457.567 206.655C486.395 251.527 496.815 271.844 502.074 293.441C504.22 302.251 504.949 309.373 504.61 318.26C504.203 328.894 502.319 336.526 497.672 346.357C489.974 362.641 474.363 377.899 453.013 390.006C443.436 395.436 407.001 413.434 399.234 416.571C383.316 422.999 366.26 427.429 352.415 428.731C350.449 428.917 345.95 429.976 342.418 431.087C329.617 435.115 317.385 437.646 303.395 439.161C294.344 440.142 274.255 440.538 265.523 439.908ZM302.611 420.855C315.783 419.385 325.593 417.315 338.129 413.356C341.721 412.222 346.07 411.141 347.794 410.954C363.663 409.231 379.977 404.943 395.067 398.529C400.721 396.126 426.493 383.414 426.234 383.156C426.156 383.077 422.811 384.311 418.805 385.901C385.044 399.295 351.01 400.523 320.893 389.431C307.982 384.676 290.958 374.92 280.411 366.231C272.879 360.026 272.389 359.582 265.256 352.435C256.779 343.945 249.062 334.556 241.303 323.3C232.336 310.291 220.947 288.78 214.617 272.897C204.268 246.932 197.355 218.724 194.474 190.72C193.541 181.651 193.219 156.22 193.922 146.99C196.293 115.778 204.219 89.4832 217.673 68.2053C226.145 54.8091 238.966 41.8927 251.433 34.1969C253.151 33.1366 254.554 32.191 254.554 32.0953C254.554 31.3991 228.01 44.9411 221.908 48.7505C204.027 59.9123 188.358 79.0664 178.852 101.381C172.685 115.859 168.13 134.349 165.66 154.932C164.734 162.657 164.728 196.242 165.66 203.781C166.031 206.798 166.693 212.088 167.133 215.536C170.308 240.446 178.198 269.349 188.097 292.336C191.741 300.795 198.022 313.88 200.26 317.675C201.022 318.968 202.894 322.142 204.42 324.728C210.475 334.998 217.865 345.58 225.031 354.246L228.706 358.687L225.049 356.111C190.532 331.782 160.683 298.502 138.331 259.422C133.719 251.359 126.3 235.516 122.799 226.255C108.462 188.333 105.723 153.811 114.786 125.259C118.579 113.31 126.708 99.2235 134.599 90.9317C137.493 87.8905 138.706 86.304 137.622 86.9743C136.062 87.9376 118.48 103.565 113.864 108.088C98.2774 123.363 89.1131 143.123 86.3451 167.428C85.4744 175.062 85.6047 190.319 86.6136 198.817C91.1011 236.659 109.142 277.759 137.867 315.585C140.812 319.464 143.651 323.111 144.176 323.687C144.701 324.264 147.152 327.085 149.619 329.956C163.911 346.584 185.662 366.445 200.016 375.976C201.576 377.011 202.85 377.949 202.85 378.061C202.85 378.812 182.712 369.952 171.249 364.159C133.78 345.22 102.852 322.062 78.124 294.426C69.6133 284.912 65.4732 279.551 58.7569 269.348C43.0024 245.41 35.3705 221.778 36.3972 200.124C36.936 188.781 39.5968 178.438 44.5146 168.587C45.9283 165.752 46.7752 163.754 46.3962 164.146C44.2819 166.328 28.916 190.136 27.0544 194.115C14.834 220.242 16.8814 248.925 33.1866 280.034C60.7311 332.588 124.593 382.441 195.538 406.769C221.318 415.609 243.36 420.031 270.757 421.859C276.407 422.236 295.696 421.628 302.621 420.855H302.611ZM332.124 330.771C344.765 329.335 360.279 327.565 366.598 326.837C372.92 326.108 385.612 324.678 394.806 323.657C403.998 322.637 412.759 321.426 414.274 320.969C417.488 319.997 421.136 317.004 423.016 313.796C425.264 309.961 425.488 307.116 424.3 297.411C422.853 285.577 421.267 282.198 415.642 278.98C411.705 276.728 408.262 276.542 396.371 277.942C374.043 280.571 345.014 283.76 343.048 283.8C341.875 283.826 340.368 283.552 339.701 283.195C338.033 282.302 336.067 280.102 335.769 278.793C335.51 277.667 333.947 264.616 332.602 252.369C332.176 248.49 331.609 243.435 331.34 241.136C331.072 238.837 330.496 233.783 330.061 229.904C329.627 226.024 328.452 215.679 327.449 206.915C324.144 178.009 320.354 144.729 318.524 128.548C315.59 102.627 315.635 102.803 310.925 98.5674C307.908 95.8553 304.609 94.5888 300.558 94.5895C295.962 94.5899 279.096 96.6278 276.397 97.5084C271.134 99.2272 267.152 103.907 266.06 109.662C265.677 111.69 265.861 114.951 266.854 123.692C267.564 129.955 268.611 139.193 269.178 144.222C269.744 149.25 270.909 159.477 271.768 166.948C272.625 174.419 273.801 184.764 274.382 189.936C274.962 195.108 276.385 207.569 277.544 217.626C278.705 227.683 279.873 237.91 280.144 240.352C280.415 242.795 280.989 247.849 281.422 251.585C283.394 268.684 287.066 301.081 288.023 309.838C289.496 323.327 290.268 325.768 294.183 329.306C297.946 332.706 301.509 333.973 306.267 333.604C307.846 333.482 319.483 332.207 332.124 330.771Z" fill="#F9F9F9"/>
<path d="M862.642 413.952C847.724 410.14 839.393 404.335 834.239 394.163C822.895 371.775 835.345 333.604 853.99 333.604C861.041 333.604 866.787 336.669 869.474 341.859C871.885 346.531 872.089 350.228 870.682 364.225C869.723 373.802 869.77 373.991 873.828 378.055C877.29 381.513 878.997 382.174 884.463 382.17C901.211 382.17 907.772 369.934 907.813 338.663C907.813 329.944 907.659 322.818 907.507 322.826C907.303 322.826 903.857 323.724 899.804 324.802C882.006 329.54 861.025 328.634 846.765 322.512C839.291 319.306 829.691 309.297 825.225 300.062C822.273 293.961 822.187 292.502 821.794 242.153L821.386 190.503L825.389 186.499C829.278 182.612 829.773 182.495 842.447 182.495C855.494 182.495 855.504 182.495 860.088 187.082L864.67 191.67V236.509C864.67 266.344 865.191 283.076 866.221 286.515C868.673 294.695 872.793 297.645 882.592 298.224C889.928 298.657 891.677 298.274 896.587 295.029C899.671 292.998 903.464 289.078 905.014 286.316C907.722 281.505 907.839 279.438 907.839 237.354C907.839 190.055 908.145 187.858 914.778 184.418C919.305 182.077 938.597 181.817 943.456 184.03C950.869 187.408 951.006 188.742 950.991 258.252C950.991 361.944 948.666 377.019 929.71 397.288C926.427 400.8 921.074 405.234 917.816 407.143C904.596 414.893 878.798 418.076 862.647 413.95L862.642 413.952ZM715.275 339.614C699.633 335.402 689.599 327.641 680.937 313.058C672.907 299.539 670.328 289.148 669.471 266.819C668.09 230.746 676.446 207.587 696.406 192.185C709.31 182.231 721.999 178.437 742.316 178.463C783.521 178.513 806.673 203.29 808.921 249.733C811.2 296.8 791.709 330.688 757.183 339.681C747.46 342.214 724.793 342.178 715.275 339.614ZM752.38 303.034C756.199 299.98 758.228 296.719 760.721 289.654C763.632 281.393 764.02 277.969 764.081 260.073C764.183 232.406 760.788 221.123 750.469 214.742C746.732 212.432 744.274 211.974 738.039 212.425C727.465 213.19 722.469 216.969 717.125 228.243C712.94 237.076 712.914 237.285 712.975 258.724C713.025 281.904 714.826 290.243 721.765 299.994C728.214 309.053 743.02 310.523 752.38 303.034ZM1007.31 340.234C986.867 335.416 971.715 317.771 966.617 292.848C963.915 279.655 963.854 253.552 966.465 239.617C969.351 224.364 977.702 208.163 988 197.848C1002.63 183.192 1017.64 177.888 1042.28 178.662L1057.37 179.136L1057.78 156.416L1058.19 133.696L1062.59 129.763C1066.77 126.029 1067.62 125.829 1079.26 125.829C1091.39 125.829 1091.55 125.879 1096.1 130.417L1100.68 135.003V217.904C1100.68 263.499 1101.09 307.23 1101.56 315.085L1102.43 329.366L1098.29 333.508C1094.36 337.437 1093.59 337.651 1083.43 337.651C1072.05 337.651 1066.77 335.353 1064.94 329.593C1064.2 327.222 1063.55 327.435 1057.39 332.097C1048.1 339.13 1039.03 341.729 1024.35 341.564C1017.73 341.487 1010.05 340.891 1007.26 340.234H1007.31ZM1045.4 304.934C1057.05 298.979 1056.89 299.666 1056.89 254.936V215.589L1053.12 213.781C1051.05 212.787 1045.59 211.922 1040.98 211.859C1021.84 211.599 1011.02 224.225 1007.48 250.976C1004.85 270.767 1008.91 292.815 1016.81 301.695C1022.79 308.409 1035.72 309.875 1045.4 304.934ZM1156.04 338.554C1128.28 330.322 1112.74 307.375 1110.58 271.408C1108.73 240.597 1117.56 215.064 1136.39 196.82C1150.6 183.042 1166.52 177.657 1189.95 178.707C1207.79 179.506 1218.14 183.684 1226.24 193.358C1234.23 202.904 1236.07 208.256 1236.19 222.295C1236.29 232.904 1235.83 235.383 1232.63 241.914C1227.24 252.886 1218.77 261.012 1206.77 266.702C1194.11 272.712 1184.82 275.208 1167.84 277.158C1152.85 278.88 1152.81 278.926 1157.88 289.81C1161.49 297.561 1167.23 302.954 1174.38 305.315C1182.09 307.859 1199.64 306.258 1209.51 302.108C1221.35 297.129 1227.73 299.14 1233.03 309.512C1238.07 319.412 1235.49 326.998 1225.15 332.627C1208.42 341.734 1176.11 344.505 1156.04 338.554ZM1164.13 245.851C1181.98 243.033 1191.47 238.145 1195.97 229.457C1198.71 224.147 1197.34 218.514 1192.25 214.237C1181.47 205.162 1162.92 215.01 1156.01 233.478C1153.3 240.718 1152.51 247.264 1154.35 247.245C1154.91 247.245 1159.31 246.613 1164.13 245.851ZM1287.91 339.682C1271.6 335.55 1261.15 327.115 1253.43 311.855C1247.36 299.846 1244.85 286.345 1244.9 266.027C1244.95 244.984 1247.43 232.532 1254.52 217.747C1266.98 191.777 1290.5 178.445 1323.86 178.449C1337.88 178.449 1353.7 180.668 1366.72 184.455C1373.87 186.533 1378.72 190.208 1380.31 194.761C1380.72 195.942 1381.24 226.858 1381.46 263.464L1381.87 330.021L1378.37 333.837C1375.07 337.449 1374.27 337.651 1363.44 337.651C1352.88 337.651 1351.73 337.376 1348.45 334.095C1346.49 332.138 1344.89 329.681 1344.89 328.634C1344.89 327.387 1343.11 328.165 1339.72 330.885C1336.88 333.17 1331.26 336.31 1327.25 337.862C1317.75 341.527 1298.68 342.41 1287.91 339.682H1287.91ZM1324.83 306.064C1330.74 303.587 1335.18 298.754 1336.83 293.016C1337.55 290.49 1338.14 272.193 1338.14 252.355V216.287L1334.81 214.103C1329.78 210.806 1314.58 211.061 1307.77 214.557C1293.55 221.845 1287.48 237.446 1287.67 266.143C1287.78 280.141 1288.29 284.27 1290.74 290.429C1294.17 299.07 1297.34 303.202 1302.64 305.966C1307.47 308.488 1318.92 308.538 1324.83 306.061V306.064ZM1422.76 339.532C1413.91 336.811 1405.46 328.322 1401.4 318.088L1398.19 309.993L1397.78 224.679C1397.38 146.848 1397.58 138.943 1399.64 134.561C1400.9 131.92 1403.63 128.874 1405.72 127.793C1410.97 125.081 1428.75 125.174 1434.1 127.94C1442.07 132.057 1442.03 131.615 1442.03 218.115C1442.03 266.361 1442.54 298.348 1443.35 300.475C1445.29 305.595 1449.85 307.166 1458.45 305.684C1469.65 303.753 1473.53 305.357 1477.66 313.637C1481.67 321.683 1481.97 325.388 1479.1 330.948C1476.66 335.653 1472.22 338.133 1462.53 340.184C1452.6 342.286 1430.56 341.924 1422.78 339.531L1422.76 339.532ZM546.183 333.461L542.273 329.271V236.186V143.102L546.463 139.187C550.521 135.393 551.067 135.275 564.333 135.316C578.619 135.366 580.312 135.922 584.487 141.983C586.588 145.027 586.786 151.862 586.786 220.302C586.786 276.825 587.195 295.686 588.408 296.906C589.581 298.081 599.552 298.525 624.804 298.525H659.586L663.863 302.346C667.473 305.574 668.237 307.343 668.768 313.751C669.614 323.964 668.197 330.554 664.322 334.429L661.099 337.651H605.6H550.098L546.183 333.461ZM685.99 108.385C685.48 107.565 685.786 102.336 686.704 96.765C687.601 91.1939 688.049 86.3439 687.692 85.9884C687.335 85.6316 685.082 86.0388 682.686 86.8628C677.093 88.8117 668.298 87.6331 664.734 84.4567C660.595 80.77 658.281 74.1804 658.281 66.0796C658.281 45.2424 669.965 31.0043 688.646 29.0756C696.217 28.2944 708.576 30.6028 710.686 33.1923C711.512 34.2059 710.135 45.2489 706.791 64.4418C699.307 107.452 699.092 108.287 695.6 108.309C693.994 108.309 691.378 108.676 689.793 109.101C688.207 109.524 686.499 109.203 685.99 108.385ZM687.376 74.1496C690.334 71.6058 691.44 68.7201 693.479 58.2962C697.119 39.6654 697.288 40.3688 689.349 41.1316C681.279 41.9073 678.903 43.6878 675.405 51.5759C667.911 68.4876 676.068 83.876 687.376 74.1496ZM1372.79 101.207C1370.65 99.6342 1370.72 98.8217 1373.8 89.1204C1377.92 76.1692 1379.28 73.6107 1382.59 72.5591C1387.81 70.9024 1396.44 77.948 1392.32 80.4976C1391.7 80.8801 1388.24 86.0783 1384.63 92.045C1381.02 98.012 1377.4 102.893 1376.58 102.893C1375.75 102.893 1374.05 102.135 1372.79 101.207ZM546.805 85.2928C541.121 81.6499 538.862 75.7017 539.152 65.117C539.458 53.4173 542.548 45.4128 549.395 38.4258C558.027 29.6204 570.828 26.6689 584.956 30.2268C588.316 31.0728 591.405 32.6563 591.823 33.745C592.231 34.8336 590.982 45.2216 589.029 56.829C587.076 68.4371 585.318 79.7557 585.119 81.982C584.813 85.7142 584.313 86.0619 579.016 86.4448C574.999 86.7354 573.051 86.2811 572.536 84.9417C571.919 83.339 570.986 83.4363 566.867 85.5377C560.428 88.8216 552.153 88.7205 546.805 85.2928ZM568.514 74.2239C571.399 71.6976 572.429 68.7116 574.662 56.4265C576.773 44.7933 576.987 41.4375 575.656 40.5935C573.138 38.9933 569.702 39.2568 564.451 41.4525C555.003 45.3999 549.099 67.8985 555.763 74.5611C559.311 78.1102 564.231 77.9795 568.514 74.2239ZM598.421 86.0709C590.728 83.3284 590.065 82.182 593.165 77.0138C594.638 74.5519 596.387 72.6741 597.049 72.8408C597.712 73.009 601.092 74.2019 604.569 75.4951C612.283 78.3674 618.233 76.9444 618.932 72.0611C619.391 68.92 615.888 63.7674 613.308 63.7674C609.79 63.7674 600.531 57.9858 599.134 54.9144C597.136 50.5224 597.146 43.2592 599.134 38.8381C603.988 28.1807 625.768 25.6191 636.082 34.4929L639.584 37.5048L636.072 41.2965L632.559 45.0882L626.772 42.2853C620.063 39.0365 619.105 38.94 614.475 41.0475C607.919 44.0368 610.942 49.4796 621.501 53.684C624.656 54.9414 628.822 57.8485 630.749 60.1447C633.752 63.7117 634.175 65.2679 633.64 70.8339C632.579 81.8671 624.254 88.106 610.749 87.9936C606.828 87.9435 601.27 87.0957 598.395 86.0709H598.421ZM723.447 86.764C719.18 84.9406 716.177 79.6666 715.993 73.685C715.738 66.0932 721.749 32.2314 723.534 31.0703C725.802 29.5914 734.882 29.8337 735.851 31.3968C736.31 32.145 735.061 41.6737 733.073 52.572L729.453 72.386L732.502 74.8534C736.045 77.7263 739.787 77.0335 744.314 72.6644C746.751 70.3098 748.077 65.9544 750.728 51.553C752.564 41.5737 754.348 32.6495 754.69 31.7218C755.368 29.9004 766.941 29.3141 768.006 31.0474C768.516 31.8465 762.847 68.9199 759.987 83.6655C759.477 86.2207 758.529 86.7012 753.905 86.7012C749.586 86.7012 748.261 86.1362 747.715 84.0664C747.042 81.4805 746.956 81.4842 743.208 84.255C738.956 87.4013 728.148 88.7723 723.447 86.7616V86.764ZM781.079 85.7761C773.962 82.0516 770.989 75.7706 770.989 64.4304C770.989 50.8239 775.837 41.1697 786.075 34.3688C792.728 29.9534 794.498 29.4068 802.237 29.3859C810.359 29.3859 811.184 29.6512 814.865 33.7695C819.709 39.1904 820.076 45.8769 815.89 52.6487C812.316 58.4288 804.475 62.1249 793.299 63.293C786.646 63.9881 785.08 64.6088 785.08 66.5475C785.08 70.7667 786.656 73.2617 790.628 75.3147C794.697 77.4176 799.132 76.9459 805.514 73.7324C809.583 71.6855 811.23 72.819 812.698 78.6679C813.443 81.6343 812.903 82.4128 808.426 84.5694C800.86 88.2295 786.942 88.844 781.079 85.7761ZM801.268 50.3781C805.566 47.3263 806.509 41.3918 802.874 40.2384C799.086 39.0358 794.115 41.3469 790.021 46.2149C784.586 52.6734 785.183 54.7548 792.163 53.666C795.314 53.1764 799.412 51.6949 801.268 50.3781ZM848.061 86.5722C837.548 84.0981 837.68 84.3883 840.561 70.3547C841.958 63.5431 844.624 48.8017 846.49 37.5955C851.639 6.65609 850.34 9.80043 857.951 9.80043C861.556 9.80043 864.763 10.2542 865.074 10.812C865.379 11.3685 864.87 15.4667 863.891 19.9189C861.138 32.662 861.193 32.9165 866.139 30.4473C871.349 27.8493 880.578 28.7001 885.314 32.2149C887.349 33.7244 889.663 37.6526 891.004 41.8697C895.042 54.5735 890.178 72.3434 880.297 81.0235C872.782 87.6203 861.077 89.6353 848.061 86.5722ZM870.488 72.8588C875.566 68.0706 878.136 61.0332 878.151 51.9008C878.151 41.0524 868.847 36.2423 861.597 43.3524C858.456 46.4318 853.384 74.736 855.703 76.2267C859.491 78.659 865.885 77.2033 870.488 72.8588ZM903.785 86.413C901.929 85.4481 899.32 82.4208 897.979 79.6861C895.613 74.8535 895.623 74.2655 898.437 58.7845C900.018 50.0235 901.925 39.9714 902.669 36.4467L904.025 30.0374H909.903C913.136 30.0374 916.139 30.6178 916.578 31.3266C917.036 32.0359 916.118 39.844 914.635 48.679C911.102 69.4001 911.096 74.0386 914.635 75.9238C918.045 77.7509 923.434 75.3671 926.866 70.513C928.242 68.5667 930.551 59.7229 932.331 49.6008C934.028 39.954 936.047 31.6155 936.817 31.0703C938.653 29.7668 947.998 29.7511 948.789 31.0703C949.145 31.6271 947.942 40.2786 946.148 50.2965C944.353 60.3142 942.441 72.4565 941.9 77.2799L940.911 86.0496L935.074 86.4677C930.164 86.8196 929.124 86.4678 928.528 84.1701C927.819 81.4624 927.803 81.4624 923.995 84.2771C919.33 87.7297 908.527 88.8824 903.816 86.4317L903.785 86.413ZM961.478 85.3622C954.539 81.5785 951.776 75.8384 951.72 65.117C951.668 53.2414 954.957 45.2439 963.023 37.6959C982.916 19.0861 1010.26 32.3591 996.208 53.8048C993.199 58.3957 983.529 62.5371 973.745 63.4245C966.536 64.0788 965.837 64.424 965.837 67.328C965.837 71.1276 969.89 75.5219 974.453 76.6668C976.462 77.1716 980.219 76.3964 984.135 74.6607C987.658 73.1038 990.62 71.9892 990.727 72.1835C991.782 74.1172 994.163 80.3123 994.163 81.1206C994.163 83.4382 983.503 87.0862 975.28 87.5805C968.315 87.9985 965.475 87.5303 961.478 85.3622ZM982.024 50.3561C983.88 49.0521 985.588 46.3971 985.817 44.4554C986.378 39.7875 980.923 38.1266 975.88 41.4304C971.975 43.9888 966.969 51.5352 968.035 53.2578C969.09 54.9604 978.149 53.0791 982.024 50.3561ZM1064.57 85.4087C1059 81.9056 1056.21 75.4466 1056.21 66.0486C1056.21 51.0419 1062.11 39.7746 1073.46 33.1033C1078.98 29.8575 1081.25 29.363 1090.61 29.363C1099.44 29.363 1110.17 31.6032 1110.17 33.4445C1110.17 33.6536 1108.7 42.8395 1106.9 53.8563C1105.1 64.8729 1103.24 76.7705 1102.77 80.2952L1101.92 86.7036H1095.93C1091.31 86.7036 1089.94 86.2036 1089.94 84.5245C1089.94 82.547 1089.64 82.557 1086.45 84.6363C1080.75 88.3675 1069.87 88.7513 1064.57 85.4087ZM1086.17 74.1341C1088.89 71.6182 1090.09 68.1407 1092.34 56.2771C1094.45 45.1636 1094.75 41.2782 1093.55 40.458C1091.03 38.7361 1081.91 40.3609 1078.85 43.0781C1071.81 49.3425 1068.48 67.5788 1073.15 74.2606C1075.92 78.2131 1081.83 78.1559 1086.17 74.1341ZM1143.92 85.6896C1129.59 78.4996 1129.29 49.7414 1143.41 36.499C1147.99 32.2028 1157.14 28.6886 1163.76 28.6886C1172.82 28.6886 1183.17 36.308 1181.18 41.5072C1180.72 42.6325 1178.9 44.2327 1177.08 45.0637C1174.31 46.3253 1173.16 46.1008 1170.11 43.7027C1163.18 38.2453 1153.63 41.5057 1150 50.5708C1146.95 58.2086 1147.28 69.8478 1150.64 73.2123C1153.88 76.4519 1161.24 76.7758 1166.76 73.9218C1171.35 71.5511 1173.54 73.2456 1173.98 79.5024C1174.23 82.9653 1173.62 83.5498 1167.5 85.6324C1158.75 88.6207 1149.8 88.6429 1143.92 85.6896ZM1187.55 85.465C1178.06 79.674 1176.36 61.5516 1183.91 46.4648C1188.51 37.2702 1197.32 30.6933 1207 29.2324C1213.88 28.1935 1229.71 30.3324 1231.99 32.606C1232.95 33.5704 1232.29 39.7732 1229.84 52.5973C1227.9 62.8233 1225.91 74.6809 1225.41 78.948L1224.52 86.7061H1218.61C1213.55 86.7061 1212.69 86.3027 1212.69 83.9546C1212.69 81.2347 1212.69 81.2332 1209.9 83.8076C1204.76 88.5978 1194 89.3978 1187.55 85.4683V85.465ZM1208.24 74.6223C1211.25 72.782 1212.77 70.659 1213.29 67.5444C1213.7 65.0972 1214.85 58.076 1215.86 51.9417L1217.7 40.7871L1214.59 40.0073C1212.88 39.5789 1209.42 39.9107 1206.89 40.7446C1198.15 43.6302 1193.81 51.6407 1193.81 64.877C1193.81 76.6635 1199.07 80.2148 1208.24 74.6223ZM1340.07 85.5834C1336.4 83.864 1333.81 81.4085 1332.31 78.2401C1329.65 72.6386 1329.31 59.1237 1331.64 51.366C1333.72 44.4142 1342.1 35.0218 1349.37 31.5022C1364.79 24.0408 1380.99 32.3955 1377.34 45.9153C1374.43 56.685 1366.8 61.9875 1352.25 63.3461C1344.84 64.0385 1343.54 64.5467 1343.54 66.7516C1343.54 70.8687 1345.83 74.0654 1350.01 75.798C1353.79 77.3655 1356.99 76.7575 1366.67 72.6285C1368.39 71.898 1369.27 72.8068 1370.52 76.5843C1371.4 79.2825 1371.92 81.6751 1371.66 81.902C1368.71 84.4837 1360.27 87.1694 1353.72 87.614C1347.62 88.027 1344.18 87.5166 1340.07 85.5834ZM1360.07 50.5071C1364.46 47.9468 1365.98 44.1697 1363.72 41.4435C1360.01 36.9781 1351.01 41.0096 1346.89 48.9803C1345.78 51.1043 1344.89 53.2291 1344.89 53.702C1344.89 55.1624 1356.14 52.7936 1360.07 50.5071ZM453.241 84.6135C453.241 83.4625 455.917 71.4716 459.185 57.9672C462.458 44.4622 465.864 29.7698 466.756 25.3174C469.188 13.2179 469.795 12.5005 477.605 12.5005C485.768 12.5005 485.248 11.4359 490.28 38.4724C492.32 49.4174 494.17 58.373 494.394 58.373C494.853 58.373 503.643 43.2456 513.589 25.3174L520.325 13.1749L527.441 12.7618C531.357 12.5323 535.018 12.8384 535.569 13.4362C536.125 14.0353 534.671 30.6149 532.341 50.2793L528.109 86.0325L522.19 86.4554C518.937 86.69 515.716 86.3238 515.037 85.6406C514.283 84.8875 514.579 78.3688 515.843 69.0263C519.514 41.4616 519.636 39.9892 518.096 42.184C517.311 43.2967 512.254 51.7966 506.855 61.0722C497.326 77.4338 496.887 77.949 492.09 78.3503C485.788 78.8771 485.452 78.2086 481.485 57.3622C479.757 48.272 477.998 40.8344 477.58 40.8344C477.172 40.8344 474.755 50.397 472.227 62.0846C469.703 73.7716 467.368 84.0924 467.042 85.0201C466.685 86.0578 463.907 86.7069 459.843 86.7069C454.78 86.7069 453.241 86.2212 453.241 84.6135ZM999.563 83.6696C999.563 82.0002 1000.83 74.2594 1002.38 66.4683C1003.93 58.6765 1005.9 47.444 1006.78 41.508L1008.36 30.7143L1013.51 30.2913C1017.71 29.9445 1018.78 30.358 1019.35 32.5456C1020.04 35.1625 1020.2 35.1485 1026.2 31.9578C1036.7 26.3725 1046.58 28.0663 1050.41 36.1079C1052.59 40.6619 1052.54 41.8208 1049.54 60.7611C1045.35 87.153 1045.54 86.7069 1038.12 86.7069C1034.81 86.7069 1031.8 86.2379 1031.45 85.6667C1031.1 85.0947 1031.99 78.8713 1033.45 71.8374C1034.9 64.8034 1036.21 55.1024 1036.37 50.2793L1036.68 41.5096L1032.2 41.081C1026.71 40.5543 1022.06 43.4144 1020.13 48.4896C1019.34 50.588 1017.65 59.2863 1016.37 67.8195C1015.09 76.3532 1013.44 84.095 1012.72 85.0225C1011.99 85.95 1008.73 86.7085 1005.49 86.7085C1000.26 86.7085 999.583 86.3617 999.583 83.6729L999.563 83.6696ZM1235.03 85.4846C1234.62 84.8129 1235.81 76.4653 1237.7 66.9336C1239.58 57.4015 1241.49 45.657 1241.95 40.8336C1242.86 31.1757 1243.69 30.0912 1250.12 30.0611C1254 30.0611 1254.51 30.4684 1254.55 33.7499C1254.55 36.9114 1254.86 37.1516 1256.24 35.3747C1261.23 29.0378 1270.27 26.7862 1275.47 30.5861C1277.98 32.4209 1277.99 32.6437 1275.67 37.4804C1273.61 41.8157 1272.81 42.3856 1269.63 41.7782C1264.72 40.8395 1257.52 44.0157 1255.88 47.8462C1255.14 49.5547 1253.29 58.5016 1251.75 67.7289C1250.22 76.956 1248.65 85.0007 1248.28 85.6055C1247.35 87.1079 1235.96 87.0041 1235.02 85.4838L1235.03 85.4846ZM1272.08 85.6936C1272.08 85.1368 1274.12 72.5395 1276.58 57.6986L1281.03 30.7143L1285.4 30.2864C1289.89 29.8428 1294.17 32.119 1292.85 34.248C1292.45 34.9098 1295.03 33.8803 1298.61 31.961C1307.25 27.314 1316.87 27.8823 1321.54 33.3155C1325.48 37.9019 1325.57 43.9796 1321.95 64.4777C1318.09 86.3766 1317.91 86.7069 1310.52 86.7069C1303.15 86.7069 1303.21 87.0996 1307.18 65.0852C1308.7 56.6436 1309.76 47.8856 1309.54 45.623C1309.18 41.9602 1308.6 41.4646 1304.25 41.1014C1296.9 40.4866 1293.29 45.5713 1290.41 60.5832C1289.15 67.1596 1287.49 75.728 1286.73 79.6232L1285.34 86.7069H1278.69C1275.03 86.7069 1272.05 86.2533 1272.07 85.6953L1272.08 85.6936ZM566.536 22.6018C565.118 20.8914 566.128 18.9939 572.781 10.9043C577.145 5.59344 581.382 1.02806 582.197 0.758849C583.013 0.488634 585.063 1.38924 586.756 2.75838C591.212 6.3675 589.504 9.82897 579.327 17.8288C569.824 25.2982 569.024 25.5966 566.536 22.6018Z" fill="#F9F9F9"/>
</svg>
