<svg width="785" height="211" viewBox="0 0 785 211" fill="none" xmlns="http://www.w3.org/2000/svg">
<path fill-rule="evenodd" clip-rule="evenodd" d="M145.87 41.818H155.096C154.402 47.5493 151.771 51.9076 147.206 54.9191C142.639 57.9174 136.37 59.4228 128.384 59.4228C118.776 59.4228 111.225 56.8075 105.759 51.5653C100.294 46.3348 97.5557 39.1227 97.5557 29.9315C97.5557 20.8578 100.39 13.6726 106.046 8.38981C111.701 3.09395 119.415 0.452637 129.174 0.452637C136.82 0.452637 142.83 1.8662 147.232 4.69319C151.621 7.51899 154.033 11.4943 154.457 16.6319H145.311C144.915 13.6335 143.225 11.2561 140.255 9.4999C137.297 7.74384 133.439 6.87159 128.697 6.87159C121.651 6.87159 116.145 8.89213 112.179 12.9471C108.213 17.002 106.222 22.6532 106.222 29.9315C106.222 37.3928 108.241 43.1255 112.274 47.1269C116.309 51.1426 122.087 53.1501 129.624 53.1501C134.353 53.1501 138.155 52.1456 141.018 50.1515C143.88 48.1574 145.501 45.3708 145.87 41.818ZM248.128 29.9315C248.128 23.2875 245.947 17.8465 241.599 13.6072C237.252 9.381 231.664 7.26796 224.848 7.26796C217.871 7.26796 212.188 9.36803 207.786 13.5681C203.397 17.78 201.203 23.2352 201.203 29.9315C201.203 36.6134 203.384 42.0413 207.758 46.2153C212.12 50.4023 217.79 52.4893 224.767 52.4893C231.691 52.4893 237.306 50.4023 241.64 46.2153C245.961 42.0413 248.128 36.6134 248.128 29.9315ZM224.685 59.3438C219.848 59.3438 215.554 58.6969 211.833 57.4155C208.099 56.1209 204.774 54.1394 201.844 51.485C198.791 48.6462 196.447 45.3971 194.824 41.7253C193.203 38.0404 192.385 34.1172 192.385 29.9315C192.385 25.7053 193.203 21.7292 194.824 18.0182C196.447 14.3073 198.791 11.0718 201.844 8.31145C204.801 5.62955 208.14 3.64876 211.874 2.36853C215.595 1.08709 219.875 0.452637 224.685 0.452637C229.51 0.452637 233.789 1.10015 237.538 2.38159C241.299 3.67613 244.638 5.6571 247.568 8.31145C250.622 11.0718 252.979 14.3073 254.615 18.0182C256.25 21.7292 257.067 25.7053 257.067 29.9315C257.067 34.1446 256.25 38.0939 254.628 41.7775C253.007 45.4624 250.648 48.6985 247.568 51.485C244.611 54.1394 241.259 56.1209 237.525 57.4155C233.789 58.6969 229.51 59.3438 224.685 59.3438ZM300.353 58.459V1.39165H308.613V51.4197H342.236V58.459H300.353ZM382.291 58.459V1.39165H425.971V8.16648H390.318V24.8727H423.449V31.6881H390.318V51.34H427.049V58.459H382.291ZM524.918 53.5458C520.679 55.4733 516.304 56.9396 511.766 57.9307C507.228 58.9206 502.635 59.4228 498 59.4228C487.629 59.4228 479.465 56.8219 473.549 51.6045C467.62 46.4014 464.665 39.2826 464.665 30.2482C464.665 20.9105 467.73 13.6203 473.863 8.38981C479.996 3.14758 488.569 0.532302 499.553 0.532302C506.696 0.532302 512.434 1.94576 516.795 4.77155C521.142 7.59855 523.609 11.4945 524.195 16.4739H515.609C514.831 13.5015 512.979 11.2168 510.021 9.60569C507.063 7.99339 503.261 7.18829 498.6 7.18829C490.832 7.18829 484.686 9.26224 480.174 13.3957C475.663 17.5434 473.413 23.1556 473.413 30.2482C473.413 37.2871 475.664 42.8355 480.147 46.863C484.63 50.9049 490.804 52.9248 498.681 52.9248C502.253 52.9248 505.578 52.6343 508.645 52.0524C511.725 51.4719 514.464 50.6276 516.89 49.5175V35.1607H498.845V28.6634H524.918V53.5458ZM570.629 58.459V1.39165H578.929V58.459H570.629ZM678.201 29.9315C678.201 23.2875 676.02 17.8465 671.673 13.6072C667.326 9.381 661.737 7.26796 654.923 7.26796C647.946 7.26796 642.263 9.36803 637.861 13.5681C633.472 17.78 631.278 23.2352 631.278 29.9315C631.278 36.6134 633.459 42.0413 637.833 46.2153C642.195 50.4023 647.863 52.4893 654.842 52.4893C661.765 52.4893 667.381 50.4023 671.715 46.2153C676.035 42.0413 678.201 36.6134 678.201 29.9315ZM654.76 59.3438C649.923 59.3438 645.629 58.6969 641.908 57.4155C638.173 56.1209 634.848 54.1394 631.917 51.485C628.865 48.6462 626.522 45.3971 624.899 41.7253C623.278 38.0404 622.46 34.1172 622.46 29.9315C622.46 25.7053 623.278 21.7292 624.899 18.0182C626.522 14.3073 628.865 11.0718 631.917 8.31145C634.876 5.62955 638.215 3.64876 641.949 2.36853C645.67 1.08709 649.95 0.452637 654.76 0.452637C659.586 0.452637 663.865 1.10015 667.613 2.38159C671.374 3.67613 674.713 5.6571 677.643 8.31145C680.696 11.0718 683.054 14.3073 684.69 18.0182C686.325 21.7292 687.142 25.7053 687.142 29.9315C687.142 34.1446 686.325 38.0939 684.703 41.7775C683.08 45.4624 680.723 48.6985 677.643 51.485C674.686 54.1394 671.334 56.1209 667.598 57.4155C663.865 58.6969 659.586 59.3438 654.76 59.3438Z" fill="white"/>
<path fill-rule="evenodd" clip-rule="evenodd" d="M49.7897 91.6254H76.5438L112.368 182.716C114.294 187.566 116.015 190.569 117.533 191.694C119.049 192.821 121.821 193.369 125.846 193.311V209.624H69.454V193.311L72.8675 193.226C75.9895 193.226 78.2054 192.793 79.4606 191.984C80.7143 191.176 81.3274 190.165 81.3274 188.981C81.3274 187.97 80.8019 185.891 79.6933 182.716L76.1933 171.977H39.8716L35.4373 183.9C34.5326 186.44 34.0656 188.116 34.0656 188.895C34.0656 189.791 34.3873 190.627 35.058 191.35C35.6999 192.1 36.7784 192.619 38.2662 192.966C39.2297 193.197 41.9126 193.312 46.2897 193.312V209.624H0.136719V193.312C3.08352 193.312 5.27184 193.052 6.64195 192.533C7.98465 192.043 9.12216 191.261 9.99675 190.252C10.9016 189.241 11.865 187.363 12.9435 184.592L49.7897 91.6254ZM46.1144 155.143H69.9495L58.3385 122.662L46.1144 155.143ZM170.803 85.4467V184.418C170.803 187.74 170.949 189.731 171.241 190.338C171.62 191.463 172.525 192.272 173.896 192.792C174.742 193.139 177.047 193.311 180.81 193.311H183.787V209.624H130.894V193.311H134.133C137.575 193.311 139.763 193.08 140.726 192.676C141.689 192.243 142.417 191.579 142.855 190.625C143.321 189.702 143.556 187.623 143.556 184.418V108.977H130.894V92.5487C141.105 91.8858 151.635 89.5173 162.518 85.4467H170.803ZM230.464 96.1865V125.202H257.975V143.219H230.464V172.668C230.464 179.309 230.814 183.581 231.544 185.488C232.243 187.363 233.557 188.866 235.511 189.991C238.078 191.521 240.996 192.272 244.322 192.272C250.186 192.272 256.02 190.395 261.825 186.612V204.715C256.866 207.026 252.373 208.642 248.378 209.595C244.351 210.52 240.004 210.981 235.335 210.981C230.026 210.981 225.359 210.317 221.273 208.988C217.189 207.661 213.717 205.783 210.86 203.33C207.97 200.876 205.986 198.249 204.879 195.505C203.741 192.733 203.187 188.72 203.187 183.493V143.219H190.378V126.993C194.929 125.521 198.84 123.413 202.078 120.671C205.345 117.956 207.942 114.666 209.896 110.824C211.88 106.985 213.222 102.105 213.98 96.1865H230.464ZM324.229 158.463V152.197C324.229 148.475 323.907 145.903 323.296 144.489C322.654 143.075 321.516 141.92 319.882 140.996C318.218 140.043 316.175 139.581 313.725 139.581C311.83 139.581 310.138 139.897 308.59 140.504C307.045 141.141 305.82 141.921 304.915 142.873C304.012 143.855 302.961 145.701 301.764 148.475C300.219 151.967 298.381 154.479 296.251 156.009C294.093 157.51 291.583 158.289 288.666 158.289C285.02 158.289 282.042 157.163 279.709 154.883C277.375 152.631 276.208 149.859 276.208 146.51C276.208 142.756 277.404 139.379 279.797 136.463C282.976 132.565 287.731 129.389 294.062 126.906C300.393 124.423 307.512 123.182 315.417 123.182C323.353 123.182 330.093 124.452 335.636 126.993C341.208 129.534 345.058 132.565 347.276 136.087C349.464 139.61 350.544 144.979 350.544 152.197V182.485C350.544 186.18 350.748 188.575 351.156 189.616C351.563 190.654 352.411 191.578 353.723 192.358C355.036 193.167 356.495 193.543 358.071 193.543C359.675 193.543 361.804 193.109 364.488 192.185V208.699C359.646 210.23 355.007 210.981 350.544 210.981C345.321 210.981 340.827 210.143 337.152 208.441C333.447 206.737 330.325 204.196 327.816 200.817C322.128 204.485 316.964 207.112 312.297 208.642C307.658 210.2 303.165 210.981 298.848 210.981C290.708 210.981 284.115 208.7 279.096 204.167C274.078 199.634 271.57 194.033 271.57 187.363C271.57 183.61 272.444 180.146 274.195 176.97C275.916 173.822 278.514 171.052 281.955 168.683C285.427 166.317 290.737 164.209 297.943 162.39C305.149 160.542 313.931 159.243 324.229 158.463ZM324.229 172.495C316.76 173.562 311.508 174.66 308.416 175.758C305.353 176.855 303.136 178.24 301.852 179.886C300.539 181.561 299.868 183.263 299.868 184.996C299.868 187.276 300.713 189.153 302.436 190.684C304.157 192.185 306.462 192.965 309.35 192.965C311.246 192.965 313.434 192.475 315.885 191.521C318.364 190.569 321.164 189.153 324.229 187.306V172.495ZM412.945 123.182V134.414C417.905 130.659 422.924 127.831 428.058 125.982C433.192 124.106 438.414 123.182 443.694 123.182C447.079 123.182 450.289 123.673 453.411 124.653C456.503 125.635 459.099 126.935 461.17 128.494C463.271 130.082 465.167 132.218 466.859 134.933C472.402 130.775 477.682 127.772 482.759 125.925C487.835 124.106 492.998 123.182 498.25 123.182C502.801 123.182 506.914 123.99 510.62 125.635C514.325 127.253 517.33 129.476 519.635 132.277C521.938 135.048 523.456 138.08 524.127 141.371C524.594 143.393 524.828 146.367 524.828 150.234V185.257C524.828 188.144 525.032 189.991 525.47 190.857C525.879 191.694 526.607 192.329 527.628 192.792C528.386 193.139 530.459 193.311 533.871 193.311H537.635V209.624H487.631V193.311C491.335 193.311 493.67 193.109 494.632 192.762C495.625 192.387 496.324 191.782 496.791 190.972C497.229 190.164 497.463 188.374 497.463 185.603V154.883C497.463 151.332 497.229 148.993 496.733 147.837C496.267 146.684 495.303 145.701 493.932 144.864C492.532 144.056 490.87 143.652 488.914 143.652C486.698 143.652 484.306 144.143 481.738 145.124C479.17 146.106 475.378 148.272 470.361 151.592V184.679C470.361 187.941 470.594 189.991 471.06 190.857C471.497 191.694 472.314 192.329 473.452 192.792C474.122 193.08 476.37 193.254 480.191 193.311V209.624H433.28V193.311C437.16 193.254 439.524 193.051 440.369 192.705C441.216 192.358 441.886 191.752 442.324 190.857C442.79 189.932 443.024 187.884 443.024 184.679V155.662C443.024 151.216 442.616 148.243 441.828 146.77C440.574 144.576 438.356 143.478 435.147 143.478C433.571 143.478 431.88 143.68 430.129 144.056C428.35 144.46 426.599 145.096 424.908 145.932C424.003 146.395 421.669 147.838 417.905 150.322L415.922 151.592V184.679C415.922 187.825 416.097 189.79 416.446 190.598C416.796 191.376 417.438 192.042 418.459 192.532C419.452 193.051 421.172 193.311 423.624 193.311H425.929V209.624H376.013V193.311H379.338C382.867 193.311 385.085 193.109 385.961 192.762C386.864 192.387 387.536 191.724 387.973 190.799C388.439 189.875 388.673 187.825 388.673 184.679V146.597H376.013V130.284C386.427 129.332 396.084 126.964 404.894 123.182H412.945ZM575.415 85.4467C579.732 85.4467 583.437 86.9481 586.472 89.9792C589.535 92.9815 591.051 96.6481 591.051 100.921C591.051 105.281 589.535 108.949 586.472 111.98C583.437 114.982 579.732 116.483 575.415 116.483C571.097 116.483 567.392 114.982 564.357 111.98C561.295 108.949 559.778 105.31 559.778 101.009C559.778 96.7931 561.353 93.1265 564.475 90.0654C567.596 86.9768 571.242 85.4467 575.415 85.4467ZM589.273 123.182V185.689C589.273 188.663 589.417 190.51 589.769 191.175C590.118 191.868 590.731 192.387 591.606 192.762C592.482 193.109 594.465 193.311 597.557 193.311H602.167V209.624H549.334V193.311H553.885C556.831 193.311 558.728 193.139 559.574 192.821C560.391 192.532 561.003 192.011 561.411 191.261C561.791 190.54 561.995 189.068 561.995 186.873V146.51H549.334V130.63C553.855 130.4 558.174 129.909 562.287 129.187C566.43 128.436 570.105 127.571 573.372 126.56C575.473 125.896 578.069 124.769 581.132 123.182H589.273ZM650.013 123.182V135.453C654.593 130.717 658.531 127.483 661.857 125.752C665.183 124.048 668.391 123.182 671.484 123.182C674.256 123.182 676.765 123.818 678.953 125.088C681.14 126.357 682.891 128.177 684.175 130.544C685.459 132.912 686.1 135.453 686.1 138.138C686.1 141.689 684.904 144.923 682.542 147.78C680.178 150.667 676.852 152.111 672.592 152.111C671.454 152.111 670.434 152.024 669.558 151.852C668.684 151.678 666.817 151.13 663.958 150.148C662.47 149.715 661.245 149.484 660.281 149.484C658.793 149.484 656.343 150.407 652.93 152.285V185.343C652.93 188.172 653.134 189.991 653.572 190.857C654.008 191.694 654.709 192.301 655.673 192.705C656.635 193.109 658.734 193.311 662.003 193.311H665.767V209.624H613.019V193.311H617.367C620.517 193.311 622.473 193.139 623.231 192.792C623.99 192.446 624.573 191.868 624.981 191.002C625.39 190.164 625.594 188.288 625.594 185.343V146.51H613.019V130.284C622.296 129.707 631.953 127.339 641.99 123.182H650.013ZM744.302 158.463V152.197C744.302 148.475 743.981 145.903 743.369 144.489C742.726 143.075 741.588 141.92 739.955 140.996C738.292 140.043 736.25 139.581 733.799 139.581C731.903 139.581 730.211 139.897 728.665 140.504C727.118 141.141 725.893 141.921 724.989 142.873C724.084 143.855 723.034 145.701 721.838 148.475C720.291 151.967 718.454 154.479 716.325 156.009C714.166 157.51 711.656 158.289 708.739 158.289C705.093 158.289 702.117 157.163 699.782 154.883C697.449 152.631 696.281 149.859 696.281 146.51C696.281 142.756 697.477 139.379 699.87 136.463C703.051 132.565 707.805 129.389 714.136 126.906C720.466 124.423 727.585 123.182 735.492 123.182C743.426 123.182 750.166 124.452 755.708 126.993C761.281 129.534 765.132 132.565 767.349 136.087C769.537 139.61 770.617 144.979 770.617 152.197V182.485C770.617 186.18 770.821 188.575 771.229 189.616C771.638 190.654 772.484 191.578 773.797 192.358C775.109 193.167 776.569 193.543 778.143 193.543C779.748 193.543 781.878 193.109 784.562 192.185V208.699C779.719 210.23 775.079 210.981 770.617 210.981C765.394 210.981 760.901 210.143 757.226 208.441C753.521 206.737 750.4 204.196 747.89 200.817C742.201 204.485 737.037 207.112 732.37 208.642C727.731 210.2 723.238 210.981 718.921 210.981C710.781 210.981 704.188 208.7 699.169 204.167C694.151 199.634 691.644 194.033 691.644 187.363C691.644 183.61 692.518 180.146 694.269 176.97C695.989 173.822 698.587 171.052 702.028 168.683C705.501 166.317 710.81 164.209 718.016 162.39C725.222 160.542 734.004 159.243 744.302 158.463ZM744.302 172.495C736.833 173.562 731.583 174.66 728.49 175.758C725.426 176.855 723.209 178.24 721.925 179.886C720.613 181.561 719.942 183.263 719.942 184.996C719.942 187.276 720.788 189.153 722.508 190.684C724.23 192.185 726.535 192.965 729.423 192.965C731.32 192.965 733.507 192.475 735.958 191.521C738.439 190.569 741.238 189.153 744.302 187.306V172.495Z" fill="white"/>
</svg>
