<svg width="2671" height="341" viewBox="0 0 2671 341" fill="none" xmlns="http://www.w3.org/2000/svg">
<path d="M0 170.5V0H29.5117H59.0225V170.5V341H29.5117H0V170.5ZM74.2002 172.196C74.2002 54.5667 74.3673 47.503 77.1513 47.5141C82.9346 47.5367 386.835 106.865 388.199 108.237C388.963 109.006 389.391 139.71 389.148 176.469L388.706 243.304L232.718 270.014C146.924 284.705 76.1605 296.762 75.4649 296.807C74.7691 296.853 74.2002 240.778 74.2002 172.196ZM528.484 288.323C497.848 278.551 457.135 238.313 423.481 184.544C417.804 175.474 413.159 167.656 413.159 167.173C413.159 166.689 421.229 172.322 431.094 179.69C453.011 196.062 477.01 208.919 494.828 213.836C518.954 220.495 526.888 217.448 560.04 188.792C592.977 160.323 604.675 152.777 626.238 146.092C640.326 141.724 662.743 141.306 679.27 145.102C685.482 146.529 698.153 151.427 707.428 155.989L724.292 164.283L715.617 164.423C664.563 165.246 618.54 180.027 576.071 209.239C550.397 226.9 529.788 250.355 536.266 254.543C542.605 258.64 553.506 260.394 571.675 260.24C587.193 260.107 593.849 259.228 604.981 255.835C612.633 253.503 618.894 252.144 618.894 252.815C618.894 254.936 595.57 273.718 584.666 280.378C565.359 292.171 548.17 294.601 528.484 288.323ZM948.445 273.315C944.662 271.586 939.888 268.025 937.836 265.4C934.419 261.03 934.344 260.493 936.95 259.026C939.059 257.838 940.496 258.305 942.5 260.828C947.983 267.73 954.407 270.382 965.644 270.382C979.647 270.382 985.448 266.536 986.179 256.765C986.868 247.566 983.668 245.147 964.482 240.362C944.823 235.46 941.308 233.607 938.404 226.615C934.387 216.942 938.997 207.127 949.555 202.877C963.164 197.399 983.08 200.611 989.098 209.255C991.255 212.354 991.254 212.96 989.098 214.177C987.487 215.084 985.476 214.402 983.295 212.208C975.093 203.957 955.533 203.962 947.327 212.224C937.72 221.889 942.841 229.074 962.347 233.297C979.168 236.939 988.856 241.505 991.324 246.955C996.223 257.772 991.506 269.529 980.393 274.2C972.485 277.525 956.697 277.091 948.449 273.322L948.445 273.315ZM1247.06 274.231C1240.82 271.322 1235.22 265.336 1232.84 259.032C1231.85 256.4 1231.04 242.502 1231.04 228.071C1231.04 203.016 1231.19 201.886 1234.41 201.886C1237.65 201.886 1237.79 203.017 1237.79 229.09C1237.79 251.503 1238.28 257.045 1240.57 260.562C1248.77 273.157 1270.72 272.597 1277.39 259.622C1279.35 255.8 1279.95 248.527 1279.95 228.265C1279.95 202.736 1280.06 201.886 1283.43 201.886C1286.83 201.886 1286.9 202.538 1286.38 230.608C1285.8 261.866 1285.2 263.952 1274.43 272.041C1268.77 276.292 1254.02 277.472 1247.06 274.231ZM1334.62 273.315C1330.84 271.586 1326.06 268.025 1324.01 265.4C1320.59 261.03 1320.52 260.493 1323.13 259.026C1325.23 257.838 1326.67 258.305 1328.68 260.828C1334.16 267.73 1340.58 270.382 1351.82 270.382C1365.82 270.382 1371.62 266.536 1372.35 256.765C1373.04 247.566 1369.84 245.147 1350.66 240.362C1331 235.46 1327.48 233.607 1324.58 226.615C1320.56 216.942 1325.17 207.127 1335.73 202.877C1349.34 197.399 1369.26 200.611 1375.27 209.255C1377.43 212.354 1377.43 212.96 1375.27 214.177C1373.66 215.084 1371.65 214.402 1369.47 212.208C1361.27 203.957 1341.71 203.962 1333.5 212.224C1323.9 221.889 1329.02 229.074 1348.52 233.297C1365.34 236.939 1375.03 241.505 1377.5 246.955C1382.4 257.772 1377.68 269.529 1366.57 274.2C1358.66 277.525 1342.87 277.091 1334.62 273.322L1334.62 273.315ZM770.666 238.218V201.601L790.764 202.167C809.949 202.708 811.189 202.965 818.04 207.823C828.859 215.495 833.263 225.304 832.655 240.374C832.238 250.718 831.401 253.656 827.132 259.754C824.364 263.707 818.755 268.717 814.668 270.888C808.21 274.318 804.838 274.835 788.951 274.835H770.666V238.218ZM812.818 264.457C821.671 259.451 826.316 250.47 826.316 238.36C826.316 226.25 821.671 217.27 812.818 212.264C807.712 209.377 803.609 208.671 791.938 208.671H777.412V238.36V268.05H791.938C803.609 268.05 807.712 267.344 812.818 264.457ZM846.553 238.36V201.886H871.971C895.272 201.886 897.343 202.133 896.824 204.855C896.327 207.466 893.675 207.881 874.778 208.298L853.298 208.772V222.294V235.816H874.377C891.99 235.816 895.457 236.234 895.457 238.36C895.457 240.486 891.99 240.905 874.377 240.905H853.298V254.428V267.951L875.621 268.424C895.322 268.842 898.011 269.246 898.511 271.866C899.03 274.591 896.917 274.835 872.814 274.835H846.553V238.36ZM1013.22 238.36C1027 207.405 1030 201.886 1033.05 201.886C1036.05 201.886 1038.63 206.349 1048.95 229.454C1071.39 279.659 1069.6 274.835 1065.74 274.835C1063.27 274.835 1061.26 272.322 1058.24 265.454L1054.11 256.071L1032.77 256.547L1011.43 257.022L1007.83 265.927C1005.06 272.779 1003.39 274.832 1000.61 274.834C997.292 274.835 998.367 271.728 1013.22 238.36ZM1042.77 230.326C1037.67 218.91 1033.32 209.382 1033.09 209.154C1032.57 208.628 1015.18 248.105 1015.19 249.812C1015.19 250.512 1023.48 251.085 1033.61 251.085H1052.03L1042.77 230.326ZM1077.58 238.36C1077.58 218.299 1078.21 201.886 1078.97 201.886C1079.73 201.886 1091.11 215.317 1104.26 231.733L1128.17 261.58V231.733C1128.17 203.016 1128.3 201.886 1131.55 201.886C1134.82 201.886 1134.92 203.016 1134.92 238.485C1134.92 268.795 1134.52 274.99 1132.58 274.536C1131.3 274.234 1119.92 261.12 1107.29 245.394L1084.33 216.801V245.818C1084.33 273.705 1084.2 274.835 1080.96 274.835C1077.69 274.835 1077.58 273.704 1077.58 238.36ZM1178.77 238.36C1178.77 203.016 1178.87 201.886 1182.14 201.886C1185.4 201.886 1185.51 203.016 1185.51 234.913V267.941L1205.31 268.419C1222.59 268.837 1225.17 269.273 1225.66 271.866C1226.18 274.58 1224.19 274.835 1202.5 274.835H1178.77V238.36ZM1301.87 238.36C1301.87 203.016 1301.97 201.886 1305.24 201.886C1308.51 201.886 1308.61 203.016 1308.61 238.36C1308.61 273.704 1308.51 274.835 1305.24 274.835C1301.97 274.835 1301.87 273.704 1301.87 238.36ZM472.368 164.398C461.345 162.259 440.14 149.809 440.14 145.476C440.14 144.776 445.035 144.203 451.018 144.203C479.688 144.203 494.481 136.959 523.497 108.706C546.941 85.8797 554.704 79.8127 570.833 71.7129C590.976 61.5969 612.682 60.2266 632.734 67.8053C642.759 71.5941 665.256 85.5511 669.269 90.4707C671.401 93.0843 670.404 93.3108 656.622 93.3418C606.948 93.4533 563.574 110.44 524.458 145.1C506.58 160.94 488.696 167.566 472.368 164.398ZM1164.43 148.672C1154.54 144.004 1147.78 137.567 1142.81 128.109C1137.81 118.584 1137.82 100.221 1142.83 90.7633C1157.82 62.4916 1196.96 56.9898 1216.85 80.361L1222.8 87.355L1219.15 90.3319C1214.52 94.1003 1212.96 94.0801 1211.75 90.2364C1211.22 88.5467 1208.26 84.7016 1205.17 81.6924C1192 68.8553 1169.68 74.4173 1161.07 92.6816C1157.64 99.9427 1157.15 115.336 1160.05 124.191C1164.11 136.557 1180.18 145.907 1193.16 143.457C1197.6 142.618 1201.84 139.798 1207.6 133.854C1214.93 126.281 1216.09 125.655 1219.18 127.596C1223.57 130.352 1223.56 130.4 1217.55 137.727C1205.69 152.21 1182.18 157.052 1164.43 148.672ZM1525.25 148.673C1502.65 138.089 1492.87 111.792 1503.52 90.2885C1511.43 74.3255 1525.64 65.8649 1544.56 65.8649C1569.66 65.8649 1587.65 81.4988 1589.79 105.173C1592.81 138.766 1556.44 163.285 1525.25 148.673ZM1554.71 143.416C1570.56 135.168 1576.25 108.865 1566.82 87.4174C1558.23 67.8704 1532.21 67.8436 1522.09 87.3708C1516.71 97.7399 1517.06 120.151 1522.78 131.325C1529.44 144.333 1543.04 149.485 1554.71 143.416ZM1610.47 149.644C1604.57 146.402 1596.98 137.096 1596.98 133.091C1596.98 131.921 1599.26 130.165 1602.04 129.189C1606.13 127.756 1607.1 127.882 1607.1 129.845C1607.1 131.181 1609.23 134.675 1611.84 137.609C1615.67 141.926 1618.22 143.103 1625.2 143.778C1632.81 144.513 1634.34 144.095 1638.17 140.243C1640.56 137.841 1642.51 134.637 1642.51 133.123C1642.51 128.786 1634.34 121.757 1620.38 114.088C1603.58 104.861 1598.67 99.0288 1598.67 88.3173C1598.67 74.7909 1608.3 66.1138 1623.65 65.8113C1636.32 65.5614 1641.86 67.5732 1648.32 74.7654C1655.1 82.3157 1655.78 85.6174 1651.06 88.1588C1646.08 90.8381 1644.79 90.3438 1642.55 84.9083C1639.73 78.0681 1633.92 74.6463 1625.13 74.6463C1616.95 74.6463 1612.16 78.2979 1612.16 84.5352C1612.16 89.7466 1616.47 93.4958 1633.29 102.893C1650.82 112.686 1656.44 119.129 1656.3 129.24C1656.2 136.859 1652.88 142.599 1645.28 148.311C1638.57 153.351 1618.62 154.115 1610.47 149.644ZM1937.63 150.78C1932.18 148.594 1926.13 142.868 1923.12 137.046C1920.84 132.637 1920.95 132.316 1925.75 129.819C1930.67 127.261 1930.83 127.312 1933.32 132.162C1937.32 139.932 1943.88 144.203 1951.81 144.203C1960.98 144.203 1966.29 140.404 1966.29 133.852C1966.29 127.372 1961.13 122.16 1948.2 115.594C1929.47 106.083 1921.22 96.1998 1923.19 85.6402C1925.51 73.1969 1935.98 65.8247 1951.34 65.8247C1962.89 65.8247 1970.3 69.4741 1975.99 77.9584C1980.82 85.1794 1980.76 86.1492 1975.28 88.6597C1971.53 90.3786 1970.64 90.3015 1969.95 88.199C1969.5 86.8104 1966.67 83.1925 1963.66 80.1599C1959.31 75.7659 1956.82 74.6463 1951.42 74.6463C1942.33 74.6463 1939.36 76.0074 1937.45 81.0449C1935.11 87.248 1938.96 92.009 1952.36 99.4588C1969.17 108.806 1974.83 112.902 1978.32 118.224C1985.02 128.45 1980.03 143.608 1967.95 149.715C1961.44 153.003 1944.64 153.594 1937.63 150.78ZM2390.34 121.456L2363.43 90.2246L2362.97 120.607L2362.51 150.99H2358.34H2354.16V109.425V67.8605H2359.1C2363.37 67.8605 2367.48 71.7249 2389.03 96.0031L2414.02 124.145L2414.48 96.0031L2414.95 67.8605H2419.12H2423.3V110.274C2423.3 149.906 2423.1 152.687 2420.28 152.687C2418.46 152.687 2406.55 140.264 2390.34 121.456ZM2542.6 150.266C2520.34 142.272 2507.62 117.296 2515.1 96.2224C2522.02 76.7022 2538.57 65.5241 2560.09 65.831C2572.67 66.0105 2585.11 71.427 2592.93 80.1259C2601.12 89.2507 2603.74 96.2499 2603.74 109.038C2603.74 127.991 2592.64 143.721 2574.54 150.436C2567.26 153.135 2550.34 153.045 2542.6 150.266ZM2570.04 142.762C2573.4 140.968 2577.72 136.428 2580.13 132.16C2583.81 125.643 2584.34 122.646 2584.34 108.577C2584.34 95.3749 2583.72 91.3875 2580.88 86.5284C2573.3 73.5505 2557.37 68.9983 2545.46 76.4069C2527.24 87.7301 2527.74 129.755 2546.23 142.081C2553.23 146.745 2562.1 146.999 2570.04 142.762ZM2624.82 149.252C2617.84 145.705 2613.49 140.924 2611.52 134.634C2610.59 131.686 2611.28 130.684 2615.2 129.308C2619.68 127.739 2620.27 128.046 2623.18 133.495C2627.02 140.669 2633.38 144.203 2642.44 144.203C2650.35 144.203 2656.02 139.674 2656.02 133.352C2656.02 128.205 2648.68 121.848 2631.73 112.324C2617.45 104.295 2612.18 97.8009 2612.18 88.2187C2612.18 74.492 2623.31 65.8247 2640.95 65.8247C2651.87 65.8247 2659.35 69.0882 2664.04 75.8934C2669.71 84.1211 2669.88 86.4236 2665 88.6612C2661.14 90.4316 2660.32 90.2679 2658.71 87.4032C2657.69 85.5915 2654.83 81.9795 2652.35 79.3774C2644.13 70.7482 2625.66 74.2988 2625.66 84.5084C2625.66 88.9205 2633.11 95.2339 2647.19 102.767C2668.78 114.313 2675.29 125.514 2668.33 139.114C2661.96 151.563 2639.6 156.772 2624.82 149.252ZM775.163 149.859C774.545 149.237 774.039 130.532 774.039 108.294V67.8605H795.186C813.039 67.8605 817.367 68.3917 822.975 71.2704C839.222 79.6086 838.093 102.062 821.065 109.265L816.492 111.2L830.679 130.633C838.482 141.321 844.866 150.274 844.866 150.528C844.866 150.782 840.674 150.99 835.552 150.99H826.238L812.6 132.329C801.845 117.611 798.11 113.666 794.932 113.666C790.928 113.666 790.902 113.783 790.902 132.329V150.99H783.595C779.576 150.99 775.782 150.481 775.163 149.859ZM809.353 102.69C815.127 99.6867 817.861 92.6495 815.964 85.6757C814.027 78.5583 810.203 76.343 799.855 76.343H790.902V90.7633V105.184H797.732C801.488 105.184 806.717 104.062 809.353 102.69ZM851.611 109.425V67.8605H881.24H910.868L910.33 71.6774C909.809 75.3683 909.107 75.5109 889.133 75.9715L868.475 76.4479V89.1195V101.791H882.926C896.948 101.791 897.362 101.904 896.839 105.608C896.337 109.167 895.358 109.458 882.388 109.918L868.475 110.411V126.459V142.508H889.555H910.634V146.749V150.99H881.123H851.611V109.425ZM922.438 109.425V67.8605H950.38H978.323L977.784 71.6774C977.266 75.344 976.497 75.5139 958.273 75.9746L939.302 76.4542V89.1227V101.791H952.793C966.059 101.791 966.284 101.862 966.284 106.032C966.284 110.203 966.059 110.274 952.793 110.274H939.302V130.632V150.99H930.87H922.438V109.425ZM984.834 109.425V67.8605H1005.12C1018.55 67.8605 1027.25 68.6474 1030.84 70.1866C1044.03 75.8392 1049.02 89.3921 1041.86 100.095C1039.67 103.36 1035.47 107.257 1032.51 108.753L1027.13 111.473L1040.01 129.106L1052.89 146.739L1066.03 118.751C1086.25 75.6689 1091.72 65.3159 1094.26 65.3159C1095.68 65.3159 1104.13 81.7126 1115.67 106.88C1126.16 129.741 1134.78 149.018 1134.83 149.718C1134.88 150.418 1131.25 150.99 1126.75 150.99H1118.59L1112.26 137.418L1105.93 123.845H1089.93H1073.93L1067.8 137.418L1061.67 150.99L1048.97 150.951L1036.27 150.912L1022.9 132.289C1012.49 117.8 1008.66 113.666 1005.61 113.666C1001.75 113.666 1001.7 113.936 1001.7 132.329V150.99H993.266H984.834V109.425ZM1101.19 114.53C1101.19 114.072 1098.78 108.264 1095.83 101.625L1090.46 89.5526L1084.95 100.337C1081.92 106.269 1079.4 112.076 1079.35 113.243C1079.29 114.73 1082.54 115.363 1090.23 115.363C1096.26 115.363 1101.19 114.988 1101.19 114.53ZM1020.13 102.702C1025.52 99.8983 1026.99 97.051 1026.99 89.4619C1026.99 80.8785 1021.35 76.343 1010.68 76.343H1001.7V90.7633V105.184H1008.53C1012.28 105.184 1017.5 104.067 1020.13 102.702ZM1256.34 113.736V76.4802L1242.43 75.988C1229.45 75.5286 1228.48 75.2361 1227.97 71.6774L1227.43 67.8605H1265.61H1303.79L1303.25 71.6774C1302.75 75.2594 1301.8 75.525 1287.96 75.9849L1273.2 76.4755V113.732V150.99H1264.77H1256.34V113.736ZM1302.33 148.869C1306.13 139.105 1339.95 68.1576 1341.73 66.2364C1343.28 64.5519 1344.55 64.3174 1345.73 65.4997C1347.69 67.4707 1384.5 147.236 1384.5 149.51C1384.5 150.324 1380.87 150.99 1376.44 150.99H1368.37L1362.25 137.418L1356.12 123.845H1340.29H1324.47L1317.89 137.418C1311.91 149.752 1310.86 150.99 1306.41 150.99C1303.17 150.99 1301.79 150.27 1302.33 148.869ZM1350.99 112.382C1350.12 110.742 1347.39 104.826 1344.92 99.234L1340.43 89.0667L1334.64 101.595C1331.46 108.485 1328.85 114.402 1328.85 114.743C1328.85 115.084 1334.19 115.363 1340.71 115.363C1351.51 115.363 1352.44 115.094 1350.99 112.382ZM1392.37 149.859C1391.75 149.237 1391.25 130.532 1391.25 108.294V67.8605H1412.39C1430.25 67.8605 1434.57 68.3917 1440.18 71.2704C1456.44 79.6143 1455.3 102.063 1438.25 109.274L1433.66 111.218L1447.86 130.207C1455.68 140.65 1462.07 149.599 1462.07 150.092C1462.07 150.586 1457.9 150.99 1452.79 150.99H1443.51L1429.88 132.329C1419.06 117.512 1415.42 113.666 1412.18 113.666C1408.12 113.666 1408.11 113.728 1408.11 132.329V150.99H1400.8C1396.78 150.99 1392.99 150.481 1392.37 149.859ZM1425.78 103.5C1431.59 101.279 1435.18 92.7416 1433.21 85.809C1431.15 78.5245 1427.43 76.343 1417.06 76.343H1408.11V90.7633V105.184H1414.75C1418.4 105.184 1423.36 104.426 1425.78 103.5ZM1468.82 109.425V67.8605H1477.25H1485.68V109.425V150.99H1477.25H1468.82V109.425ZM1725.15 133.468V115.946L1709.11 92.3275L1693.08 68.7084L1700.03 68.1776C1703.85 67.8855 1707.99 68.0355 1709.22 68.5105C1710.45 68.9857 1716.83 77.4318 1723.4 87.2793C1729.97 97.127 1735.98 105.184 1736.76 105.184C1737.54 105.184 1743.69 96.7861 1750.44 86.5221C1762.08 68.8059 1763 67.8605 1768.48 67.8605H1774.26L1758.13 91.7209L1742.01 115.581V133.286V150.99H1733.58H1725.15V133.468ZM1810.21 138.69C1827.23 101.381 1843.64 66.8104 1845.02 65.3885C1846.01 64.36 1847.47 64.6706 1849.01 66.2364C1850.96 68.2248 1875.97 121.249 1886.4 145.476L1888.77 150.99H1880.19H1871.62L1865.55 137.418L1859.48 123.845L1843.33 123.868L1827.17 123.891L1820.97 137.441C1815.23 150.006 1814.41 150.99 1809.69 150.99H1804.6L1810.21 138.69ZM1855 114.653C1855 114.262 1852.39 108.483 1849.22 101.81C1842.78 88.3016 1843.57 88.0774 1835.85 105.62L1831.57 115.363H1843.28C1849.72 115.363 1855 115.043 1855 114.653ZM1895.47 109.425V67.8605H1903.9H1912.33V109.425V150.99H1903.9H1895.47V109.425ZM1993.28 109.425V67.8605H2001.71H2010.14V105.087V142.314L2031.08 142.834L2052.02 143.356L2069.26 106.032C2087.23 67.1311 2089.87 62.5695 2092.76 65.4753C2094.77 67.4919 2131.56 147.085 2131.56 149.405C2131.56 150.276 2127.93 150.99 2123.49 150.99H2115.43L2109.3 137.418L2103.17 123.845H2087.35H2071.52L2064.95 137.418L2058.37 150.99H2025.82H1993.28V109.425ZM2098.05 112.382C2097.18 110.742 2094.44 104.826 2091.97 99.234L2087.48 89.0667L2081.7 101.595C2078.51 108.485 2075.91 114.402 2075.91 114.743C2075.91 115.084 2081.25 115.363 2087.77 115.363C2098.57 115.363 2099.49 115.094 2098.05 112.382ZM2139.99 109.425V67.8605H2148.02H2156.05L2170.99 97.9711L2185.93 128.082L2200.91 97.9711L2215.89 67.8605H2224.32H2232.74V109.425V150.99H2224.31H2215.88L2215.78 120.028L2215.68 89.0667L2200.2 120.028C2190.3 139.841 2183.79 150.99 2182.15 150.99C2180.5 150.99 2174 139.841 2164.1 120.028L2148.61 89.0667L2148.52 120.028L2148.42 150.99H2144.21H2139.99V109.425ZM2249.6 109.425V67.8605H2258.03H2266.47V109.425V150.99H2258.03H2249.6V109.425ZM2283.33 109.425V67.8605H2312.96H2342.59L2342.05 71.6774C2341.53 75.3683 2340.83 75.5109 2320.85 75.9715L2300.19 76.4479V89.1195V101.791H2313.68C2326.95 101.791 2327.18 101.862 2327.18 106.032C2327.18 110.203 2326.95 110.274 2313.68 110.274H2300.19V126.391V142.508H2321.27H2342.35V146.749V150.99H2312.84H2283.33V109.425ZM2462.08 113.732V76.4755L2447.33 75.9849C2433.48 75.525 2432.54 75.2594 2432.03 71.6774L2431.49 67.8605H2469.67H2507.85L2507.31 71.6774C2506.81 75.2361 2505.83 75.5286 2492.86 75.988L2478.95 76.4802V113.736V150.99H2470.52H2462.08V113.732Z" fill="white"/>
</svg>
