<svg width="890" height="157" viewBox="0 0 890 157" fill="none" xmlns="http://www.w3.org/2000/svg">
<path d="M350.23 156.633C350.026 156.431 349.859 155.563 349.859 154.705V153.144H345.773C340.814 153.144 339.845 152.404 339.845 148.614C339.845 145.459 342.666 134.272 344.224 131.248C346.13 127.549 346.923 127.253 354.904 127.253C364.423 127.253 364.801 127.716 362.907 137.054C361.63 143.348 359.438 149.549 357.914 151.177C357.174 151.967 355.811 152.764 354.883 152.948C353.406 153.24 353.197 153.511 353.197 155.141C353.197 156.721 353.003 157 351.899 157C351.185 157 350.434 156.835 350.23 156.633ZM349.303 147.635C349.303 145.1 349.409 144.881 350.629 144.881C352.037 144.881 352.619 146.041 352.634 148.875C352.642 150.517 353.511 150.815 355.047 149.701C356.804 148.427 361.067 132.996 360.246 130.879C359.723 129.53 349.262 129.609 348.09 130.971C346.599 132.704 344.186 140.702 343.418 146.452C342.957 149.91 343.368 150.368 346.939 150.381L349.303 150.389V147.635ZM274.754 152.584C274.754 152.277 276.162 146.451 277.883 139.639L281.012 127.253H288.692C298.106 127.253 298.393 127.414 297.982 132.488C297.643 136.666 295.936 140.612 293.893 141.937C292.7 142.711 290.963 142.989 286.348 143.145C281.379 143.314 280.31 143.504 280.097 144.253C279.955 144.75 279.413 146.953 278.891 149.15C277.985 152.96 277.868 153.144 276.348 153.144C275.471 153.144 274.754 152.892 274.754 152.584ZM293.234 137.924C293.802 136.96 294.305 134.895 294.377 133.241L294.504 130.283L289.08 130.125C286.096 130.038 283.648 130.162 283.639 130.4C283.63 130.638 283.137 132.568 282.543 134.689C281.949 136.81 281.455 138.864 281.446 139.254C281.434 139.795 282.71 139.925 286.825 139.805C292.216 139.647 292.22 139.646 293.234 137.924ZM304.338 152.43C304.437 152.037 307.772 146.214 311.75 139.49L318.983 127.264L321.543 127.256L324.103 127.248L324.454 131.518C325.287 141.633 325.932 148.617 326.235 150.798L326.562 153.14H324.58C322.65 153.14 322.599 153.085 322.599 151.005C322.599 149.831 322.442 148.095 322.251 147.149L321.904 145.427H316.698H311.493L309.396 149.274C307.567 152.629 307.099 153.122 305.729 153.13C304.718 153.138 304.222 152.885 304.338 152.426V152.43ZM321.716 138.408C321.511 136.06 321.183 133.159 320.987 131.962L320.63 129.786L316.927 136.231L313.224 142.677H317.657H322.089L321.716 138.408ZM376.131 152.286C374.276 151 374.553 147.255 377.287 136.618C379.562 127.768 379.664 127.523 381.153 127.354C382.152 127.24 382.683 127.437 382.683 127.921C382.683 128.329 381.682 132.677 380.458 137.583C377.839 148.083 377.723 149.575 379.484 150.042C381.458 150.566 387.473 150.444 389.055 149.848C390.842 149.176 391.125 148.442 394.052 136.893L396.426 127.528L398.253 127.35C399.599 127.218 400.005 127.366 399.794 127.909C399.637 128.315 398.455 132.857 397.167 138.003C393.545 152.476 392.939 153.144 383.417 153.144C378.842 153.144 377.066 152.935 376.131 152.286ZM408.599 151.904C408.818 151.223 410.289 145.459 411.867 139.096L414.738 127.528L423.508 127.376L432.278 127.224L432.099 128.478C431.924 129.7 431.735 129.735 424.671 129.884L417.422 130.037L416.708 133.19C416.316 134.924 415.868 136.776 415.713 137.306C415.457 138.183 415.992 138.27 421.649 138.27C427.089 138.27 427.823 138.379 427.528 139.141C427.342 139.621 427.19 140.232 427.19 140.501C427.19 140.769 424.382 141.058 420.951 141.144L414.712 141.3L413.756 144.881C412.172 150.814 411.712 150.389 419.739 150.389C425.906 150.389 426.712 150.495 426.415 151.261C426.229 151.74 426.078 152.36 426.078 152.638C426.078 152.924 422.196 153.144 417.138 153.144H408.2L408.599 151.904ZM445.549 152.366C445.549 151.938 446.676 147.11 448.053 141.636C449.43 136.161 450.556 131.306 450.556 130.845C450.556 130.174 449.772 130.007 446.623 130.007C442.863 130.007 442.698 129.952 442.868 128.767C443.044 127.54 443.146 127.527 453.199 127.378C461.129 127.261 463.35 127.386 463.343 127.929C463.324 129.53 462.351 129.959 458.383 130.118L454.28 130.283L451.445 141.708C448.613 153.12 448.607 153.134 447.079 153.139C446.13 153.147 445.549 152.849 445.549 152.366ZM469.472 152.584C469.472 152.277 470.88 146.451 472.601 139.639L475.73 127.253H484.621C492.501 127.253 493.475 127.352 493.176 128.124C492.99 128.603 492.838 129.223 492.838 129.501C492.838 129.783 489.627 130.007 485.605 130.007C481.628 130.007 478.366 130.193 478.357 130.42C478.348 130.647 477.879 132.507 477.315 134.552L476.289 138.27H482.377C488.372 138.27 488.462 138.289 488.287 139.509C488.116 140.7 487.862 140.755 481.867 140.905L475.625 141.06L475.016 143.384C474.682 144.662 474.174 146.575 473.89 147.635C473.605 148.696 473.371 149.749 473.369 149.976C473.369 150.204 476.495 150.389 480.32 150.389C484.173 150.389 487.275 150.615 487.275 150.895C487.275 153.033 486.818 153.144 478.035 153.144C472.61 153.144 469.472 152.939 469.472 152.584ZM500.626 152.398C500.626 151.773 504.387 136.317 506.242 129.318L506.789 127.253H514.748C521.753 127.253 522.818 127.373 523.628 128.26C525.477 130.282 524.256 136.32 521.434 139.114C519.872 140.661 519.717 141.034 520.403 141.598C521.325 142.355 521.431 144.289 520.702 147.084C520.426 148.145 520.041 149.942 519.846 151.078C519.53 152.92 519.313 153.144 517.848 153.144C515.931 153.144 515.945 153.238 517.074 147.825C517.552 145.531 517.811 143.311 517.648 142.89C517.423 142.31 516.024 142.126 511.817 142.126H506.281L504.995 147.635C503.747 152.981 503.663 153.144 502.168 153.144C501.243 153.144 500.626 152.846 500.626 152.398ZM519.103 137.677C520.349 136.021 521.311 132.368 520.872 130.952C520.602 130.08 519.937 129.987 514.955 130.126L509.343 130.283L508.332 134.414C507.776 136.686 507.317 138.74 507.312 138.979C507.304 139.217 509.717 139.341 512.669 139.254C517.7 139.106 518.101 139.008 519.103 137.677ZM534.125 152.18C534.261 151.65 535.73 145.827 537.389 139.241C540.403 127.275 540.406 127.266 541.935 127.26C542.893 127.251 543.464 127.547 543.464 128.039C543.464 128.472 542.087 134.202 540.404 140.774C538.721 147.345 537.345 152.817 537.345 152.933C537.345 153.049 536.564 153.144 535.611 153.144C534.236 153.144 533.928 152.944 534.125 152.18ZM550.358 152.277C550.656 151.506 555.997 142.419 562.637 131.384C564.917 127.596 565.002 127.525 567.47 127.364L569.982 127.2L570.666 134.525C571.042 138.554 571.584 144.134 571.872 146.925C572.159 149.715 572.394 152.272 572.394 152.606C572.394 152.96 571.638 153.142 570.586 153.041L568.778 152.869L568.613 149.15L568.449 145.432H563.014H557.58L555.39 149.287C553.478 152.652 552.999 153.141 551.611 153.142C550.393 153.142 550.1 152.941 550.358 152.277ZM567.588 136.755C567.399 133.498 567.074 130.645 566.866 130.416C566.55 130.067 559.598 141.524 559.598 142.393C559.598 142.549 561.473 142.677 563.765 142.677H567.933L567.588 136.755ZM585.189 152.379C585.189 151.521 590.553 129.511 591.116 128.057C591.446 127.206 596.578 126.867 597.053 127.666C597.188 127.893 597.626 132.712 598.027 138.375C598.427 144.038 598.926 148.567 599.135 148.438C599.345 148.31 602.238 143.491 605.563 137.729L611.609 127.253H614.544C617.468 127.253 617.477 127.261 617.091 128.767C616.878 129.601 615.419 135.364 613.85 141.575L610.996 152.869L609.144 153.047C607.695 153.186 607.361 153.047 607.609 152.41C607.783 151.961 608.962 147.419 610.229 142.315C611.497 137.212 612.658 132.541 612.81 131.935C612.962 131.329 610.409 135.295 607.137 140.749C603.865 146.203 600.837 151.223 600.408 151.904C599.851 152.791 599.096 153.144 597.759 153.144H595.89L595.564 149.701C595.384 147.807 594.938 142.586 594.572 138.097L593.907 129.937L591.028 141.402C588.224 152.57 588.111 152.873 586.67 153.043C585.639 153.164 585.189 152.963 585.189 152.379ZM626.14 151.904C626.367 151.223 627.849 145.459 629.433 139.096L632.312 127.528L641.019 127.376L649.725 127.225V128.6V129.975L642.389 130.129L635.053 130.283L634.416 132.761C634.066 134.125 633.607 135.922 633.396 136.755L633.013 138.27H639.203C644.619 138.27 645.351 138.379 645.055 139.141C644.869 139.621 644.718 140.232 644.718 140.501C644.718 140.769 641.907 141.058 638.472 141.144L632.227 141.3L631.26 144.881C629.665 150.79 629.229 150.389 637.267 150.389C643.434 150.389 644.24 150.495 643.943 151.261C643.757 151.74 643.605 152.36 643.605 152.638C643.605 152.924 639.724 153.144 634.666 153.144H625.727L626.14 151.904ZM657.247 151.904C657.417 151.223 658.865 145.459 660.462 139.096L663.367 127.528L665.646 127.362C668.333 127.167 667.823 126.216 672.047 139.308C674.032 145.464 675.077 148.003 675.333 147.295C675.539 146.725 676.78 141.982 678.091 136.755L680.475 127.253H682.133C683.496 127.253 683.741 127.442 683.511 128.313C683.357 128.896 681.892 134.722 680.256 141.259L677.282 153.144H675.009H672.736L671.246 148.324C670.426 145.672 669.004 141.15 668.085 138.273C667.166 135.396 666.415 132.681 666.415 132.241C666.415 129.964 665.224 133.423 663.107 141.851C661.813 147.002 660.634 151.65 660.487 152.18C660.31 152.82 659.669 153.144 658.578 153.144C657.154 153.144 656.977 152.979 657.247 151.904ZM693.406 152.052C692.618 151.19 692.482 150.428 692.759 148.426C693.203 145.22 693.43 144.881 695.127 144.881C696.433 144.881 696.503 145.032 696.345 147.497L696.179 150.114L701.322 150.272C704.151 150.36 706.95 150.174 707.541 149.861C708.807 149.19 710.716 143.355 709.926 142.573C709.644 142.294 706.811 141.801 703.63 141.479C697.334 140.84 695.9 140.145 695.9 137.734C695.9 135.053 697.645 130.398 699.244 128.814C700.807 127.267 700.887 127.253 707.708 127.253C712.321 127.253 714.813 127.471 715.261 127.914C715.959 128.605 716.172 132.593 715.591 134.093C715.393 134.604 714.601 134.965 713.677 134.965C712.178 134.965 712.107 134.852 712.207 132.624L712.312 130.283L707.863 130.119C701.428 129.883 701.093 130.033 700.04 133.62C699.39 135.834 699.309 136.865 699.747 137.387C700.111 137.822 702.298 138.242 705.293 138.452C711.351 138.878 713.006 139.453 713.473 141.292C713.867 142.848 712.982 146.917 711.639 149.725C710.269 152.589 708.547 153.144 701.021 153.144C695.131 153.144 694.294 153.024 693.406 152.052ZM725.316 148.599C728.593 143.066 734.187 133.64 735.534 131.384C736.076 130.475 736.809 129.174 737.162 128.492C737.68 127.493 738.275 127.253 740.236 127.253C741.685 127.253 742.763 127.531 742.903 127.941C743.032 128.32 743.528 133.216 744.005 138.821C744.482 144.426 745.016 149.942 745.192 151.078C745.511 153.14 745.508 153.144 743.516 153.144C741.636 153.144 741.52 153.04 741.514 151.353C741.506 150.369 741.352 148.634 741.163 147.497L740.818 145.432H735.616H730.414L728.317 149.278C726.391 152.812 726.074 153.126 724.423 153.135L722.625 153.144L725.316 148.599ZM740.638 138.408C740.433 136.06 740.109 133.185 739.918 132.019L739.571 129.9L735.84 136.289L732.109 142.677H736.56H741.01L740.638 138.408ZM758.071 152.549C757.322 152.117 757.099 151.263 757.106 148.847C757.117 145.119 757.603 144.169 759.377 144.419C760.568 144.587 760.679 144.838 760.518 147.022C760.304 149.922 760.836 150.369 764.505 150.381C767.503 150.39 769.037 149.77 769.882 148.206C770.373 147.298 775.457 128.485 775.457 127.577C775.457 127.399 776.208 127.253 777.126 127.253C778.044 127.253 778.794 127.377 778.794 127.529C778.794 128.733 773.679 147.419 772.911 149.022C771.375 152.227 769.336 153.142 763.773 153.125C761.172 153.117 758.607 152.858 758.071 152.549ZM787.504 151.629C787.716 150.796 789.16 145.032 790.714 138.821L793.537 127.528L802.34 127.376L811.143 127.224L810.964 128.478C810.789 129.692 810.555 129.74 803.574 130.007L796.365 130.283L795.719 132.498C795.363 133.716 794.895 135.513 794.678 136.492L794.283 138.27H800.37H806.457L806.191 139.647C805.927 141.019 805.899 141.025 799.694 141.025H793.463L792.519 145.018C792 147.215 791.579 149.322 791.583 149.701C791.591 150.214 793.34 150.389 798.467 150.389H805.344L805.078 151.767L804.813 153.144H795.965H787.118L787.504 151.629ZM818.415 152.18C818.553 151.65 820.016 145.824 821.666 139.234L824.666 127.253H832.774C838.338 127.253 841.091 127.46 841.549 127.914C842.388 128.744 842.345 133.567 841.479 135.892C840.704 137.97 838.615 140.467 837.63 140.49C837.237 140.5 837.357 140.753 837.905 141.069C839.064 141.737 839.134 144.071 838.153 149.288C837.502 152.748 837.423 152.869 835.814 152.869C834.899 152.869 834.175 152.621 834.206 152.318C834.238 152.015 834.587 149.992 834.981 147.824C836.031 142.061 836.026 142.056 829.597 142.244L824.191 142.402L822.848 147.773C821.521 153.079 821.484 153.144 819.834 153.144C818.519 153.144 818.218 152.939 818.415 152.18ZM836.085 138.827C837.4 138.13 839.023 133.951 838.785 131.877L838.601 130.283L832.994 130.127L827.387 129.97L826.448 133.823C825.931 135.942 825.36 138.058 825.18 138.524C824.899 139.249 825.589 139.372 829.954 139.372C832.761 139.372 835.52 139.127 836.085 138.827ZM852.231 152.332C852.231 151.602 855.699 137.383 857.844 129.318C858.323 127.519 858.606 127.253 860.041 127.253C860.947 127.253 861.673 127.439 861.654 127.666C861.635 127.893 860.188 133.656 858.439 140.473C855.314 152.653 855.232 152.871 853.745 153.043C852.652 153.169 852.231 152.97 852.231 152.332ZM868.639 151.499C869.133 150.553 870.986 147.376 872.758 144.438C874.529 141.5 877.543 136.431 879.455 133.174L882.932 127.253H885.373C888.313 127.253 888.012 126.232 889.19 140.198C890.35 153.971 890.398 153.144 888.449 153.144C886.861 153.144 886.831 153.086 886.446 149.288L886.054 145.432L880.687 145.439L875.319 145.448L873.343 149.158C871.586 152.458 871.168 152.887 869.554 153.043L867.741 153.218L868.639 151.499ZM885.562 138.959C885.535 136.914 885.344 134.001 885.136 132.486L884.758 129.731L881.891 134.495C880.313 137.115 878.621 140.028 878.13 140.968L877.237 142.677H881.424H885.611L885.562 138.959ZM283.229 117.199C283.366 116.82 288.709 95.7492 295.104 70.3743L306.73 24.2384H313.83C321.816 24.2384 321.388 23.92 320.082 28.8834C319.616 30.6566 319.302 32.1751 319.386 32.2578C319.47 32.3406 321.667 31.1045 324.268 29.511C332.293 24.5938 333.764 24.2357 345.847 24.2554C355.294 24.2708 356.538 24.3854 359.293 25.4949C367.558 28.8233 367.936 35.8528 361.256 61.9738C356.485 80.6255 353.883 86.9919 349.108 91.6963C343.854 96.8718 338.309 98.3019 324.818 97.9616C315.26 97.7206 313.536 97.1356 308.336 92.368L304.948 89.2626L301.507 102.886C299.615 110.38 297.961 116.82 297.833 117.199C297.661 117.703 295.641 117.888 290.289 117.888C284.68 117.888 283.038 117.727 283.229 117.199ZM338.394 83.5487C339.25 82.9929 340.562 81.2156 341.309 79.599C343.894 74.0087 349.098 54.3799 350.389 45.3544C351.546 37.2688 350.609 36.7057 336.54 37.0313C327.134 37.2489 326.591 37.3248 321.901 39.0645C318.19 40.4408 316.961 41.1536 316.741 42.0574C316.583 42.71 314.334 51.6542 311.744 61.9339C309.154 72.2136 307.094 80.6553 307.167 80.6931C307.24 80.7305 308.05 81.2278 308.967 81.7979C313.012 84.3136 316.178 84.827 326.798 84.6895C335.459 84.5774 337.052 84.4206 338.394 83.5487ZM9.0122 97.4739C2.44642 96.6268 0.330282 94.7029 0.0219846 89.3009C-0.156909 86.1655 0.780373 79.3568 1.94528 75.3325C2.19117 74.483 3.02094 74.3682 8.93396 74.3682H15.6437L15.1871 76.7097C14.9361 77.9974 14.7163 80.4142 14.6989 82.0807L14.6665 85.1102L29.4339 85.257C43.5894 85.3976 44.2516 85.3573 45.4078 84.2907C47.1779 82.6578 50.037 72.3029 49.2666 70.3152C48.7805 69.0608 47.0447 68.4897 42.4635 68.0763C40.3325 67.884 36.586 67.4958 34.1381 67.214C31.6902 66.9322 27.0588 66.4323 23.8459 66.1033C11.0256 64.7902 8.82052 63.2778 8.82931 55.8035C8.83742 50.8615 11.5806 39.9571 14.0845 34.9307C16.632 29.8174 20.4067 26.2713 24.5824 25.0693C27.1962 24.3169 30.4623 24.2081 46.1991 24.3485C62.7984 24.4968 64.9282 24.6175 66.5693 25.5047C70.6492 27.7105 71.4835 32.1252 69.6728 41.9254L68.7679 46.8244H61.9562H55.1444L55.6126 44.208C55.8701 42.7687 56.2084 40.9041 56.3639 40.0648C56.5603 39.0049 56.3104 38.205 55.5455 37.4481C54.5153 36.4279 53.6598 36.3579 42.2413 36.3579C35.4853 36.3579 29.3874 36.6027 28.5805 36.9064C26.7937 37.579 25.2543 40.8233 23.9948 46.5701C23.161 50.3746 23.1597 50.7879 23.9786 51.5992C24.6605 52.2743 28.8334 52.9202 41.6553 54.3342C59.664 56.3203 61.5721 56.7922 63.4503 59.7261C64.367 61.1578 64.4892 62.0677 64.233 65.5541C64.0659 67.8265 63.3156 72.1647 62.5656 75.1946C58.7798 90.4902 54.3532 96.1929 45.2646 97.4821C40.7187 98.1267 14.025 98.1208 9.01121 97.4739H9.0122ZM88.7099 97.4285C83.6848 96.7901 80.7094 95.1351 78.9307 91.9895C76.2543 87.2563 77.2999 78.0209 82.9222 56.7404C87.9741 37.6189 91.6566 30.6889 98.7995 26.8606C103.228 24.4873 106.707 24.1384 123.987 24.3342C139.613 24.5112 139.883 24.534 142.623 25.8911C147.88 28.4942 149.359 32.6616 148.181 41.5481C147.429 47.2215 145.21 57.7171 143.694 62.7717L142.859 65.5544H119.005H95.1503L93.9199 70.6499C93.2432 73.4524 92.567 77.4882 92.4172 79.6183C92.0168 85.3168 91.4564 85.1106 107.341 85.1106C123.082 85.1106 122.865 85.1852 125.061 79.0014C125.804 76.9078 126.644 75.0401 126.927 74.851C127.319 74.589 138.076 74.6062 140.221 74.8722C140.428 74.8977 140.144 76.4688 139.588 78.3624C135.786 91.3237 131.254 96.1247 121.559 97.4599C116.492 98.1577 94.2834 98.1372 88.7099 97.4285ZM132.461 49.8543C132.991 47.7333 133.587 44.3615 133.785 42.3611C134.329 36.8723 134.427 36.9087 119.107 36.9087C105.098 36.9087 104.169 37.1169 102.341 40.6649C101.266 42.7519 98.3954 51.9304 98.3954 53.2816C98.3954 53.8623 101.609 53.9739 114.946 53.8563L131.497 53.7105L132.461 49.8543ZM154.096 97.5789C153.467 97.1674 154.983 90.4851 162.441 60.795L171.554 24.5139L178.647 24.3597C186.689 24.1849 186.401 23.9815 185.073 28.8955C184.706 30.2535 184.566 31.5233 184.762 31.7171C184.958 31.9109 187.02 30.8958 189.344 29.4613C197.346 24.5231 198.403 24.2663 210.805 24.2515C221.303 24.2387 221.781 24.2864 224.471 25.6139C230.157 28.4196 231.04 33.5668 227.988 46.136C223.709 63.767 215.188 97.1758 214.898 97.4625C214.721 97.6375 211.468 97.8071 207.669 97.8394C202.413 97.8836 200.761 97.7299 200.761 97.1957C200.761 96.8098 201.624 93.0652 202.678 88.8743C210.476 57.8805 214.113 42.8619 214.113 41.6668C214.113 40.9014 213.51 39.5799 212.772 38.7298L211.431 37.1843L203.058 37.0071C194.159 36.8189 189.11 37.6685 184.106 40.1965L181.997 41.2618L174.943 69.2237C171.063 84.6028 167.76 97.3133 167.603 97.469C167.077 97.9896 154.875 98.0889 154.096 97.5789ZM247.197 96.9555C244.304 95.5373 243.043 93.3909 243.043 89.8844C243.043 88.2088 245.457 77.4783 249.16 62.7011C252.524 49.2728 255.277 37.9759 255.279 37.5971C255.279 37.0878 253.689 36.9087 249.162 36.9087C245.333 36.9087 243.043 36.6961 243.043 36.3409C243.043 36.0287 243.698 33.1858 244.498 30.0229L245.953 24.2724L252.425 24.1178L258.897 23.9631L261.167 15.1491L263.436 6.33499L270.764 6.18136C274.794 6.09681 278.092 6.17209 278.092 6.34709C278.092 6.68557 274.352 21.6347 273.857 23.2744C273.589 24.1636 274.239 24.2384 282.227 24.2384C289.808 24.2384 290.888 24.3488 290.888 25.1229C290.888 25.9142 290.307 28.3885 288.607 34.8428L288.063 36.9087H279.183C274.299 36.9087 270.303 37.0086 270.303 37.131C270.303 37.2532 268.96 42.6449 267.318 49.1126C261.052 73.7935 259.101 82.0887 259.275 83.3035C259.452 84.5387 259.592 84.5623 267.714 84.7124C273.942 84.8276 275.911 85.0309 275.718 85.5388C275.577 85.9092 275.007 88.131 274.451 90.476C273.796 93.2405 273.134 94.8311 272.567 95.0001C261.438 98.3206 251.539 99.0836 247.197 96.9555ZM379.478 97.4939C371.947 95.9559 369.837 90.0197 372.711 78.4588C375.862 65.7864 379.965 60.0301 387.789 57.3072C394.429 54.9966 412.403 54.5284 421.496 56.4295C423.414 56.8303 425.087 56.9903 425.215 56.7852C426.17 55.2552 428.886 42.3762 428.747 40.0366C428.588 37.3629 428.502 37.229 426.644 36.7547C425.579 36.4828 419.904 36.3443 414.032 36.4468C403.625 36.6286 403.32 36.6667 401.922 37.9675C401.103 38.7296 399.964 40.915 399.265 43.0633L398.042 46.8244H390.919C385.555 46.8244 383.796 46.6527 383.796 46.1291C383.796 45.7468 384.399 43.5515 385.137 41.2507C387.884 32.6786 390.93 28.6111 396.592 25.9513C399.647 24.5159 399.676 24.5136 416.342 24.3378C436.016 24.1302 438.508 24.449 441.927 27.6089L444.158 29.6705L444.15 34.8046C444.142 39.5381 443.583 42.1818 436.92 68.6961C430.123 95.7428 429.615 97.4733 428.378 97.7805C427.655 97.9602 424.462 98.0662 421.283 98.0159C414.905 97.9149 415.023 97.9998 416.008 94.1999C416.282 93.1395 416.664 91.5795 416.856 90.7333L417.205 89.1943L413.711 91.4583C411.789 92.7034 408.339 94.6351 406.044 95.7513L401.872 97.7809L391.858 97.8793C386.35 97.9328 380.777 97.76 379.474 97.4939H379.478ZM414.395 83.1806L419.123 81.2543L420.884 74.6438C421.853 71.008 422.667 67.575 422.692 67.015C422.737 66.0449 422.061 66.0057 408.414 66.1899C390.248 66.4351 390.257 66.4313 387.722 75.4914C386.426 80.1194 386.217 84.5882 387.273 85.0419C387.656 85.2063 392.85 85.2881 398.817 85.224L409.666 85.107L414.395 83.1806ZM464.461 97.5485C459.544 96.8734 457.387 95.9313 455.342 93.5651C451.213 88.7886 451.744 81.1012 457.794 58.0629C463.048 38.061 466.116 31.7806 472.649 27.6573C477.619 24.5202 480.389 24.1744 499.126 24.3534C514.882 24.5039 516.063 24.585 518.129 25.6584C519.565 26.404 520.795 27.6517 521.659 29.239C522.87 31.4614 522.96 32.1348 522.693 36.9087C522.532 39.7871 521.981 43.9393 521.467 46.136L520.534 50.1298H513.325C506.49 50.1298 506.132 50.0746 506.451 49.0812C506.995 47.3841 507.852 41.7364 507.856 39.8268C507.864 38.2562 507.63 37.9993 505.773 37.4886C503.219 36.7863 485.045 36.7441 482.044 37.4337C479.053 38.1208 478.002 39.3548 476.363 44.1057C474.51 49.4787 469.262 69.9413 468.059 76.4831C466.936 82.5906 467.309 84.0402 470.142 84.5637C471.15 84.7502 477.32 84.8256 483.851 84.7314L495.727 84.5598L497.01 82.9652C497.716 82.0881 498.985 79.0512 499.83 76.2167L501.367 71.0631H508.229C516.197 71.0631 515.781 70.5849 513.756 77.4177C511.041 86.5731 508.402 91.1832 504.14 94.2139C499.709 97.3647 497.952 97.6505 481.989 97.8178C474.034 97.9012 466.146 97.7787 464.461 97.5485ZM526.194 97.2713C526.181 96.9455 531.624 74.9262 538.29 48.3395L550.41 0H557.845C563.996 0 565.229 0.133428 564.981 0.772425C563.989 3.33356 551.756 53.0541 551.978 53.6262C552.167 54.1146 553.011 54.2326 554.785 54.0178C557.063 53.7417 557.845 53.2066 562.493 48.7412C565.337 46.0081 572.327 39.3767 578.024 34.005L588.383 24.2384H596.905H605.426L603.792 25.9365C602.893 26.8705 594.209 34.7342 584.494 43.4114C574.779 52.0887 566.83 59.4026 566.83 59.6643C566.83 59.9261 571.625 68.4479 577.484 78.6017C585.929 93.2356 587.977 97.1666 587.359 97.5638C586.432 98.1606 572.605 98.1125 570.995 97.5069C570.267 97.2337 566.943 91.7406 561.537 81.8813L553.2 66.6773L550.697 66.6685L548.193 66.66L544.361 82.0424C540.713 96.682 540.46 97.4417 539.119 97.775C536.803 98.3506 526.221 97.9382 526.194 97.2713ZM603.957 80.5734C598.61 70.9495 593.83 62.2879 593.335 61.3256L592.436 59.5761L609.536 44.207C618.941 35.7541 627.668 27.9273 628.929 26.8139L631.222 24.7895H716.97H802.717V42.9685V61.1474H824.136H845.555V42.9685V24.7895H866.696H887.836V42.9685V61.1474H866.696H845.555V79.3264V97.5053H824.143H802.732L802.585 79.464L802.439 61.4226H781.298H760.157L760.01 79.7238L759.864 98.0251L686.772 98.0486L613.68 98.0715L603.957 80.5734Z" fill="white"/>
</svg>
