<svg width="728" height="255" viewBox="0 0 728 255" fill="none" xmlns="http://www.w3.org/2000/svg">
<path d="M0.730469 253.956L5.32132 232.072H20.6303L19.8714 235.738H9.05139L7.94996 240.968H18.5478L17.7888 244.634H7.18173L5.23802 253.956H0.730469ZM24.2586 232.072H28.7384L26.1468 243.977L25.4804 246.893C25.4804 247.139 25.4848 247.462 25.2952 247.842C25.2952 248.638 25.631 249.3 26.3134 249.814C26.9958 250.325 28.0024 250.591 29.3122 250.591C30.4875 250.591 31.4601 250.383 32.2278 249.985C33.005 249.587 33.5971 248.962 34.0142 248.166C34.4312 247.35 34.8652 245.978 35.2822 244.046L37.7813 232.085H42.2796L39.6879 244.477C39.1382 246.894 38.5104 248.746 37.809 250.031C37.0887 251.32 36.0099 252.35 34.5788 253.155C33.1381 253.952 31.3039 254.368 29.0994 254.368C26.4626 254.368 24.4431 253.745 23.0461 252.494C21.6434 251.242 20.9358 249.63 20.9358 247.666C20.9358 247.268 20.9406 246.811 21.1302 246.337C21.1302 246.015 21.354 245.126 21.6762 243.625L24.2586 232.072ZM59.0047 253.956H54.8211L48.9159 239.255L45.8338 253.956H41.6502L46.241 232.072H50.4154L56.3483 246.712L59.4027 232.072H63.5863L59.0047 253.956ZM63.6326 253.956L68.2142 232.072H74.1286C75.7778 232.072 76.8261 232.072 77.2848 232.072C78.1947 232.072 79.0139 232.338 79.7191 232.622C80.4394 232.907 81.0808 233.286 81.6628 233.798C82.2504 234.31 82.7637 234.897 83.1807 235.617C83.5978 236.319 83.9154 237.133 84.1618 238.057C84.3893 238.986 84.5043 239.99 84.5043 241.084C84.5043 243.442 84.0531 245.531 83.1622 247.36C82.2523 249.18 81.1171 250.636 79.7561 251.711C78.6946 252.546 77.3607 253.169 75.7021 253.567C74.7732 253.795 73.3245 253.891 71.3796 253.891H63.6418L63.6326 253.956ZM68.8621 250.438H71.1575C72.8256 250.438 74.0242 250.251 74.7673 250.138C75.5065 249.929 76.1872 249.549 76.8128 248.999C77.7037 248.184 78.4402 247.123 79.0619 245.777C79.6685 244.431 79.969 242.845 79.969 241.019C79.969 239.464 79.7218 238.302 79.21 237.515C78.6982 236.738 78.0986 236.225 77.3403 235.96C76.8285 235.77 75.8926 235.691 74.5544 235.691H71.935L68.8436 250.457L68.8621 250.438ZM85.4854 253.956L90.067 232.072H94.5653L89.9837 253.956H85.4854ZM106.783 253.956H102.497L101.683 235.673L98.2121 253.956H94.1581L98.7304 232.072H105.154L105.811 247.11L112.697 232.072H119.167L115.178 253.956H111.105L114.909 235.802L106.783 253.956ZM119.611 253.956L124.193 232.072H140.4L139.641 235.738H127.923L126.849 240.69H138.197L137.438 244.356H126.053L124.767 250.29H137.475L136.716 253.956H119.611ZM143.676 253.956H137.827L147.48 242.926L142.047 232.072H146.74L148.887 236.071C148.887 236.26 149.458 237.208 150.368 239.024C150.368 239.214 150.553 239.251 150.553 239.422C151.748 237.981 152.758 236.796 153.571 235.876L156.977 232.076H162.706L152.71 243.574L158.088 253.961H153.015L151.331 250.772C150.459 249.084 149.875 247.881 149.591 247.147C149.212 247.716 148.227 248.89 146.638 250.67L143.676 253.956ZM181.495 253.956H177.21L176.395 235.673L172.925 253.956H168.861L173.443 232.072H179.866L180.523 247.11L187.41 232.072H193.88L189.89 253.956H185.818L189.622 235.802L181.495 253.956ZM194.324 253.956L198.905 232.072H215.103L214.344 235.738H202.635L201.553 240.69H212.9L212.141 244.356H200.757L199.47 250.29H212.178L211.419 253.956H194.324ZM224.229 253.956H219.731L223.544 235.738H217.121L217.861 232.072H235.095L234.355 235.738H228.043L224.229 253.956ZM245.462 249.124H236.78L234.133 253.956H229.468L241.824 232.072H246.915L250.451 253.956H246.184L245.462 249.124ZM244.934 245.458L243.648 236.654L238.816 245.458H244.934ZM253.311 253.956L257.902 232.072H262.391L258.577 250.29H269.721L268.962 253.956H253.311ZM271.859 253.956L276.441 232.072H292.638L291.879 235.738H280.171L279.088 240.69H290.436L289.677 244.356H278.292L277.005 250.29H289.704L288.955 253.956H271.859ZM292.907 246.907L297.192 246.68C297.192 248.045 297.469 248.957 297.886 249.429C298.55 250.207 299.77 250.587 301.533 250.587C303.012 250.587 304.071 250.321 304.726 249.79C305.39 249.26 305.708 248.613 305.708 247.874C305.708 247.229 305.443 246.681 304.893 246.226C304.514 245.904 303.472 245.354 301.783 244.634C300.096 243.895 298.849 243.289 298.072 242.796C297.294 242.303 296.675 241.659 296.239 240.871C295.784 240.093 295.573 239.163 295.573 238.107C295.573 236.249 296.232 234.723 297.572 233.502C298.899 232.288 300.835 231.683 303.366 231.683C305.932 231.683 307.92 232.289 309.327 233.483C310.729 234.697 311.513 236.295 311.65 238.297L307.337 238.487C307.147 237.444 306.843 236.65 306.198 236.085C305.554 235.535 304.608 235.251 303.338 235.251C302.087 235.251 301.212 235.477 300.682 235.913C300.151 236.349 299.886 236.897 299.886 237.58C299.886 238.205 300.125 238.737 300.598 239.135C301.091 239.552 302.177 240.122 303.838 240.862C306.353 241.942 307.954 242.83 308.642 243.505C309.665 244.509 310.169 245.781 310.169 247.351C310.169 249.289 309.418 250.94 307.883 252.308C306.347 253.673 304.228 254.368 301.505 254.368C299.629 254.368 297.997 254.045 296.618 253.419C295.235 252.794 294.264 251.922 293.694 250.79C293.125 249.672 292.869 248.363 292.907 246.907ZM338.584 253.956H334.4L328.486 239.255L325.413 253.956H321.229L325.811 232.072H329.995L335.928 246.712L338.982 232.072H343.166L338.584 253.956ZM344.582 245.365C344.582 244.076 344.776 242.707 345.174 241.273C345.686 239.347 346.466 237.683 347.497 236.265C348.54 234.843 349.852 233.729 351.431 232.905C353.004 232.089 354.806 231.673 356.827 231.673C359.536 231.673 361.727 232.508 363.389 234.201C365.058 235.888 365.889 238.115 365.889 240.899C365.889 243.212 365.34 245.451 364.259 247.61C363.179 249.773 361.695 251.437 359.835 252.605C357.978 253.78 355.877 254.35 353.523 254.35C351.485 254.35 349.773 253.895 348.386 252.966C347.002 252.037 346.026 250.891 345.452 249.522C344.883 248.157 344.582 246.763 344.582 245.365ZM349.052 245.365C349.052 246.863 349.503 248.139 350.413 249.152C351.323 250.175 352.531 250.684 354.023 250.684C355.236 250.684 356.407 250.286 357.521 249.49C358.64 248.693 359.564 247.473 360.298 245.842C361.018 244.212 361.399 242.622 361.399 241.074C361.399 239.349 360.94 237.99 360.011 237.006C359.082 236.02 357.908 235.529 356.475 235.529C354.28 235.529 352.494 236.55 351.116 238.607C349.733 240.666 349.052 242.908 349.052 245.365ZM375.376 254.04L379.957 232.159H395.266L394.507 235.825H383.687L382.586 241.051H393.184L392.434 244.722H381.827L379.874 254.04H375.376ZM394.1 254.04L398.682 232.159H414.879L414.12 235.825H402.412L401.329 240.778H412.676L411.917 244.444H400.542L399.246 250.374H411.954L411.195 254.04H394.1ZM419.072 254.04H414.574L419.155 232.159H428.865C430.533 232.159 431.831 232.346 432.761 232.669C433.69 233.01 434.429 233.656 435.01 234.566C435.579 235.476 435.871 236.59 435.871 237.894C435.871 239.753 435.314 241.294 434.196 242.5C433.078 243.713 431.402 244.464 429.142 244.745C429.711 245.257 430.26 245.942 430.771 246.796C431.776 248.502 432.897 250.926 434.131 254.049H429.3C428.921 252.816 428.151 250.899 427.023 248.286C426.397 246.883 425.745 245.922 425.042 245.435C424.606 245.15 423.866 245 422.802 245H420.97L419.072 254.04ZM421.645 241.727H424.033C426.45 241.727 428.059 241.538 428.846 241.292C429.642 241.008 430.271 240.552 430.707 239.927C431.161 239.301 431.364 238.653 431.364 237.978C431.364 237.182 431.046 236.575 430.401 236.177C430.003 235.931 429.146 235.816 427.819 235.816H422.867L421.645 241.727ZM441.138 254.04H436.639L441.221 232.159H450.94C452.608 232.159 453.906 232.346 454.836 232.669C455.765 233.01 456.502 233.656 457.085 234.566C457.654 235.476 457.937 236.59 457.937 237.894C457.937 239.753 457.389 241.294 456.271 242.5C455.153 243.713 453.477 244.464 451.217 244.745C451.786 245.257 452.335 245.942 452.846 246.796C453.851 248.502 454.972 250.926 456.206 254.049H451.375C450.977 252.816 450.22 250.899 449.088 248.286C448.463 246.883 447.811 245.922 447.108 245.435C446.672 245.15 445.941 245 444.877 245H443.035L441.138 254.04ZM443.72 241.727H446.099C448.518 241.727 450.123 241.538 450.912 241.292C451.708 241.008 452.336 240.552 452.772 239.927C453.227 239.301 453.439 238.653 453.439 237.978C453.439 237.182 453.111 236.575 452.467 236.177C452.069 235.931 451.215 235.816 449.884 235.816H444.933L443.72 241.727ZM460.029 245.453C460.029 244.164 460.214 242.792 460.612 241.357C461.124 239.431 461.902 237.769 462.935 236.353C463.978 234.931 465.29 233.817 466.869 232.993C468.461 232.177 470.253 231.761 472.274 231.761C474.985 231.761 477.165 232.593 478.827 234.284C480.495 235.971 481.326 238.205 481.326 240.986C481.326 243.3 480.778 245.537 479.697 247.698C478.617 249.86 477.142 251.52 475.282 252.688C473.425 253.863 471.315 254.433 468.961 254.433C466.925 254.433 465.219 253.978 463.833 253.049C462.449 252.12 461.464 250.972 460.89 249.605C460.321 248.24 460.029 246.852 460.029 245.453ZM464.49 245.453C464.49 246.951 464.95 248.224 465.86 249.235C466.77 250.259 467.976 250.772 469.47 250.772C470.683 250.772 471.844 250.374 472.959 249.559C474.077 248.763 475.002 247.535 475.736 245.902C476.456 244.272 476.837 242.688 476.837 241.139C476.837 239.414 476.359 238.055 475.449 237.071C474.52 236.085 473.348 235.613 471.913 235.613C469.718 235.613 467.934 236.635 466.554 238.691C465.17 240.75 464.49 242.996 464.49 245.453ZM483.057 247.083L487.343 246.856C487.343 248.221 487.629 249.138 488.046 249.61C488.709 250.387 489.919 250.767 491.683 250.767C493.162 250.767 494.221 250.502 494.877 249.971C495.54 249.44 495.867 248.813 495.867 248.055C495.867 247.41 495.602 246.862 495.053 246.407C494.673 246.084 493.63 245.535 491.943 244.814C490.256 244.075 489.01 243.465 488.231 242.972C487.454 242.479 486.825 241.835 486.389 241.047C485.934 240.25 485.723 239.339 485.723 238.283C485.723 236.425 486.391 234.901 487.731 233.682C489.058 232.469 490.993 231.863 493.525 231.863C496.09 231.863 498.07 232.469 499.477 233.664C500.88 234.877 501.673 236.478 501.809 238.478L497.496 238.667C497.307 237.625 497.002 236.826 496.358 236.261C495.713 235.711 494.768 235.427 493.498 235.427C492.247 235.427 491.363 235.653 490.832 236.089C490.301 236.525 490.036 237.078 490.036 237.76C490.036 238.386 490.284 238.917 490.758 239.316C491.251 239.733 492.337 240.298 493.997 241.037C496.513 242.118 498.111 243.01 498.801 243.685C499.825 244.69 500.328 245.962 500.328 247.532C500.328 249.469 499.578 251.118 498.042 252.489C496.507 253.854 494.389 254.544 491.665 254.544C489.788 254.544 488.147 254.225 486.769 253.6C485.385 252.974 484.422 252.084 483.853 250.971C483.284 249.852 483.019 248.539 483.057 247.083ZM504.179 245.546C504.179 244.257 504.364 242.889 504.762 241.454C505.274 239.528 506.054 237.862 507.085 236.446C508.128 235.024 509.44 233.915 511.019 233.09C512.592 232.275 514.403 231.854 516.424 231.854C519.133 231.854 521.315 232.69 522.977 234.381C524.645 236.069 525.476 238.298 525.476 241.079C525.476 243.392 524.928 245.629 523.847 247.791C522.767 249.952 521.292 251.617 519.432 252.785C517.575 253.961 515.465 254.53 513.111 254.53C511.073 254.53 509.37 254.075 507.983 253.146C506.599 252.217 505.616 251.069 505.04 249.702C504.471 248.337 504.179 246.945 504.179 245.546ZM508.64 245.546C508.64 247.044 509.1 248.322 510.01 249.332C510.92 250.356 512.128 250.864 513.62 250.864C514.833 250.864 515.994 250.467 517.109 249.652C518.227 248.855 519.152 247.632 519.886 245.999C520.606 244.369 520.987 242.781 520.987 241.232C520.987 239.507 520.518 238.152 519.608 237.168C518.679 236.182 517.496 235.705 516.063 235.705C513.868 235.705 512.082 236.728 510.704 238.783C509.32 240.842 508.64 243.089 508.64 245.546ZM527.216 247.18L531.492 246.953C531.492 248.318 531.779 249.23 532.196 249.702C532.859 250.48 534.069 250.86 535.833 250.86C537.312 250.86 538.38 250.594 539.036 250.063C539.699 249.533 540.017 248.906 540.017 248.147C540.017 247.503 539.752 246.954 539.203 246.499C538.823 246.177 537.782 245.627 536.093 244.907C534.406 244.168 533.158 243.562 532.381 243.069C531.604 242.576 530.975 241.933 530.539 241.144C530.084 240.348 529.882 239.437 529.882 238.381C529.882 236.522 530.541 234.994 531.881 233.775C533.208 232.562 535.145 231.956 537.675 231.956C540.24 231.956 542.222 232.562 543.627 233.756C545.029 234.97 545.823 236.57 545.959 238.57L541.646 238.76C541.456 237.717 541.152 236.923 540.508 236.358C539.863 235.808 538.918 235.525 537.648 235.525C536.396 235.525 535.513 235.75 534.982 236.186C534.451 236.623 534.186 237.17 534.186 237.853C534.186 238.478 534.434 239.01 534.908 239.408C535.401 239.825 536.485 240.395 538.147 241.135C540.663 242.215 542.263 243.107 542.951 243.782C543.975 244.787 544.478 246.059 544.478 247.629C544.478 249.566 543.726 251.211 542.192 252.582C540.657 253.947 538.539 254.641 535.815 254.641C533.938 254.641 532.299 254.318 530.919 253.692C529.535 253.067 528.574 252.176 528.003 251.063C527.434 249.945 527.178 248.636 527.216 247.18ZM556.085 247.18L560.37 246.953C560.37 248.318 560.667 249.23 561.065 249.702C561.728 250.48 562.948 250.86 564.711 250.86C566.19 250.86 567.249 250.594 567.905 250.063C568.568 249.533 568.886 248.906 568.886 248.147C568.886 247.503 568.62 246.954 568.09 246.499C567.711 246.177 566.676 245.627 564.989 244.907C563.302 244.168 562.047 243.562 561.268 243.069C560.491 242.576 559.872 241.933 559.436 241.144C558.981 240.348 558.769 239.437 558.769 238.381C558.769 236.522 559.428 234.994 560.768 233.775C562.095 232.562 564.03 231.956 566.562 231.956C569.127 231.956 571.117 232.562 572.523 233.756C573.926 234.97 574.712 236.57 574.846 238.57L570.533 238.76C570.344 237.717 570.039 236.923 569.395 236.358C568.75 235.808 567.805 235.525 566.535 235.525C565.303 235.525 564.409 235.75 563.878 236.186C563.348 236.623 563.082 237.17 563.082 237.853C563.082 238.478 563.33 239.01 563.804 239.408C564.297 239.825 565.374 240.395 567.035 241.135C569.55 242.215 571.148 243.107 571.838 243.782C572.862 244.787 573.375 246.059 573.375 247.629C573.375 249.566 572.615 251.211 571.079 252.582C569.544 253.947 567.426 254.641 564.702 254.641C562.826 254.641 561.193 254.318 559.815 253.692C558.431 253.067 557.461 252.176 556.89 251.063C556.322 249.945 556.047 248.636 556.085 247.18ZM576.744 250.1H580.992L580.178 254.229H575.929L576.744 250.1ZM598.634 249.402H589.961L587.314 254.234H582.649L594.996 232.349H600.087L603.623 254.234H599.356L598.634 249.402ZM598.106 245.736L596.82 236.932L591.988 245.736H598.106ZM607.306 250.105H611.555L610.74 254.234H606.492L607.306 250.105ZM623.374 254.234L627.956 232.349H633.861C635.51 232.349 636.568 232.349 637.027 232.349C637.936 232.349 638.746 232.616 639.452 232.9C640.172 233.184 640.823 233.564 641.405 234.076C641.992 234.588 642.496 235.174 642.913 235.895C643.349 236.596 643.676 237.411 643.904 238.334C644.131 239.263 644.246 240.267 644.246 241.361C644.246 243.72 643.786 245.808 642.895 247.638C641.985 249.458 640.859 250.909 639.498 251.984C638.436 252.819 637.102 253.447 635.444 253.827C634.515 254.054 633.057 254.146 631.112 254.146H623.384L623.374 254.234ZM628.604 250.716H630.899C632.567 250.716 633.757 250.529 634.5 250.415C635.239 250.207 635.929 249.826 636.555 249.277C637.445 248.461 638.182 247.398 638.804 246.05C639.41 244.704 639.711 243.122 639.711 241.297C639.711 239.742 639.464 238.575 638.952 237.788C638.44 237.011 637.831 236.503 637.073 236.237C636.561 236.048 635.634 235.969 634.296 235.969H631.677L628.585 250.73L628.604 250.716ZM645.412 254.234L649.994 232.349H666.191L665.432 236.015H653.724L652.641 240.968H663.989L663.23 244.634H651.845L650.558 250.568H663.267L662.508 254.234H645.412ZM690.118 246.374L694.634 247.059C693.743 249.511 692.423 251.386 690.654 252.679C688.892 253.968 686.815 254.623 684.444 254.623C681.777 254.623 679.688 253.828 678.187 252.207C676.689 250.595 675.929 248.244 675.929 245.171C675.929 242.68 676.442 240.405 677.446 238.334C678.451 236.27 679.857 234.684 681.649 233.59C683.43 232.49 685.376 231.937 687.48 231.937C689.847 231.937 691.766 232.585 693.228 233.844C694.687 235.115 695.539 236.842 695.801 239.038L691.487 239.454C691.241 238.184 690.791 237.256 690.108 236.682C689.426 236.113 688.532 235.807 687.396 235.807C686.164 235.807 685.004 236.187 683.925 236.946C682.845 237.704 681.991 238.892 681.352 240.505C680.708 242.117 680.39 243.726 680.39 245.338C680.39 247.101 680.805 248.456 681.639 249.415C682.473 250.363 683.515 250.855 684.758 250.855C685.915 250.855 686.981 250.475 687.943 249.716C688.909 248.958 689.644 247.855 690.118 246.374ZM697.3 250.11H701.548L700.734 254.234H696.486L697.3 250.11ZM715.812 254.234H711.008L707.102 232.354H711.563L714.331 248.916L723.392 232.354H727.853L715.812 254.234ZM723.364 250.11H727.613L726.798 254.234H722.55L723.364 250.11Z" fill="white"/>
<path d="M307.699 138.867L300.026 165.941C305.421 165.941 308.926 165.657 310.531 165.316C313.185 164.766 315.566 163.648 317.714 161.941C319.861 160.216 321.645 157.839 323.091 154.79H325.146L317.047 183.164H314.881C315.241 181.325 315.409 179.865 315.409 178.781C315.409 176.597 314.958 174.846 314.067 173.546C313.157 172.238 312.008 171.358 310.596 170.87C309.174 170.396 305.275 170.092 298.906 169.94L292.538 192.436L291.242 196.944C291.053 197.835 291.001 198.69 291.001 199.545C291.001 200.797 291.231 201.767 291.705 202.471C292.179 203.191 292.918 203.762 293.926 204.16C294.912 204.577 296.828 204.784 299.628 204.822L299.193 206.664H264.002L264.437 204.822C267.831 204.822 270.315 204.178 271.87 202.873C273.443 201.584 274.828 198.721 276.09 194.333L288.669 150.296C289.996 145.652 290.707 142.675 290.779 141.376C290.779 140.125 290.121 139.084 289.002 138.219C287.865 137.347 285.388 136.853 281.542 136.701L281.986 134.863H341.843L337.095 153.813H335.262C335.054 149.86 334.426 146.92 333.384 144.986C332.36 143.054 330.636 141.557 328.274 140.492C325.894 139.411 322.106 138.863 316.89 138.863H307.717L307.699 138.867ZM367.685 157.6L356.44 193.505C355.89 195.154 355.625 196.298 355.625 196.949C355.625 197.252 355.816 197.519 355.986 197.689C356.252 197.955 356.588 198.106 356.967 198.106C358.56 198.106 360.691 196.667 363.344 193.778C367.115 189.592 371.107 183.557 375.275 175.707L380.236 159.553L393.527 159.118L383.096 194.208C382.224 197.185 381.791 198.882 381.791 199.314C381.791 199.579 381.981 199.862 382.189 200.166C382.455 200.45 382.738 200.601 383.022 200.601C383.515 200.601 384.011 200.411 384.466 199.994C385.755 199.009 387.438 196.996 389.529 194L391.371 195.236C386.446 203.811 381.028 208.085 375.109 208.085C372.908 208.085 371.18 207.537 369.935 206.438C368.665 205.338 368.037 203.893 368.037 202.124C368.037 200.211 368.488 197.792 369.398 194.847L372.091 185.872C367.542 192.534 364.245 197.026 362.169 199.356C359.028 202.84 356.376 205.174 354.209 206.327C352.059 207.502 350.003 208.067 348.054 208.067C346.196 208.067 344.583 207.388 343.232 206.03C341.886 204.665 341.214 202.944 341.214 200.851C341.214 199.05 341.728 196.623 342.695 193.607L349.35 172.472C350.335 169.006 350.831 166.695 350.831 165.487C350.831 164.956 350.642 164.501 350.414 164.103C350.13 163.686 349.715 163.382 349.128 163.136C348.578 162.908 347.571 162.793 346.147 162.793L346.582 160.738L364.501 157.595H367.658L367.685 157.6ZM425.663 157.6L418.897 180.308C423.572 173.667 427.066 169.134 429.375 166.7C432.787 163.181 435.717 160.781 438.186 159.516C440.656 158.227 442.967 157.6 445.138 157.6C447.084 157.6 448.746 158.343 450.136 159.845C451.519 161.323 452.209 163.274 452.209 165.672C452.209 167.604 451.758 169.966 450.867 172.745L443.647 194.963C443.022 196.895 442.713 198.16 442.713 198.754C442.713 199.114 442.902 199.418 443.111 199.703C443.376 199.968 443.659 200.119 443.944 200.119C444.285 200.119 444.666 199.93 445.045 199.703C446.296 198.698 447.54 197.246 448.821 195.407C449.125 194.914 449.647 194.195 450.349 193.223L452.413 194.417C447.164 203.007 441.654 207.303 435.863 207.303C433.663 207.303 431.924 206.732 430.68 205.614C429.429 204.476 428.81 203.071 428.81 201.374C428.81 199.895 429.261 197.671 430.189 194.745L437.372 172.111C437.884 170.632 438.131 169.53 438.131 168.824C438.131 168.445 437.945 168.105 437.603 167.801C437.262 167.498 436.846 167.348 436.391 167.348C434.931 167.348 433.163 168.256 431.087 170.107C425.78 174.765 420.648 181.729 415.686 190.954L411.16 206.655H397.517L407.68 172.791C408.627 169.434 409.176 167.054 409.309 165.631C409.309 165.043 409.121 164.511 408.836 164.112C408.533 163.695 408.02 163.372 407.319 163.145C406.617 162.917 405.298 162.807 403.366 162.807L403.801 160.752L422.313 157.604L425.663 157.6ZM516.305 133.234L498.377 192.38C497.22 196.081 496.664 198.321 496.664 199.096C496.664 199.476 496.853 199.817 497.081 200.082C497.365 200.367 497.656 200.517 497.979 200.517C498.566 200.517 499.266 200.212 500.033 199.606C501.341 198.62 502.902 196.739 504.763 193.977L506.707 194.981C501.708 203.701 496.223 208.048 490.232 208.048C488.099 208.048 486.463 207.501 485.326 206.382C484.17 205.282 483.595 203.876 483.595 202.161C483.595 200.511 484.074 198.15 484.965 195.097L486.631 189.705C482.211 197.482 478.386 202.645 475.135 205.206C472.665 207.102 470.261 208.039 467.916 208.039C465.281 208.039 463.038 206.961 461.215 204.813C459.395 202.663 458.494 199.54 458.494 195.407C458.494 190.156 459.668 184.99 462.011 179.882C464.359 174.775 467.087 170.495 470.156 167.084C473.24 163.673 476.175 161.218 478.958 159.757C481.754 158.297 484.517 157.567 487.205 157.567C488.589 157.567 489.838 157.854 490.926 158.442C492.006 159.03 493.259 160.128 494.647 161.729L498.738 148.625C499.78 145.263 500.33 142.865 500.33 141.404C500.33 140.532 499.976 139.789 499.274 139.163C498.554 138.557 497.607 138.238 496.424 138.238C495.874 138.238 495.166 138.238 494.341 138.427L494.776 136.368L513.001 133.229H516.324L516.305 133.234ZM492.434 166.806C492.434 164.658 492.02 163.087 491.148 162.113C490.276 161.127 489.27 160.636 488.131 160.636C486.974 160.636 485.736 161.202 484.419 162.358C481.856 164.616 479.205 169.146 476.403 175.953C473.625 182.774 472.238 188.497 472.238 193.135C472.238 194.841 472.539 196.077 473.145 196.889C473.752 197.704 474.431 198.101 475.182 198.101C476.452 198.101 477.713 197.554 478.958 196.416C482.006 193.745 485.022 189.146 487.982 182.627C490.945 176.096 492.434 170.812 492.434 166.806ZM535.029 133.234C537.213 133.234 539.066 133.99 540.583 135.507C542.08 137.042 542.841 138.864 542.841 141.029C542.841 143.177 542.081 145.018 540.546 146.556C539.029 148.072 537.177 148.828 535.029 148.828C532.901 148.828 531.061 148.07 529.541 146.556C528.005 145.02 527.245 143.177 527.245 141.029C527.245 138.864 528.004 137.041 529.504 135.507C531.02 133.99 532.865 133.234 535.029 133.234ZM539.324 157.6L527.643 194.838C526.999 196.967 526.681 198.374 526.681 199.022C526.681 199.439 526.868 199.82 527.153 200.161C527.456 200.502 527.774 200.693 528.134 200.693C528.722 200.693 529.314 200.429 529.902 199.86C531.456 198.514 533.329 196.032 535.511 192.477L537.353 193.579C531.975 203.235 526.274 208.067 520.229 208.067C517.921 208.067 516.078 207.443 514.704 206.155C513.339 204.904 512.64 203.267 512.64 201.318C512.64 200.029 512.967 198.356 513.63 196.356L521.72 171.088C522.497 168.669 522.895 166.827 522.895 165.598C522.895 164.821 522.533 164.14 521.812 163.543C521.111 162.955 520.123 162.631 518.887 162.631C518.319 162.631 517.634 162.648 516.842 162.631L517.49 160.47L536.038 157.54H539.306L539.324 157.6ZM569.877 157.6L562.926 180.359C567.472 173.375 570.793 168.664 572.885 166.228C575.956 162.656 578.5 160.325 580.484 159.238C582.488 158.139 584.489 157.59 586.51 157.59C588.805 157.59 590.46 158.291 591.49 159.706C592.494 161.109 593.026 162.665 593.026 164.362C593.026 166.069 592.531 168.604 591.545 171.907L589.092 180.355C594 173.298 597.54 168.605 599.709 166.279C603.032 162.671 605.917 160.249 608.372 158.965C610.078 158.055 611.883 157.6 613.814 157.6C615.82 157.6 617.508 158.285 618.84 159.683C620.167 161.067 620.858 162.894 620.858 165.112C620.858 167.332 620.265 170.219 619.109 173.74L612.685 193.125C611.699 195.994 611.241 197.852 611.241 198.684C611.241 198.95 611.432 199.235 611.584 199.462C611.811 199.709 612.077 199.823 612.361 199.823C612.74 199.823 613.086 199.633 613.37 199.462C614.64 198.457 615.989 196.99 617.415 195.037C617.737 194.62 618.205 193.994 618.831 193.125L620.673 194.264C618.239 198.74 615.544 202.01 612.602 204.086C609.679 206.162 606.975 207.206 604.485 207.206C602.32 207.206 600.582 206.617 599.264 205.461C597.937 204.285 597.302 202.897 597.302 201.327C597.302 199.811 597.789 197.501 598.755 194.412L605.364 173.675C606.255 170.803 606.697 169.019 606.697 168.315C606.697 168.069 606.498 167.821 606.271 167.593C605.987 167.366 605.723 167.251 605.419 167.251C604.889 167.251 604.395 167.442 603.864 167.575C603.087 167.916 601.921 168.824 600.347 170.333C598.755 171.812 596.485 174.489 593.526 178.332C590.55 182.177 588.55 185.17 587.519 187.339C586.495 189.487 585.464 192.285 584.437 195.731L581.114 206.669H567.702L577.884 172.12C578.452 170.243 578.717 168.958 578.717 168.255C578.717 168.009 578.526 167.764 578.374 167.575C578.147 167.366 577.899 167.251 577.652 167.251C576.344 167.251 574.275 168.957 571.46 172.412C567.165 177.72 563.255 184.129 559.733 191.602L555.235 206.674H541.61L551.884 172.685C552.889 169.346 553.402 166.963 553.402 165.557C553.402 164.988 553.205 164.515 552.939 164.117C552.636 163.7 552.15 163.396 551.486 163.168C550.804 162.941 549.503 162.83 547.571 162.83L548.006 160.77L566.592 157.627H569.859L569.877 157.6ZM641.591 186.733C641.288 189.027 641.119 190.923 641.119 192.403C641.119 195.056 641.892 197.167 643.424 198.754C644.959 200.346 647.019 201.138 649.597 201.138C652.069 201.138 654.539 200.626 657.03 199.545C659.522 198.484 662.41 196.641 665.693 193.986L667.322 195.315C663.262 199.922 659.33 203.183 655.484 205.132C651.641 207.081 647.405 208.058 642.748 208.058C636.864 208.058 632.786 206.656 630.53 203.836C628.273 201.021 627.152 197.75 627.152 194.051C627.152 188.274 628.818 182.503 632.206 176.726C635.563 170.947 640.148 166.308 645.96 162.826C651.751 159.343 657.576 157.59 663.425 157.59C666.386 157.59 668.621 158.291 670.136 159.706C671.652 161.109 672.413 162.883 672.413 165.029C672.413 167.609 671.675 170.099 670.191 172.518C668.134 175.842 665.555 178.491 662.435 180.512C659.33 182.552 655.848 184.083 652.004 185.131C649.405 185.833 645.941 186.373 641.591 186.733ZM642.081 184.025C645.205 183.57 647.622 182.942 649.357 182.146C651.081 181.369 652.767 180.108 654.41 178.36C656.059 176.634 657.494 174.441 658.705 171.787C659.918 169.136 660.51 166.648 660.51 164.339C660.51 163.353 660.245 162.592 659.677 162.025C659.127 161.475 658.419 161.173 657.576 161.173C655.851 161.173 653.957 162.348 651.828 164.691C647.93 168.985 644.68 175.437 642.081 184.025ZM677.707 160.743L696.172 157.6C699.51 162.853 701.875 168.628 703.243 174.93C706.712 169.82 709.307 166.245 711.074 164.205C713.436 161.462 715.39 159.675 716.923 158.845C718.459 158.011 720.082 157.595 721.82 157.595C723.749 157.595 725.246 158.126 726.29 159.187C727.314 160.249 727.845 161.696 727.845 163.501C727.845 165.189 727.314 166.587 726.29 167.672C725.248 168.753 723.953 169.301 722.403 169.301C721.285 169.301 719.979 169.094 718.516 168.658C717.056 168.222 716.048 168.014 715.47 168.014C713.992 168.014 712.584 168.545 711.25 169.607C709.411 171.048 707.147 174.14 704.475 178.869C707.452 189.448 709.832 195.905 711.62 198.231C712.681 199.596 713.749 200.291 714.832 200.291C715.761 200.291 716.562 200.043 717.22 199.532C718.224 198.716 719.778 196.703 721.894 193.472L723.847 194.625C720.763 199.824 717.727 203.489 714.785 205.618C712.53 207.268 710.305 208.09 708.14 208.09C705.88 208.09 704.009 207.581 702.531 206.576C701.033 205.572 699.698 203.925 698.542 201.651C697.385 199.356 696.019 195.712 694.432 190.695C690.296 195.964 687.049 199.809 684.704 202.23C682.357 204.647 680.409 206.23 678.836 206.97C677.282 207.709 675.623 208.09 673.856 208.09C672.018 208.09 670.553 207.56 669.488 206.498C668.407 205.436 667.859 204.063 667.859 202.364C667.859 200.563 668.443 199.075 669.599 197.921C670.755 196.745 672.256 196.176 674.042 196.176C675.008 196.176 676.081 196.481 677.272 197.088C679.035 197.998 680.319 198.453 681.094 198.453C682.118 198.453 683.041 198.246 683.853 197.81C684.895 197.279 686.254 196.12 687.879 194.324C688.865 193.206 690.695 190.841 693.349 187.233C689.937 174.725 687.283 167.232 685.371 164.779C684.157 163.186 682.628 162.414 680.789 162.414C679.841 162.414 678.652 162.603 677.263 162.83L677.707 160.775V160.743Z" fill="white"/>
<path fill-rule="evenodd" clip-rule="evenodd" d="M14.6543 14.867L86.6595 1.33887L70.7494 207.049L0.728516 191.131L14.6543 14.867Z" fill="white"/>
<path fill-rule="evenodd" clip-rule="evenodd" d="M86.6571 1.339L70.7471 207.047C72.7563 207.842 80.3987 209.295 80.7072 205.999L99.5269 3.61547C97.0869 -1.00974 89.9336 0.7942 86.6599 1.33622L86.6571 1.339Z" fill="white"/>
<path fill-rule="evenodd" clip-rule="evenodd" d="M103.983 47.2397L168.515 35.9741L154.256 207.218L91.4995 193.968L103.983 47.2397Z" fill="white"/>
<path fill-rule="evenodd" clip-rule="evenodd" d="M168.512 35.9727L154.253 207.216C156.054 207.875 162.904 209.087 163.179 206.344L180.045 37.8684C177.858 34.0186 171.447 35.5196 168.512 35.9699V35.9727Z" fill="white"/>
<path fill-rule="evenodd" clip-rule="evenodd" d="M186.424 71.0852L253.63 61.4901L238.778 207.345L173.426 196.06L186.424 71.0852Z" fill="white"/>
<path fill-rule="evenodd" clip-rule="evenodd" d="M253.628 61.4907L238.78 207.343C240.653 207.907 247.789 208.941 248.076 206.604L265.639 63.1084C263.363 59.8257 256.688 61.1071 253.628 61.4907Z" fill="white"/>
</svg>
