<svg width="882" height="337" viewBox="0 0 882 337" fill="none" xmlns="http://www.w3.org/2000/svg">
<path d="M29.2876 334.812C28.9219 333.858 30.4858 328.945 32.7635 323.893C35.041 318.842 37.9707 312.33 39.2735 309.424C40.5764 306.518 47.9006 290.325 55.5493 273.441C63.1981 256.558 69.8354 241.547 70.2995 240.085C71.1303 237.467 70.6136 237.426 36.1304 237.426C15.5936 237.426 0.799758 236.911 0.347698 236.179C-0.397355 234.974 9.21082 212.045 11.8653 208.694C12.8935 207.396 37.4368 207.042 126.601 207.042C223.975 207.042 240.028 207.31 240.028 208.928C240.028 209.965 237.38 216.653 234.144 223.79L228.26 236.766L189.866 237.116L151.472 237.467L149.504 241.74C148.421 244.09 138.41 266.226 127.255 290.93L106.974 335.845L68.4636 336.195C37.6467 336.476 29.82 336.195 29.2876 334.812ZM210.116 334.494C209.382 332.58 216.489 316.112 250.713 240.43L265.784 207.105L370.458 207.073C457.277 207.048 475.131 207.345 475.131 208.819C475.131 209.797 472.564 216.484 469.427 223.68L463.723 236.765L396.356 237.108L328.989 237.45L324.789 247.016C322.48 252.277 320.592 257.028 320.594 257.573C320.594 258.117 347.011 258.563 379.295 258.563C411.817 258.563 438.314 259.083 438.713 259.729C439.11 260.371 437.213 266.007 434.498 272.255L429.563 283.613L369.215 283.638C322.408 283.657 308.626 284.034 307.797 285.315C307.21 286.223 304.875 291.127 302.609 296.213L298.49 305.461L364.026 306.121L429.563 306.781L429.333 310.084C429.206 311.901 426.685 318.588 423.731 324.946L418.359 336.505H314.623C222.959 336.505 210.798 336.271 210.116 334.494ZM465.103 334.684C464.718 333.681 466.477 328.776 469.01 323.785C473.941 314.067 502.645 255.137 517.033 225.194L525.768 207.016L586.584 207.36L647.401 207.703L656.646 248.325C661.731 270.668 666.211 288.932 666.6 288.913C666.99 288.894 669.74 286.664 672.712 283.959C675.684 281.254 682.775 274.879 688.47 269.793C694.164 264.707 701.647 257.985 705.097 254.855C708.548 251.725 721.963 239.707 734.907 228.147L758.444 207.129L819.453 207.087C857.638 207.06 880.759 207.524 881.256 208.329C881.693 209.036 880.057 213.941 877.62 219.228C875.183 224.515 871.739 232.065 869.969 236.006C868.198 239.946 857.22 264.022 845.574 289.508L824.399 335.846H785.477C750.052 335.846 746.571 335.649 746.719 333.656C746.809 332.452 752.688 321.156 759.785 308.556C771.691 287.415 785.39 262.996 795.174 245.471C797.37 241.539 798.325 238.831 797.296 239.454C795.203 240.72 781.6 251.688 719.848 301.901L677.291 336.506H646.185C615.193 336.506 615.075 336.49 613.782 333.534C613.068 331.899 605.903 309.755 597.859 284.325C589.815 258.895 582.797 237.635 582.263 237.082C581.73 236.529 573.951 255.552 564.978 279.356C556.005 303.159 547.308 325.756 545.651 329.571L542.637 336.506H504.219C472.78 336.506 465.675 336.175 465.103 334.684Z" fill="white"/>
<path d="M589.911 9.94891C603.543 9.94891 614.594 7.84135 614.594 5.24155C614.594 2.64174 603.543 0.53418 589.911 0.53418C576.279 0.53418 565.228 2.64174 565.228 5.24155C565.228 7.84135 576.279 9.94891 589.911 9.94891Z" fill="white"/>
<path d="M661.867 9.94891C675.499 9.94891 686.55 7.84135 686.55 5.24155C686.55 2.64174 675.499 0.53418 661.867 0.53418C648.235 0.53418 637.185 2.64174 637.185 5.24155C637.185 7.84135 648.235 9.94891 661.867 9.94891Z" fill="white"/>
<path d="M740.102 9.94891C753.734 9.94891 764.785 7.84135 764.785 5.24155C764.785 2.64174 753.734 0.53418 740.102 0.53418C726.47 0.53418 715.419 2.64174 715.419 5.24155C715.419 7.84135 726.47 9.94891 740.102 9.94891Z" fill="white"/>
<path d="M741.566 31.2883C760.743 31.2883 776.29 28.4783 776.29 25.0118C776.29 21.5454 760.743 18.7354 741.566 18.7354C722.389 18.7354 706.843 21.5454 706.843 25.0118C706.843 28.4783 722.389 31.2883 741.566 31.2883Z" fill="white"/>
<path d="M641.58 31.2883C660.758 31.2883 676.304 28.4783 676.304 25.0118C676.304 21.5454 660.758 18.7354 641.58 18.7354C622.403 18.7354 606.857 21.5454 606.857 25.0118C606.857 28.4783 622.403 31.2883 641.58 31.2883Z" fill="white"/>
<path d="M544.101 31.2883C563.278 31.2883 578.824 28.4783 578.824 25.0118C578.824 21.5454 563.278 18.7354 544.101 18.7354C524.924 18.7354 509.377 21.5454 509.377 25.0118C509.377 28.4783 524.924 31.2883 544.101 31.2883Z" fill="white"/>
<path d="M482.813 55.9748C510.193 55.9748 532.388 52.181 532.388 47.5014C532.388 42.8217 510.193 39.028 482.813 39.028C455.434 39.028 433.238 42.8217 433.238 47.5014C433.238 52.181 455.434 55.9748 482.813 55.9748Z" fill="white"/>
<path d="M615.433 55.9748C642.812 55.9748 665.008 52.181 665.008 47.5014C665.008 42.8217 642.812 39.028 615.433 39.028C588.053 39.028 565.858 42.8217 565.858 47.5014C565.858 52.181 588.053 55.9748 615.433 55.9748Z" fill="white"/>
<path d="M743.658 55.9748C771.037 55.9748 793.233 52.181 793.233 47.5014C793.233 42.8217 771.037 39.028 743.658 39.028C716.278 39.028 694.083 42.8217 694.083 47.5014C694.083 52.181 716.278 55.9748 743.658 55.9748Z" fill="white"/>
<path d="M745.959 91.751C783.505 91.751 813.942 86.412 813.942 79.8258C813.942 73.2396 783.505 67.9006 745.959 67.9006C708.414 67.9006 677.977 73.2396 677.977 79.8258C677.977 86.412 708.414 91.751 745.959 91.751Z" fill="white"/>
<path d="M748.678 135.467C797.892 135.467 837.788 128.163 837.788 119.153C837.788 110.143 797.892 102.839 748.678 102.839C699.464 102.839 659.568 110.143 659.568 119.153C659.568 128.163 699.464 135.467 748.678 135.467Z" fill="white"/>
<path d="M752.863 185.47C821.947 185.47 877.951 176.293 877.951 164.972C877.951 153.651 821.947 144.474 752.863 144.474C683.779 144.474 627.775 153.651 627.775 164.972C627.775 176.293 683.779 185.47 752.863 185.47Z" fill="white"/>
<path d="M451.889 185.47C520.973 185.47 576.976 176.293 576.976 164.972C576.976 153.651 520.973 144.474 451.889 144.474C382.804 144.474 326.801 153.651 326.801 164.972C326.801 176.293 382.804 185.47 451.889 185.47Z" fill="white"/>
<path d="M139.384 185.241C208.468 185.241 264.472 176.064 264.472 164.743C264.472 153.422 208.468 144.245 139.384 144.245C70.3 144.245 14.2964 153.422 14.2964 164.743C14.2964 176.064 70.3 185.241 139.384 185.241Z" fill="white"/>
<path d="M520.675 135.467C569.888 135.467 609.784 128.163 609.784 119.153C609.784 110.143 569.888 102.839 520.675 102.839C471.461 102.839 431.565 110.143 431.565 119.153C431.565 128.163 471.461 135.467 520.675 135.467Z" fill="white"/>
<path d="M287.652 135.467C336.866 135.467 376.762 128.163 376.762 119.153C376.762 110.143 336.866 102.839 287.652 102.839C238.438 102.839 198.542 110.143 198.542 119.153C198.542 128.163 238.438 135.467 287.652 135.467Z" fill="white"/>
<path d="M576.974 92.1578C614.52 92.1578 644.957 86.8188 644.957 80.2327C644.957 73.6465 614.52 68.3075 576.974 68.3075C539.429 68.3075 508.992 73.6465 508.992 80.2327C508.992 86.8188 539.429 92.1578 576.974 92.1578Z" fill="white"/>
<path d="M395.932 91.3325C433.478 91.3325 463.914 85.9935 463.914 79.4074C463.914 72.8212 433.478 67.4822 395.932 67.4822C358.386 67.4822 327.95 72.8212 327.95 79.4074C327.95 85.9935 358.386 91.3325 395.932 91.3325Z" fill="white"/>
</svg>
