<svg width="751" height="407" viewBox="0 0 751 407" fill="none" xmlns="http://www.w3.org/2000/svg">
<path d="M417.112 264.206C414.657 257.083 413.862 255.216 406.913 255.216H398.339C395.089 255.216 394.881 255.561 394.881 258.673V277.035L402.971 276.793C406.636 276.793 408.261 276.378 409.333 275.341C410.591 273.692 411.272 271.675 411.269 269.601H413.24C413.24 273.058 412.756 275.479 412.756 278.764C412.756 282.049 413.24 284.712 413.24 287.962H411.269C411.338 285.761 410.655 283.602 409.333 281.842C408.365 280.873 406.636 280.458 403.041 280.389L394.881 280.147V293.979C394.881 298.059 394.881 299.684 396.264 300.895C397.647 302.105 398.788 302.451 402.868 302.935V305.044C399.203 305.044 395.469 304.629 391.632 304.629C387.794 304.629 384.026 305.044 380.361 305.044V302.935C384.026 302.451 385.236 302.105 386.48 300.895C387.725 299.684 387.932 298.025 387.932 293.979V262.858C387.932 258.535 387.69 256.875 386.722 255.665C385.033 254.346 382.913 253.705 380.776 253.867V251.758C384.44 251.758 387.69 252.173 391.39 252.173C398.719 252.173 418.46 251.758 418.46 251.758L418.702 263.826L417.112 264.206Z" fill="white"/>
<path d="M448.78 306.219C445.53 306.219 443.49 303.626 443.49 299.546C440.871 302.528 437.558 304.82 433.844 306.219C432.595 306.358 431.33 306.239 430.129 305.869C428.927 305.5 427.814 304.888 426.859 304.071C425.903 303.254 425.124 302.25 424.572 301.121C424.019 299.992 423.704 298.761 423.645 297.505C423.547 295.643 424.106 293.806 425.225 292.315C426.343 290.823 427.95 289.772 429.765 289.345L443.386 284.849V279.939C443.386 273.819 439.929 271.398 435.884 271.398C431.839 271.398 430.733 273.819 430.733 275.478C430.802 276.554 431.27 277.566 432.047 278.314C431.678 279.038 431.12 279.649 430.432 280.081C429.744 280.514 428.952 280.751 428.14 280.769C427.602 280.801 427.063 280.717 426.561 280.521C426.059 280.326 425.605 280.024 425.23 279.636C424.856 279.248 424.57 278.784 424.392 278.275C424.214 277.767 424.148 277.225 424.198 276.689C424.198 273.438 427.656 271.951 431.39 270.568C431.39 270.568 436.852 268.459 439.307 267.629C445.426 267.629 449.679 270.568 449.679 276.689V297.09C449.679 299.961 450.923 301.413 452.306 301.413C453.576 301.332 454.788 300.847 455.763 300.03L456.731 301.586C454.646 304.048 451.755 305.69 448.572 306.219M443.179 287.062L434.847 290.14C433.447 290.415 432.196 291.193 431.33 292.327C430.464 293.46 430.042 294.872 430.145 296.295C430.242 297.803 430.912 299.216 432.018 300.244C433.124 301.273 434.581 301.84 436.092 301.828C438.927 301.828 443.179 297.09 443.179 297.09V287.062Z" fill="white"/>
<path d="M482.66 303.661C480.14 305.395 477.144 306.302 474.086 306.255C472.047 306.29 470.028 305.852 468.186 304.976C466.345 304.101 464.731 302.81 463.472 301.206C460.597 297.475 459.15 292.839 459.392 288.135C459.321 285.225 459.863 282.333 460.983 279.646C462.103 276.959 463.776 274.538 465.892 272.54C469.104 269.54 473.322 267.85 477.716 267.803C485.045 267.803 487.5 271.883 487.5 274.718C487.509 275.332 487.398 275.94 487.171 276.51C486.945 277.08 486.609 277.6 486.182 278.04C485.755 278.48 485.246 278.831 484.683 279.074C484.12 279.317 483.515 279.447 482.902 279.456C481.985 279.456 481.106 279.092 480.457 278.443C479.809 277.795 479.445 276.915 479.445 275.998C479.869 275.736 480.226 275.377 480.484 274.95C480.743 274.523 480.896 274.041 480.931 273.543C480.931 272.747 480.516 270.085 476.437 270.085C472.357 270.085 465.892 274.234 465.892 285.68C465.892 297.126 471.873 300.376 476.748 300.376C478.619 300.428 480.48 300.089 482.212 299.381C483.945 298.672 485.51 297.61 486.809 296.261L488.019 297.679L482.66 303.661Z" fill="white"/>
<path d="M519.863 306.081L519.449 305.666L519.207 299.546C517.167 301.171 511.635 305.839 507.798 306.22C506.026 306.366 504.247 306.055 502.631 305.317C501.015 304.578 499.615 303.436 498.567 302.001C496.657 298.807 495.799 295.093 496.112 291.385V277.346C496.112 273.681 495.144 272.194 491.375 271.779V269.739C494.991 269.534 498.579 268.99 502.093 268.113H502.715C502.473 274.476 502.473 288.861 502.473 288.861C502.238 291.789 502.712 294.731 503.856 297.436C504.547 298.575 505.539 299.5 506.723 300.111C507.906 300.721 509.235 300.992 510.563 300.894C513.771 300.228 516.749 298.738 519.207 296.572V277.346C519.207 273.681 518.239 272.194 514.574 271.779V269.739C518.155 269.531 521.708 268.986 525.188 268.113H525.81C525.568 274.476 525.568 283.847 525.568 288.861V296.295C525.568 300.756 526.709 300.756 531.203 300.376L531.445 302.416C528.61 303.211 522.318 305.251 519.863 306.081Z" fill="white"/>
<path d="M542.3 304.837C538.635 304.837 535.8 305.252 533.346 305.252V303.211C537.978 302.797 539.05 302.001 539.05 297.506V256.011C539.05 251.93 537.84 250.72 533.657 249.89V248.265C537.549 247.189 541.371 245.872 545.1 244.323L545.896 244.738C545.412 248.334 545.412 256.841 545.412 260.921V297.506C545.412 302.001 546.38 302.797 551.116 303.211V305.252C548.661 305.252 545.999 304.837 542.3 304.837Z" fill="white"/>
<path d="M568.92 306.323C561.176 306.323 559.62 301.171 559.689 295.05L560.035 273.023H554.642V271.398C559.126 268.952 562.81 265.267 565.255 260.782H566.465V269.358H577.148V273.023H566.465L566.12 294.635C566.12 299.545 567.745 301.551 571.029 301.551C573.147 301.467 575.192 300.757 576.906 299.511L577.978 301.136C575.389 303.482 572.322 305.24 568.989 306.288" fill="white"/>
<path d="M606.708 306.219C603.424 306.219 601.384 303.626 601.384 299.546C598.78 302.529 595.478 304.822 591.773 306.219C590.523 306.358 589.259 306.239 588.057 305.869C586.856 305.5 585.743 304.888 584.787 304.071C583.831 303.254 583.053 302.25 582.5 301.121C581.947 299.992 581.632 298.761 581.574 297.505C581.469 295.642 582.025 293.801 583.144 292.308C584.264 290.815 585.875 289.766 587.693 289.345L601.315 284.849V279.939C601.315 273.819 597.857 271.398 593.812 271.398C589.767 271.398 588.661 273.819 588.661 275.478C588.73 276.554 589.199 277.566 589.975 278.314C589.606 279.038 589.048 279.649 588.36 280.081C587.673 280.514 586.88 280.751 586.068 280.769C585.529 280.807 584.987 280.727 584.482 280.534C583.977 280.34 583.521 280.038 583.145 279.649C582.769 279.26 582.483 278.793 582.307 278.282C582.131 277.77 582.07 277.227 582.127 276.689C582.127 273.438 585.584 271.951 589.318 270.568C589.318 270.568 594.78 268.459 597.235 267.629C603.354 267.629 607.607 270.568 607.607 276.689V297.09C607.607 299.961 608.851 301.413 610.234 301.413C611.505 301.332 612.716 300.847 613.692 300.03L614.66 301.586C612.574 304.048 609.683 305.69 606.501 306.219M601.107 287.062L592.775 290.14C588.696 291.627 588.039 293.84 588.039 296.295C588.136 297.809 588.811 299.227 589.924 300.256C591.038 301.286 592.504 301.849 594.02 301.828C596.855 301.828 600.934 297.09 600.934 297.09L601.107 287.062Z" fill="white"/>
<path d="M644.255 306.081L643.84 305.666L643.667 299.96C643.667 299.96 637.548 306.219 631.843 306.219C629.696 306.294 627.564 305.833 625.639 304.88C623.714 303.926 622.056 302.509 620.815 300.756C618.31 297.028 617.095 292.583 617.357 288.1C617.281 282.95 619.005 277.935 622.232 273.922C623.832 271.998 625.827 270.44 628.082 269.354C630.337 268.268 632.799 267.68 635.301 267.629C638.312 267.444 641.29 268.339 643.702 270.153V255.872C643.702 251.791 642.492 250.581 638.308 249.751V248.126C642.201 247.05 646.022 245.733 649.752 244.184L650.478 244.599C650.063 248.299 649.994 256.84 649.994 260.92V296.26C649.994 300.375 651.377 300.756 655.456 300.375L655.94 302.415C651.995 303.432 648.106 304.655 644.289 306.081M643.702 279.939C643.702 274.233 641.247 270.568 635.543 270.568C629.838 270.568 624.445 275.478 624.445 286.059C624.445 296.641 629.769 301.413 634.816 301.413C638.186 301.173 641.326 299.621 643.563 297.09L643.702 279.939Z" fill="white"/>
<path d="M703.756 306.081L703.341 305.666L703.169 299.96C703.169 299.96 697.049 306.219 691.345 306.219C689.198 306.294 687.066 305.833 685.141 304.88C683.216 303.926 681.558 302.509 680.316 300.756C677.811 297.028 676.597 292.583 676.859 288.1C676.782 282.95 678.506 277.935 681.733 273.922C683.334 271.998 685.329 270.44 687.583 269.354C689.838 268.268 692.3 267.68 694.802 267.629C697.813 267.444 700.792 268.339 703.203 270.153V255.872C703.203 251.791 701.993 250.581 697.81 249.751V248.126C701.702 247.05 705.524 245.733 709.253 244.184L709.979 244.599C709.565 248.299 709.495 256.84 709.495 260.92V296.26C709.495 300.375 710.878 300.756 714.958 300.375L715.442 302.415C711.497 303.432 707.608 304.655 703.791 306.081M703.203 279.939C703.203 274.233 700.748 270.568 695.044 270.568C689.339 270.568 683.946 275.478 683.946 286.059C683.946 296.641 689.236 301.413 694.318 301.413C697.687 301.173 700.828 299.621 703.065 297.09L703.203 279.939Z" fill="white"/>
<path d="M745.139 303.211C742.211 305.3 738.672 306.358 735.078 306.219C725.294 306.219 719.59 298.335 719.59 287.547C719.59 276.758 727.334 267.629 736.876 267.629C746.418 267.629 749.53 274.545 749.53 281.461C749.53 282.671 749.115 283.328 747.905 283.328L726.297 283.086C726.297 283.086 726.297 284.296 726.297 285.541C726.297 294.497 730.48 300.237 737.81 300.237C739.86 300.299 741.9 299.931 743.8 299.157C745.699 298.383 747.416 297.22 748.838 295.742L750.048 297.125L745.139 303.211ZM735.735 270.326C731.414 270.326 727.161 273.784 726.262 281.184L740.541 280.769C741.786 280.769 742.2 280.354 742.27 279.144C742.27 273.819 739.988 270.326 735.735 270.326Z" fill="white"/>
<path d="M391.425 386.027C387.726 386.027 384.061 386.442 380.396 386.442V384.333C384.476 383.745 385.271 383.503 386.516 382.293C387.76 381.083 387.968 379.423 387.968 375.377V344.256C387.968 339.933 387.726 338.274 386.758 337.063C385.069 335.744 382.948 335.103 380.811 335.265V333.156C384.476 333.156 387.726 333.536 391.425 333.536C395.124 333.536 398.34 333.156 402.004 333.156V335.196C399.882 335.071 397.788 335.736 396.127 337.063C395.09 338.274 394.917 339.933 394.917 343.979V375.1C394.917 379.181 394.917 380.806 396.3 382.016C397.683 383.227 398.824 383.641 402.523 384.056V386.166C398.755 386.166 395.09 385.751 391.425 385.751" fill="white"/>
<path d="M439.066 386.029C436.059 386.029 433.673 386.444 430.596 386.444V384.403C434.814 383.989 435.817 383.193 435.817 378.698V363.172C435.817 357.466 433.915 353.801 427.796 353.801C424.292 354.226 420.982 355.642 418.254 357.881V378.629C418.254 383.124 419.222 383.85 423.474 384.334V386.374C420.466 386.374 418.254 385.96 415.142 385.96C412.031 385.96 409.368 386.374 406.257 386.374V384.334C410.751 384.092 411.892 383.124 411.892 378.629V360.267C411.892 356.187 411.062 355.357 406.983 354.147V352.521C410.623 351.605 414.175 350.367 417.597 348.821H418.254V354.769C422.223 351.821 426.752 349.714 431.564 348.579C439.308 348.579 442.247 352.349 442.247 360.509V378.456C442.247 382.951 443.388 383.746 447.952 384.161V386.202C444.84 386.202 442.247 385.787 439.136 385.787" fill="white"/>
<path d="M478.582 353.974C480.357 356.339 481.249 359.25 481.106 362.204C481.067 363.963 480.675 365.696 479.954 367.3C479.232 368.905 478.196 370.348 476.906 371.545C475.616 372.741 474.099 373.667 472.445 374.266C470.791 374.865 469.034 375.125 467.277 375.032C465.85 375.017 464.427 374.879 463.025 374.617C461.412 376.02 459.888 377.522 458.461 379.113C458.461 381.533 460.363 382.571 464.58 382.363L473.155 382.19C480.069 382.19 485.497 383.608 485.497 391.354C485.497 399.1 475.678 406.43 465.479 406.43C455.28 406.43 450.717 400.725 450.717 395.849C453.662 393.008 456.894 390.482 460.363 388.311C458.241 388.311 456.206 387.47 454.703 385.973C453.2 384.476 452.351 382.445 452.342 380.323L460.743 373.96C458.276 373.024 456.172 371.326 454.736 369.112C453.3 366.898 452.607 364.285 452.757 361.65C452.791 359.89 453.18 358.154 453.9 356.547C454.62 354.941 455.656 353.495 456.947 352.298C458.237 351.1 459.756 350.175 461.412 349.578C463.068 348.981 464.828 348.723 466.586 348.821C469.508 348.591 472.425 349.333 474.883 350.931L486.396 350.274V354.216L478.582 353.974ZM472.705 388.242H463.543C460.762 390.016 458.403 392.376 456.629 395.158C456.629 398.028 460.086 402.488 468.072 402.488C476.059 402.488 480.795 398.823 480.795 393.947C480.795 389.072 477.338 388.38 472.809 388.38M466.931 351.484C462.022 351.484 459.74 354.942 459.74 361.374C459.74 367.805 462.368 372.37 467.243 372.37C472.117 372.37 474.365 368.912 474.365 362.515C474.365 356.118 471.806 351.484 466.931 351.484Z" fill="white"/>
<path d="M515.369 384.403C512.456 386.496 508.927 387.555 505.343 387.411C495.559 387.411 489.82 379.527 489.82 368.739C489.82 357.95 497.599 348.821 507.106 348.821C516.614 348.821 519.76 355.737 519.76 362.653C519.76 363.863 519.345 364.52 518.135 364.52L496.492 364.278C496.492 364.278 496.492 365.488 496.492 366.733C496.492 375.689 500.641 381.395 508.005 381.395C510.048 381.461 512.081 381.098 513.975 380.329C515.868 379.561 517.58 378.404 518.999 376.934L520.244 378.317L515.369 384.403ZM506 351.518C501.678 351.518 497.426 354.976 496.527 362.376L510.806 361.961C512.05 361.961 512.43 361.546 512.534 360.336C512.534 355.011 510.252 351.518 506 351.518Z" fill="white"/>
<path d="M556.994 386.029C553.986 386.029 551.6 386.444 548.523 386.444V384.403C552.776 383.989 553.744 383.193 553.744 378.698V363.172C553.744 357.466 551.877 353.801 545.723 353.801C542.219 354.226 538.909 355.642 536.181 357.881V378.629C536.181 383.124 537.183 383.85 541.401 384.334V386.374C538.393 386.374 536.181 385.96 533.104 385.96C530.027 385.96 527.296 386.374 524.184 386.374V384.334C528.679 384.092 529.819 383.124 529.819 378.629V360.267C529.819 356.187 529.024 355.357 524.945 354.147V352.521C528.574 351.605 532.115 350.367 535.524 348.821H536.181V354.769C540.154 351.827 544.682 349.722 549.491 348.579C557.236 348.579 560.174 352.349 560.174 360.509V378.456C560.174 382.951 561.315 383.746 565.879 384.161V386.202C562.767 386.202 560.174 385.787 557.063 385.787" fill="white"/>
<path d="M577.151 386.028C574.316 386.028 571.377 386.443 568.266 386.443V384.403C572.76 384.161 573.901 383.193 573.901 378.698V360.336C573.901 356.256 573.071 355.426 568.992 354.215V352.59C572.632 351.674 576.184 350.436 579.605 348.89H580.262V378.525C580.262 383.02 581.403 383.815 585.898 384.23V386.27C582.89 386.27 580.02 385.855 577.151 385.855M576.529 340.245C575.575 340.259 574.639 339.989 573.84 339.469C573.041 338.95 572.414 338.204 572.04 337.327C571.665 336.45 571.56 335.481 571.738 334.544C571.915 333.607 572.367 332.745 573.037 332.065C573.706 331.386 574.562 330.922 575.496 330.73C576.43 330.539 577.4 330.63 578.282 330.992C579.164 331.354 579.919 331.97 580.45 332.762C580.981 333.553 581.265 334.485 581.265 335.439C581.279 336.068 581.166 336.694 580.934 337.279C580.702 337.863 580.355 338.396 579.913 338.844C579.471 339.292 578.944 339.647 578.363 339.888C577.781 340.129 577.158 340.25 576.529 340.245Z" fill="white"/>
<path d="M615.177 384.403C612.264 386.496 608.735 387.555 605.151 387.411C595.367 387.411 589.663 379.527 589.663 368.739C589.663 357.95 597.407 348.821 606.776 348.821C616.145 348.821 619.43 355.737 619.43 362.653C619.43 363.863 619.015 364.52 617.805 364.52L596.162 364.278C596.162 364.278 596.162 365.488 596.162 366.733C596.162 375.689 600.311 381.395 607.675 381.395C609.722 381.457 611.76 381.092 613.658 380.325C615.557 379.557 617.275 378.402 618.704 376.934L619.914 378.317L615.177 384.403ZM605.808 351.518C601.486 351.518 597.234 354.976 596.335 362.376L610.614 361.961C611.858 361.961 612.239 361.546 612.342 360.336C612.342 355.011 610.061 351.518 605.808 351.518Z" fill="white"/>
<path d="M646.779 358.053C646.063 358.115 645.344 357.951 644.724 357.586C644.105 357.22 643.614 356.67 643.322 356.012C643.478 355.879 643.604 355.715 643.693 355.531C643.783 355.346 643.833 355.145 643.841 354.94C643.841 354.353 643.426 353.869 642.596 353.869C640.314 353.869 637.548 358.364 636.062 360.784V378.662C636.062 383.157 636.822 383.952 642.976 384.367V386.408C639.692 386.408 636.615 385.993 633.503 385.993C630.392 385.993 627.211 386.408 624.1 386.408V384.367C628.594 384.125 629.735 383.157 629.735 378.662V360.3C629.735 356.22 628.94 355.39 624.86 354.18V352.555C628.49 351.638 632.03 350.4 635.439 348.855H636.096V357.015C639.346 351.725 643.011 348.612 645.88 348.612C646.52 348.554 647.164 348.631 647.771 348.838C648.378 349.046 648.935 349.379 649.405 349.816C649.875 350.254 650.247 350.785 650.498 351.376C650.748 351.967 650.871 352.604 650.859 353.246C650.91 354.365 650.536 355.461 649.811 356.315C649.086 357.168 648.064 357.715 646.952 357.845" fill="white"/>
<path d="M662.129 386.029C659.259 386.029 656.321 386.444 653.209 386.444V384.404C657.703 384.162 658.844 383.193 658.844 378.698V360.336C658.844 356.256 658.049 355.426 653.97 354.216V352.591C657.609 351.669 661.16 350.431 664.583 348.891H665.206V378.525C665.206 383.02 666.381 383.816 670.841 384.231V386.271C667.833 386.271 664.964 385.856 662.129 385.856M668.006 335.267L656.805 345.156L655.767 344.326L662.682 333.33C663.996 331.29 664.722 330.045 666.52 330.045C667.223 330.045 667.899 330.319 668.402 330.81C668.906 331.301 669.198 331.97 669.216 332.673C669.251 333.187 669.159 333.702 668.948 334.173C668.737 334.643 668.413 335.054 668.006 335.37" fill="white"/>
<path d="M700.159 387.411C696.875 387.411 694.835 384.818 694.835 380.738C692.231 383.721 688.929 386.014 685.224 387.411C683.974 387.55 682.71 387.431 681.508 387.061C680.307 386.692 679.194 386.08 678.238 385.263C677.282 384.446 676.504 383.442 675.951 382.313C675.399 381.184 675.083 379.953 675.025 378.697C674.92 376.834 675.476 374.993 676.596 373.5C677.715 372.007 679.326 370.958 681.144 370.537L694.766 366.041V361.131C694.766 355.011 691.309 352.555 687.264 352.555C683.219 352.555 682.112 355.011 682.112 356.67C682.181 357.746 682.65 358.758 683.426 359.506C683.057 360.23 682.5 360.841 681.812 361.273C681.124 361.705 680.331 361.943 679.519 361.961C678.98 361.999 678.438 361.919 677.933 361.726C677.428 361.532 676.972 361.23 676.596 360.841C676.22 360.452 675.934 359.985 675.759 359.474C675.583 358.962 675.521 358.419 675.578 357.881C675.578 354.63 679.035 353.143 682.769 351.76C682.769 351.76 688.232 349.651 690.686 348.821C696.806 348.821 701.058 351.76 701.058 357.881V378.282C701.058 381.153 702.303 382.605 703.686 382.605C704.956 382.523 706.167 382.039 707.143 381.222L708.111 382.778C706.026 385.24 703.134 386.882 699.952 387.411M694.558 368.254L686.226 371.332C682.147 372.819 681.49 375.032 681.49 377.453C681.587 378.969 682.261 380.391 683.373 381.426C684.485 382.462 685.952 383.032 687.471 383.02C690.306 383.02 694.385 378.282 694.385 378.282L694.558 368.254Z" fill="white"/>
<path d="M28.4104 3.33909C27.8572 4.03068 27.7535 5.03348 27.7535 7.21197V18.3119C27.8589 20.7226 27.543 23.1332 26.82 25.4352C26.1632 27.1296 24.2271 31.6249 15.9296 31.6249C7.63216 31.6249 5.55779 27.0259 5.07378 25.4352C4.32971 23.1379 4.01332 20.7235 4.14031 18.3119V7.21197C4.14031 5.03348 4.14031 4.03068 3.44886 3.33909C2.56543 2.61436 1.44388 2.24455 0.302734 2.30172V0.953125C2.51539 0.953125 4.58976 1.12603 6.80241 1.12603C9.01507 1.12603 11.2623 0.953125 13.5095 0.953125V2.30172C11.85 2.30172 10.8474 2.64751 10.2597 3.30451C9.67195 3.96152 9.49909 4.9989 9.49909 7.21197V17.5857C9.31352 19.9312 9.6318 22.2893 10.4326 24.5016C11.0648 25.7589 12.0654 26.7934 13.301 27.4669C14.5365 28.1403 15.948 28.4208 17.3471 28.2707C18.7462 28.4208 20.1577 28.1403 21.3933 27.4669C22.6288 26.7934 23.6294 25.7589 24.2617 24.5016C25.0453 22.2851 25.3631 19.9307 25.1951 17.5857V7.21197C25.1951 4.9989 25.1951 3.9961 24.4691 3.30451C23.7431 2.61293 22.9825 2.44004 21.2884 2.30172V0.953125C23.1553 0.953125 24.7457 1.12603 26.5435 1.12603C28.3412 1.12603 29.7933 0.953125 31.7294 0.953125V2.30172C30.1736 2.30172 29.171 2.64751 28.6524 3.33909" fill="white"/>
<path d="M65.8165 3.30532C65.1942 3.96233 65.125 4.99971 65.0904 7.10904L64.8484 22.9809C64.8484 26.8192 65.125 31.0379 65.125 31.0379L62.6704 31.8678C61.2559 30.3295 59.9285 28.7133 58.6945 27.0267L43.8628 6.27914L44.1048 24.7099C44.1048 26.8192 44.2776 27.822 44.9691 28.5136C45.9798 29.2193 47.195 29.5717 48.4264 29.5164V30.9341C46.2137 30.9341 44.9691 30.7267 42.7219 30.7267C40.4746 30.7267 39.4375 30.9341 37.2939 30.9341V29.551C38.4774 29.5687 39.6331 29.1916 40.5784 28.479C41.2007 27.7874 41.2352 26.8192 41.2352 24.7445L41.5118 6.27914C41.5472 5.80027 41.4824 5.31929 41.3217 4.86682C41.161 4.41436 40.9079 4.00033 40.5784 3.65111C39.7098 2.95456 38.6471 2.54387 37.536 2.47542V1.12683C39.1263 1.12683 40.3018 1.29972 41.9267 1.29972C43.5516 1.29972 46.4212 1.12683 46.4212 1.12683C47.112 2.33193 47.886 3.48738 48.7375 4.58476L62.5666 23.5688L62.3592 7.38567C62.3592 5.27634 62.1863 4.16981 61.4257 3.5128C60.4075 2.82295 59.1977 2.47202 57.9685 2.51V1.16141C60.0774 1.16141 61.4257 1.3343 63.431 1.3343C65.4362 1.3343 66.8882 1.16141 68.9626 1.16141V2.51C67.8201 2.47961 66.7004 2.83264 65.7819 3.5128" fill="white"/>
<path d="M82.1377 30.7259C79.8905 30.7259 77.5741 30.9333 75.2231 30.9333V29.5502C77.1938 29.3081 77.989 29.1006 78.6804 28.4091C79.3719 27.7175 79.4064 26.5764 79.4064 24.467V7.38487C79.4064 5.24095 79.4065 4.169 78.7496 3.44284C78.0927 2.71667 77.0555 2.44004 75.4997 2.30172V0.953125C77.7124 0.953125 79.8213 1.16061 81.9994 1.16061C84.1775 1.16061 86.4247 0.953125 88.6028 0.953125V2.30172C87.4291 2.24611 86.2786 2.64205 85.3875 3.40826C84.7998 4.13442 84.7652 5.24095 84.7652 7.35029V24.6399C84.7652 26.7838 84.7652 27.752 85.4567 28.4436C86.1481 29.1352 87.047 29.3773 88.914 29.5847V31.0025C86.7013 31.0025 84.3158 30.795 81.9994 30.795" fill="white"/>
<path d="M121.169 4.13457C120.672 5.07325 120.267 6.05752 119.959 7.0738L113.493 25.2279C112.848 26.9495 112.294 28.7039 111.834 30.484C111.142 30.484 108.377 31.1064 107.097 31.4868C106.606 29.375 105.982 27.2962 105.231 25.2625L98.316 5.7598C98.0521 4.83745 97.5653 3.99426 96.8985 3.30466C96.1756 2.76639 95.3336 2.41052 94.4438 2.26729V0.918701C96.6565 0.918701 98.316 1.12617 100.563 1.12617C102.81 1.12617 105.127 0.918701 107.478 0.918701V2.26729C105.058 2.54392 104.021 3.09719 104.021 4.34205C104.134 5.64316 104.461 6.91668 104.989 8.11119L110.866 26.2653L116.709 8.14577C117.166 6.98002 117.468 5.75933 117.608 4.51494C117.608 3.33925 116.847 2.5785 114.15 2.30187V0.953275C116.19 0.953275 117.608 1.16075 119.475 1.16075C121.341 1.16075 122.171 0.953275 124.176 0.953275V2.30187C123.547 2.36628 122.939 2.56282 122.39 2.87864C121.842 3.19445 121.367 3.62242 120.996 4.13457" fill="white"/>
<path d="M152.319 30.9335C146.787 30.9335 137.971 30.726 135.689 30.726C133.408 30.726 131.022 30.9335 128.775 30.9335V29.5503C130.607 29.3083 131.506 29.1008 132.232 28.4092C132.958 27.7176 132.958 26.5765 132.958 24.5018V7.38502C132.958 5.27568 132.958 4.16915 132.267 3.44299C131.575 2.71682 130.573 2.44019 129.051 2.30187V0.953275C131.264 0.953275 133.373 1.12617 135.586 1.12617C139.665 1.12617 151.8 0.918701 151.8 0.918701V8.04203H150.417C148.896 3.54672 148.378 2.82056 145.232 2.82056H139.873C138.524 2.82056 138.386 3.13177 138.386 4.44578V14.37L142.639 14.1971C144.367 14.1971 145.266 13.9897 145.854 13.3327C146.537 12.438 146.913 11.3463 146.926 10.2205H148.343C148.343 12.157 148.101 13.6784 148.101 15.4766C148.101 17.2747 148.343 18.9345 148.343 20.8018H146.926C146.98 19.5597 146.601 18.3373 145.854 17.3438C145.301 16.7214 144.367 16.5139 142.639 16.4794H138.386V25.9887C138.386 28.0634 138.836 28.5475 140.979 28.5475H146.2C149.069 28.5475 150.936 26.2653 152.768 22.2195L154.29 22.7036L152.319 30.9335Z" fill="white"/>
<path d="M184.162 30.7268C182.883 30.7268 180.117 30.9342 180.117 30.9342L174.102 18.9007C173.479 17.6558 173.168 16.9296 171.924 16.8605H169.642V24.5717C169.642 26.681 169.642 27.7875 170.264 28.4791C170.887 29.1707 171.647 29.4128 173.41 29.6202V31.038C171.232 31.038 169.158 30.8305 166.911 30.8305C164.663 30.8305 162.312 31.038 159.996 31.038V29.6548C161.828 29.4473 162.727 29.2053 163.453 28.5137C164.179 27.8221 164.179 26.7156 164.179 24.5717V7.38577C164.179 5.20728 164.179 4.16991 163.488 3.44374C162.796 2.71758 161.794 2.44094 160.273 2.30263V0.954032C162.485 0.954032 164.352 1.12693 166.703 1.12693C169.054 1.12693 171.267 0.919458 173.41 0.919458C175.237 0.886384 177.057 1.14315 178.804 1.6802C180.228 2.03759 181.494 2.85475 182.407 4.00504C183.319 5.15534 183.827 6.57456 183.851 8.04278C183.851 12.6764 179.08 15.1661 176.384 15.754C178.251 15.996 179.495 17.6558 180.567 19.7651L184.024 26.4389C184.488 27.3286 185.165 28.0891 185.995 28.652C186.7 29.1207 187.505 29.4169 188.346 29.5165V30.9342C187.101 30.9342 185.407 30.7268 184.162 30.7268ZM171.474 2.61384H170.402C169.953 2.61384 169.573 2.89047 169.573 3.58206V15.2698H171.578C172.456 15.3295 173.336 15.197 174.157 14.8815C174.979 14.5659 175.722 14.075 176.334 13.4429C176.946 12.8108 177.413 12.0528 177.702 11.2217C177.991 10.3905 178.096 9.50631 178.009 8.63063C178.037 7.79346 177.882 6.96022 177.554 6.18942C177.226 5.41861 176.733 4.72892 176.111 4.16874C175.488 3.60856 174.75 3.19147 173.949 2.94675C173.148 2.70204 172.304 2.63561 171.474 2.75215" fill="white"/>
<path d="M208.95 29.0658C206.945 30.7668 204.388 31.6768 201.759 31.6247C198.786 31.7654 195.874 30.7492 193.634 28.7892L193.081 21.5275L194.775 21.2855C196.193 27.9247 199.408 29.4808 201.69 29.4808C203.073 29.5385 204.425 29.0548 205.458 28.1322C206.355 27.2059 206.852 25.9638 206.841 24.6742C206.903 23.4567 206.589 22.2496 205.942 21.2163C205.172 20.1713 204.18 19.3093 203.038 18.692L198.924 16.3061C197.622 15.5741 196.453 14.6271 195.467 13.5051C194.208 12.0352 193.542 10.1489 193.6 8.21452C193.609 6.97058 193.931 5.74894 194.535 4.6615C195.139 3.57407 196.006 2.6556 197.057 1.99026C199.124 0.70349 201.542 0.0986928 203.971 0.261294C206.508 0.211862 209.005 0.896292 211.163 2.23231L210.921 8.49115L209.434 8.69863C208.777 3.26969 205.769 2.23231 203.557 2.23231C202.949 2.12952 202.326 2.15498 201.728 2.30705C201.13 2.45912 200.571 2.73446 200.086 3.11539C199.601 3.49632 199.201 3.97445 198.912 4.51909C198.622 5.06374 198.45 5.66287 198.405 6.27808C198.316 7.51348 198.672 8.74007 199.408 9.73601C200.207 10.5292 201.115 11.2045 202.105 11.7416L206.322 14.2659C207.882 15.1458 209.256 16.3201 210.367 17.7238C211.391 19.1796 211.924 20.9239 211.889 22.7032C211.892 23.939 211.632 25.1614 211.125 26.2885C210.618 27.4155 209.877 28.4214 208.95 29.2387" fill="white"/>
<path d="M226.583 30.7259C224.336 30.7259 221.985 30.9333 219.668 30.9333V29.5502C221.674 29.3081 222.434 29.1006 223.126 28.4091C223.817 27.7175 223.852 26.5764 223.852 24.467V7.38487C223.852 5.24095 223.852 4.169 223.16 3.44284C222.469 2.71667 221.501 2.44004 219.945 2.30172V0.953125C222.158 0.953125 224.267 1.16061 226.41 1.16061C228.554 1.16061 230.835 0.953125 233.048 0.953125V2.30172C231.873 2.2389 230.72 2.63574 229.833 3.40826C229.211 4.13442 229.176 5.24095 229.176 7.35029V24.6399C229.176 26.7838 229.176 27.752 229.867 28.4436C230.559 29.1352 231.492 29.3773 233.325 29.5847V31.0025C231.147 31.0025 228.727 30.795 226.41 30.795" fill="white"/>
<path d="M264.474 28.1682C261.364 30.0944 257.759 31.068 254.102 30.9691C250.887 30.9691 249.504 30.7271 247.188 30.7271C244.871 30.7271 242.624 30.9691 240.273 30.9691V29.5514C242.244 29.3093 243.004 29.0673 243.73 28.3757C244.456 27.6841 244.456 26.6813 244.456 24.4682V7.38609C244.456 5.24218 244.456 4.17022 243.799 3.44406C243.359 3.04948 242.846 2.74559 242.288 2.54978C241.73 2.35397 241.14 2.27009 240.55 2.30295V0.95435C242.831 0.95435 244.906 1.16183 247.153 1.16183C249.4 1.16183 251.267 0.95435 254.068 0.95435C257.212 0.835983 260.337 1.50143 263.16 2.89079C265.446 4.16296 267.338 6.03867 268.631 8.31321C269.923 10.5878 270.566 13.1737 270.49 15.7889C270.596 18.201 270.091 20.6009 269.021 22.7653C267.951 24.9298 266.351 26.7884 264.37 28.1682M260.049 4.96555C257.857 3.34574 255.16 2.561 252.443 2.75247H251.682C250.057 2.75247 249.746 3.06369 249.746 4.82723V26.5776C249.746 28.272 250.368 28.9635 252.131 28.9635H253.065C255.799 29.1189 258.483 28.1867 260.533 26.3701C263.121 23.3815 264.425 19.492 264.163 15.5468C264.345 13.5847 264.069 11.607 263.355 9.77036C262.641 7.93374 261.509 6.2887 260.049 4.96555Z" fill="white"/>
<path d="M297.144 30.7258C294.932 30.7258 292.65 30.9333 290.437 30.9333V29.5501C292.753 29.2044 293.894 28.6511 293.894 27.2679C293.792 26.4411 293.595 25.6288 293.307 24.8474L291.751 19.868H282.07L280.307 24.8474C280.043 25.6303 279.881 26.4437 279.823 27.2679C279.823 28.6511 280.688 29.3081 283.28 29.5156V30.9333C281.414 30.9333 279.823 30.7258 278.06 30.7258C276.297 30.7258 275.329 30.9333 273.427 30.9333V29.5501C274.001 29.5033 274.558 29.3376 275.064 29.0638C275.57 28.79 276.013 28.4139 276.366 27.9595C276.914 26.9917 277.365 25.9725 277.714 24.9165L284.629 6.48578C285.231 4.75406 285.728 2.98725 286.115 1.19516C286.115 1.19516 289.573 0.711049 290.886 0.468994C291.392 2.49757 292.016 4.495 292.753 6.4512L299.668 26.0576C299.937 26.9475 300.424 27.7559 301.085 28.409C301.768 29.0259 302.626 29.4129 303.54 29.5156V30.9333C301.362 30.9333 299.599 30.7258 297.317 30.7258M287.222 5.27551L282.658 17.5511H290.852L287.222 5.27551Z" fill="white"/>
<path d="M332.374 28.1676C329.264 30.0938 325.658 31.0674 322.002 30.9685C318.787 30.9685 317.404 30.7265 315.087 30.7265C312.771 30.7265 310.524 30.9685 308.173 30.9685V29.5508C310.143 29.3087 310.939 29.0667 311.63 28.3751C312.322 27.6835 312.391 26.6807 312.391 24.4676V7.38549C312.391 5.24158 312.391 4.16962 311.699 3.44346C311.008 2.71729 310.005 2.44066 308.484 2.30234V0.953749C310.731 0.953749 312.806 1.16123 315.053 1.16123C317.3 1.16123 319.202 0.953749 321.967 0.953749C325.106 0.813898 328.23 1.45551 331.06 2.82103C333.351 4.0872 335.248 5.96165 336.541 8.2376C337.834 10.5136 338.474 13.1026 338.389 15.7191C338.496 18.1313 337.991 20.5312 336.921 22.6956C335.851 24.86 334.251 26.7186 332.27 28.0985M327.948 4.89579C325.771 3.27562 323.084 2.49038 320.377 2.68271H319.582C317.957 2.68271 317.646 2.99393 317.646 4.75747V26.5078C317.646 28.2022 318.303 28.8938 320.031 28.8938H320.965C323.708 29.0397 326.4 28.1092 328.467 26.3003C330.993 23.2852 332.235 19.3986 331.924 15.477C332.1 13.5124 331.817 11.5337 331.097 9.6974C330.377 7.86104 329.24 6.21724 327.776 4.89579" fill="white"/>
<path d="M304.752 379.043C295.97 379.043 289.16 372.542 288.952 365.799C288.952 360.509 290.266 353.213 300.569 347.68C300.569 347.68 319.514 337.929 321.693 336.545V367.667C321.693 367.667 311.321 378.974 304.752 378.974M66.8913 54.3096H333.828V84.1861C329.817 77.2702 321.762 73.6394 311.528 73.8123L292.686 80.8319C283.939 84.2898 275.4 87.7477 275.607 95.5626C275.484 96.841 275.64 98.1308 276.065 99.3427C276.49 100.555 277.174 101.659 278.068 102.581C278.963 103.502 280.047 104.217 281.246 104.677C282.445 105.137 283.73 105.331 285.011 105.245C286.954 105.189 288.847 104.61 290.49 103.57C292.132 102.529 293.464 101.065 294.345 99.3318C292.46 97.5074 291.336 95.0362 291.199 92.4159C291.199 88.5085 293.654 82.63 303.404 82.5954C313.153 82.5608 321.381 88.3356 321.451 102.963V106.421C315.158 110.328 288.606 123.468 288.606 123.468C280.205 127.479 272.876 133.358 272.91 145.08C272.945 156.802 284.354 165.828 300.569 165.828C308.359 161.453 315.512 156.031 321.831 149.714C321.831 159.119 326.464 165.136 333.758 165.551V186.091H331.511C324.543 191.093 316.29 193.997 307.725 194.459V198.367C317.475 201.306 319.411 203.242 319.411 212.994V256.875C319.411 267.594 316.679 269.946 305.962 270.707V275.582H333.62V307.533C329.541 300.86 321.658 297.54 311.736 297.54L292.824 304.456C284.077 307.914 275.538 311.372 275.538 319.083C275.405 320.364 275.552 321.658 275.97 322.876C276.388 324.094 277.067 325.206 277.959 326.134C278.851 327.062 279.935 327.785 281.135 328.251C282.335 328.718 283.622 328.917 284.907 328.834C286.844 328.785 288.731 328.217 290.373 327.189C292.015 326.161 293.351 324.711 294.242 322.99C292.386 321.149 291.277 318.685 291.13 316.075C291.13 312.167 293.689 306.323 303.404 306.323C313.118 306.323 321.347 312.167 321.347 326.794V330.252C315.055 334.09 288.434 347.092 288.434 347.092C279.963 351.069 272.599 356.913 272.599 368.6C272.699 371.982 273.692 375.276 275.477 378.149C277.262 381.022 279.776 383.37 282.764 384.956H258.459C254.483 383.297 253.204 380.081 253.204 372.992V325.826C253.204 305.078 242.832 295.707 223.921 297.367C215.001 302.243 195.917 312.167 195.917 312.167L196.124 297.955H193.428C185.998 302.327 177.77 305.172 169.227 306.323V310.231C178.942 313.135 180.912 315.106 180.912 324.858V373.269C180.912 380.184 179.771 383.642 176.176 385.233H154.395L162.623 376.83L161.171 374.928C158.77 376.991 155.757 378.206 152.597 378.386C149.14 378.386 146.339 374.928 146.339 368.013V319.014C146.339 304.387 135.968 297.367 121.413 297.367L102.501 304.283C93.7197 307.741 85.2148 311.199 85.2148 318.91C85.0759 320.189 85.2185 321.483 85.6325 322.701C86.0465 323.918 86.722 325.031 87.6114 325.96C88.5009 326.889 89.5828 327.613 90.7814 328.079C91.9799 328.546 93.266 328.745 94.5495 328.661C96.4918 328.618 98.3868 328.053 100.035 327.025C101.684 325.996 103.025 324.543 103.919 322.817C102.063 320.976 100.954 318.512 100.807 315.902C100.807 311.994 103.331 306.15 113.08 306.15C122.83 306.15 131.024 311.994 131.024 326.621V330.079C124.731 333.917 98.1105 346.919 98.1105 346.919C89.6401 350.896 82.2761 356.74 82.2761 368.428C82.3338 371.863 83.3142 375.22 85.1147 378.146C86.9151 381.072 89.4693 383.46 92.5097 385.06H56.4848C56.9697 384.869 57.443 384.649 57.9023 384.403L71.2128 372.197V367.39C62.8137 373.115 52.8534 376.11 42.6903 375.966C25.1965 375.966 11.5748 363.621 11.1254 338.205C10.7451 317.734 19.976 303.972 36.4326 303.972C46.8045 303.972 55.5859 308.433 55.5859 315.521C55.5859 319.775 52.993 322.437 50.0543 322.264C50.1877 324.405 51.1659 326.406 52.7737 327.826C54.3816 329.246 56.4874 329.97 58.6284 329.837C60.0871 329.816 61.5266 329.501 62.8609 328.91C64.1951 328.32 65.3967 327.467 66.3939 326.402C67.3911 325.337 68.1634 324.081 68.6646 322.711C69.1659 321.341 69.3858 319.883 69.3113 318.426C69.0693 307.153 57.1763 297.678 37.1932 297.678C30.6544 297.653 24.1962 299.123 18.312 301.975C12.4279 304.828 7.27359 308.988 3.24278 314.138V275.409H29.5527V270.534C19.1808 269.531 17.0719 267.594 17.0719 256.702V208.153C21.9466 204.245 31.1084 197.433 39.8899 197.433C53.5116 197.433 57.1763 206.182 57.1763 219.84V256.875C57.1763 267.594 54.8599 269.531 44.6955 270.707V275.582H84.5579V270.534C74.1861 269.531 72.1117 267.594 72.1117 256.702V215.933C72.1117 212.026 71.9043 208.153 71.9043 208.153C76.7791 204.245 86.1137 197.433 94.8952 197.433C108.724 197.433 112.182 206.182 112.182 219.84V256.875C112.182 267.594 109.831 269.531 99.7354 270.707V275.582H140.912V270.534C130.021 269.531 127.29 267.594 127.29 256.702V213.997C127.29 192.696 114.844 183.705 97.3844 185.538C88.9698 191.72 80.1449 197.323 70.9708 202.309C66.995 187.993 56.7269 183.359 42.7595 185.538C34.4179 191.304 25.7486 196.58 16.7953 201.341L16.9682 186.126H13.7529C10.7202 188.869 7.08406 190.859 3.13906 191.935V163.545H38.0576V158.428C28.308 157.252 25.3694 156.491 22.4652 153.552C19.5611 150.613 19.008 146.636 19.008 136.989V118.834H40.6505C50.1594 119.056 59.4448 115.935 66.8913 110.017C71.3493 106.379 74.9027 101.756 77.2723 96.5117C79.6419 91.2676 80.763 85.5452 80.5475 79.7945C80.6255 74.7261 79.413 69.7212 77.024 65.2508C74.6349 60.7804 71.148 56.9914 66.8913 54.2404M189.97 185.642C167.913 185.642 147.446 202.482 147.446 232.635C147.446 256.564 162.796 277.83 189.797 277.83C194.626 277.846 199.413 276.942 203.903 275.167C215.762 266.937 223.368 261.82 223.368 261.82V256.806C215.006 261.973 205.288 264.514 195.467 264.102C175.761 264.102 166.426 247.124 165.354 235.782L223.368 224.128C225.477 194.252 207.637 185.503 189.97 185.503M263.472 205.559V186.091H260.015C252.983 190.69 244.962 193.557 236.609 194.459V198.367C246.358 201.306 248.295 203.242 248.295 212.994V256.875C248.295 267.594 245.598 269.946 234.846 270.707V275.582H279.79V270.534C265.166 269.531 263.403 267.594 263.403 256.702V214.169C266.86 208.326 273.533 197.606 278.995 197.606C279.359 197.556 279.729 197.586 280.081 197.692C280.432 197.798 280.757 197.979 281.032 198.221C281.308 198.464 281.528 198.763 281.677 199.099C281.827 199.434 281.903 199.798 281.899 200.165C281.893 200.642 281.789 201.112 281.593 201.546C281.396 201.981 281.112 202.37 280.758 202.689C281.391 204.332 282.565 205.71 284.086 206.596C285.607 207.482 287.384 207.824 289.125 207.565C291.777 207.262 294.216 205.967 295.954 203.94C297.691 201.914 298.599 199.305 298.494 196.638C298.519 195.105 298.222 193.583 297.623 192.172C297.023 190.761 296.134 189.491 295.013 188.445C293.892 187.399 292.565 186.6 291.116 186.099C289.667 185.598 288.129 185.407 286.601 185.538C282.811 185.771 279.219 187.311 276.437 189.895C269.73 198.332 263.23 205.594 263.23 205.594M166.392 163.545H207.499V158.704C197.369 157.529 195.053 155.765 195.053 145.046V95.3551C199.893 91.4477 210.057 85.6038 217.836 85.6038C232.46 85.6038 236.955 94.3524 236.955 108.011V145.046C236.955 155.765 234.604 157.702 224.474 158.704V163.545H265.961V158.704C255.036 157.702 252.132 155.765 252.132 145.046V102.167C252.132 81.4197 241.76 72.0142 222.849 73.7085C213.964 78.5842 194.845 88.5085 194.845 88.5085L195.053 74.2964H192.356C184.926 78.6683 176.698 81.5133 168.155 82.6646V86.572C177.87 89.5113 179.84 91.4477 179.84 101.199V145.046C179.84 155.765 177.109 158.117 166.392 158.704V163.545ZM131.439 106.559C125.181 110.535 98.629 123.848 98.629 123.848C90.1933 127.86 82.8639 133.738 82.933 145.46C83.0022 157.183 94.3766 166.208 110.591 166.208C118.376 161.825 125.528 156.404 131.853 150.094C131.853 159.845 136.832 166.07 144.611 166.001C147.515 165.896 150.35 165.089 152.874 163.649L163.246 152.999L161.655 150.855C159.268 152.94 156.247 154.159 153.081 154.313C149.624 154.313 146.858 150.855 146.789 143.939L146.512 95.1823C146.512 80.5898 136.14 73.6048 121.447 73.7085L102.57 80.8319C93.8234 84.2898 85.284 87.7477 85.526 95.5626C85.3966 96.8423 85.5487 98.1347 85.9715 99.3493C86.3943 100.564 87.0777 101.671 87.9737 102.594C88.8697 103.516 89.9566 104.232 91.1583 104.69C92.3599 105.148 93.6472 105.337 94.9298 105.245C96.8682 105.186 98.7551 104.606 100.392 103.566C102.028 102.525 103.354 101.063 104.23 99.3318C102.344 97.5074 101.22 95.0362 101.084 92.4159C101.084 88.5085 103.573 82.63 113.322 82.5954C123.072 82.5608 131.266 88.3356 131.369 102.963L131.439 106.559ZM288.918 142.175C289.432 145.96 291.349 149.414 294.287 151.854C297.225 154.293 300.972 155.541 304.786 155.35C311.424 155.35 321.693 143.939 321.693 143.939L321.52 112.818C319.342 114.201 300.465 124.056 300.465 124.056C290.093 129.623 288.71 136.954 288.918 142.21M114.775 155.419C121.378 155.419 131.646 144.008 131.646 144.008V112.887C129.503 114.27 110.591 124.125 110.591 124.125C100.219 129.692 98.8711 137.023 99.0785 142.279C99.5857 146.067 101.5 149.526 104.44 151.967C107.38 154.408 111.131 155.653 114.947 155.454M191.007 191.762C174.793 191.762 164.559 206.147 164.974 230.041L206.6 221.569C209.78 199.681 199.374 191.728 190.627 191.728M321.796 373.58C317.476 377.881 312.726 381.728 307.621 385.06H325.15C322.755 381.723 321.539 377.684 321.693 373.58M20.9095 54.3442C19.3537 55.6927 18.9734 58.0441 18.9734 62.9198V112.61H38.265C50.5383 112.61 61.2559 102.236 61.2559 81.8347C61.2559 66.2048 53.6499 57.6292 41.4111 54.1713H21.0823M3.10449 372.854V384.887H17.4868C11.8064 382.074 6.87664 377.949 3.10449 372.854ZM131.335 373.407C127.008 377.7 122.259 381.547 117.16 384.887H134.654C132.273 381.543 131.059 377.509 131.197 373.407M237.923 372.923V331.428C237.923 317.769 233.463 309.02 218.839 309.02C211.06 309.02 200.895 314.864 196.055 318.772V372.854C196.055 380.081 197.161 383.227 200.964 384.818H233.221C236.851 383.158 237.923 379.942 237.923 372.854M131.024 367.494V336.373C128.846 337.756 109.9 347.507 109.9 347.507C99.5279 353.04 98.1105 360.336 98.2833 365.627C98.4907 372.542 105.198 378.87 114.083 378.87C120.686 378.87 131.024 367.563 131.024 367.563" fill="white"/>
</svg>
